<svg xmlns="http://www.w3.org/2000/svg" viewBox="0 0 320.75 481.66"><defs><style>.cls-1{fill:#c7d2d7;}.cls-2{fill:#99a3b0;}.cls-3{fill:#fff;}.cls-4{fill:#454f6b;}.cls-5{fill:#f4d071;}.cls-6{fill:#fdf7e7;}.cls-7{fill:#422c4f;}.cls-8{fill:#bd6c67;}.cls-9{fill:#a64f5a;}.cls-10{fill:#e7faf9;}</style></defs><g id="Layer_2" data-name="Layer 2"><g id="OBJECT"><path class="cls-1" d="M242.32,469.82c0,6.54-51.53,11.84-115.11,11.84S12.1,476.36,12.1,469.82,63.64,458,127.21,458,242.32,463.29,242.32,469.82Z"/><path class="cls-1" d="M91.29,103.58c-7.27,14.08-8,30.47-10,46.18s-6.14,32.36-18,42.86c-8,7-18.42,10.42-27.53,15.89-30,18-41.56,58.33-33,92.27s33.62,61.69,62.37,81.64c21.09,14.64,44.86,26,70.21,30s52.35.49,74.36-12.73c24.39-14.65,41-40,49.92-67s10.93-55.8,11.54-84.26c.81-38.09-1-77.53-17.63-111.82-15.61-32.24-43.7-53.95-78.67-60.8C145.31,70,106.67,73.81,91.29,103.58Z"/><path class="cls-2" d="M281.45,0a42.72,42.72,0,0,1,4.17,21.35,54.06,54.06,0,0,0-22.38-20.2,40.33,40.33,0,0,1,10.69,22.3,58.19,58.19,0,0,0-19.84-13.14,37,37,0,0,1,11.57,29.25,17.72,17.72,0,0,1-20.15.2c2.89,9,12.61,14.89,22,15.2a50.71,50.71,0,0,1,7.51,50.48,50.86,50.86,0,0,1-29.9,27.94c-.42-15.51-2.12-31.08-7-45.79-5.27-16-14.46-31-27.84-41.13a67.13,67.13,0,0,0-105.63,36.8,68,68,0,0,0,1.88,39c3.14,9,10.16,16.6,12.87,25.66-9.18.8-18.62-2.32-26-7.9-8.58-6.48-14.57-16-18.13-26.14s-4.82-21-5.23-31.72c7.21-7.71,12.41-17.87,13.26-28.4-4.9,7.09-14.06,11.51-22.67,11.79-2.89-11.3-2.88-23.38-1.23-34.93A45.69,45.69,0,0,0,47.2,58.54c-4.57-9.41-6.72-20-4.86-30.33C33.55,38.94,28.89,53.63,30.81,67.36a49.83,49.83,0,0,1-9.4-24.8C15.22,106.6,43,191,116.72,185.31c-4.48,13.55-11.63,26.62-17.92,37.28-13.23,22.4-28.94,43.91-36,69S59.61,347,80.12,363c18,14,44.4,13.15,64.71,2.78s35.43-28.62,47.91-47.7a323.68,323.68,0,0,0,45.45-109.55C331.37,176.16,345.51,66.51,281.45,0ZM126.58,123.41a13.65,13.65,0,0,1-15-7c-3.22-5.81-2.33-14.72,2.43-18.06,3.73-2.62,8.87-1.64,12.21-5,2.15-2.13,3.09-5.59,4-8.86s1.85-6.72,4.08-8.75c6.44-5.87,9.64,4.2,10.2,10.24a45.82,45.82,0,0,1-4.92,25.82C136.51,117.48,132,122.08,126.58,123.41Zm56.12,33.71c-.5,5.61-1.45,11.29-3.94,16.35s-6.69,9.48-12.06,11.2-11.89.27-15.27-4.24-3-11-2.42-16.8S151.24,153,147.93,148s-5.17-10.52-3.16-16.48A17.67,17.67,0,0,1,162,119.85c7.94.47,14.74,6.56,18,13.83S183.41,149.2,182.7,157.12Zm27.47-47.84c-3.22,6.12-10.7,9.25-17.57,8.5s-13-4.85-17.56-10.09a39.8,39.8,0,0,1-9.44-25.16c-.1-6.06,2.53-16.42,11.27-11.25,3,1.78,4.69,5.1,6.18,8.26s3.09,6.51,6,8.4c4.57,2.94,10.78,1.43,15.74,3.64C211.13,94.4,213.4,103.17,210.17,109.28Z"/><path class="cls-3" d="M204.82,91.58c-5-2.21-11.17-.7-15.74-3.64-2.94-1.89-4.54-5.23-6-8.4s-3.17-6.48-6.18-8.26c-8.74-5.17-11.37,5.19-11.27,11.25A39.8,39.8,0,0,0,175,107.69c4.51,5.24,10.69,9.34,17.56,10.09s14.35-2.38,17.57-8.5S211.13,94.4,204.82,91.58Z"/><path class="cls-3" d="M144.49,86.07c-.56-6-3.76-16.11-10.2-10.24-2.23,2-3.22,5.48-4.08,8.75s-1.8,6.73-4,8.86c-3.34,3.31-8.48,2.33-12.21,5-4.76,3.34-5.65,12.25-2.43,18.06a13.65,13.65,0,0,0,15,7c5.42-1.33,9.93-5.93,13-11.52A45.82,45.82,0,0,0,144.49,86.07Z"/><path class="cls-3" d="M162,119.85a17.67,17.67,0,0,0-17.27,11.65c-2,6-.13,11.48,3.16,16.48s1.7,9.77,1.08,15.65-1.06,12.16,2.42,16.8,9.9,6,15.27,4.24,9.57-6.14,12.06-11.2,3.44-10.74,3.94-16.35c.71-7.92.53-16.17-2.69-23.44S170,120.32,162,119.85Z"/><path class="cls-4" d="M104.4,283.3l-38.74,70a28.54,28.54,0,0,0-3.06,19.17L76,442.69h39L92.54,368.22,130,322.57l16.84,65L168.54,458h38.51l-30.35-81.1,1.65-55.21a80.14,80.14,0,0,0-9.85-40.94l-1-1.78-24,4.34Z"/><path class="cls-5" d="M102.53,442.69H85.7L83.4,446a13.85,13.85,0,0,1-7.79,5.44l-1.06.28A13.72,13.72,0,0,0,66.91,457h40.26Z"/><path class="cls-6" d="M66.91,457a13.73,13.73,0,0,0-2.1,4.25h43.74L107.17,457Z"/><path class="cls-5" d="M193.66,458H176.83l-3.48,3.91a13.84,13.84,0,0,1-6.78,4.16l-1.93.51a13.76,13.76,0,0,0-7.76,5.45h40.64Z"/><path class="cls-6" d="M156.88,472a13.79,13.79,0,0,0-2,4.08h43.74L197.52,472Z"/><path class="cls-7" d="M146.87,387.82a.22.22,0,0,1-.22-.16l-20.92-80.83a.22.22,0,0,1,.43-.11l20.92,80.83a.21.21,0,0,1-.16.26Z"/><path class="cls-7" d="M92.55,368.44a.24.24,0,0,1-.14-.05.21.21,0,0,1,0-.31l37.48-45.65a.23.23,0,0,1,.31,0,.21.21,0,0,1,0,.31L92.71,368.36A.21.21,0,0,1,92.55,368.44Z"/><path class="cls-7" d="M100.8,247.15a35.42,35.42,0,0,1-32.24-.63c-4-2.21-7.7-6-8.23-10.55a13.62,13.62,0,0,1-12.69-7.68c-2.2-4.75-1.54-11.55,2-15.38-3.54-5.36-5.2-12.16-3.5-18.35s7.51-12.22,13.9-12.8a16.08,16.08,0,0,1-1.55-15.57,15.16,15.16,0,0,1,12.26-8.92,15.18,15.18,0,0,1,26.13-7.65,12.32,12.32,0,0,1,19.48,10.19,13.89,13.89,0,0,1,11.39,7.36,13.64,13.64,0,0,1-.79,13.4c4.86,3,8.3,9.71,8.66,15.41A18.23,18.23,0,0,1,129,211.07a16.61,16.61,0,0,1,1.45,16.39,16.3,16.3,0,0,1-13.69,8.82,10.62,10.62,0,0,1-4.19,9.42C109.58,247.75,104.11,248.65,100.8,247.15Z"/><path class="cls-8" d="M83.11,253.54l6.12,14.62L62.09,294.35l-12.31,5.46a8.44,8.44,0,0,0-4.9,5.72,13.26,13.26,0,0,0-.27,3.75,14.12,14.12,0,0,0,1.2,4.82A5.1,5.1,0,0,0,51.45,317h0a3.75,3.75,0,0,0,3.69,1.54l.89-.14a5.57,5.57,0,0,0,.79,1.58c.84.95,3.64.47,4.05-.78.21-.62-.18-1.38-.29-2l1.42-.29a1.41,1.41,0,0,0,1.16-1.53,14.29,14.29,0,0,1,3.08-10.8,13.27,13.27,0,0,1,.2,4.42,4.93,4.93,0,0,0,3.22,5.16h0c2.9-7.34,1.63-12.61,1.63-12.61l37.23-18.19-16.7-29.76Z"/><path class="cls-7" d="M54.47,298a.23.23,0,0,1-.2-.13.22.22,0,0,1,.11-.29L62,294.16,89.08,268a.22.22,0,1,1,.3.31L62.24,294.5a.15.15,0,0,1-.06.05l-7.62,3.38Z"/><path class="cls-7" d="M59.82,317.51a1.31,1.31,0,0,1-.55-.1,1.14,1.14,0,0,1-.63-.66c-2.38-6.14-.69-10.06,1.09-13.25a.22.22,0,0,1,.29-.09.22.22,0,0,1,.09.3c-1.73,3.11-3.37,6.92-1.06,12.88a.72.72,0,0,0,.38.42,1.77,1.77,0,0,0,1.12-.08.21.21,0,0,1,.28.11.22.22,0,0,1-.11.29A2.59,2.59,0,0,1,59.82,317.51Z"/><path class="cls-7" d="M56.08,318.58a.22.22,0,0,1-.21-.14c-2.6-7.17-2.3-10.82-1.6-12.62a.21.21,0,0,1,.28-.12.21.21,0,0,1,.13.28c-.68,1.73-1,5.27,1.6,12.31a.22.22,0,0,1-.13.28Z"/><path class="cls-7" d="M51.45,317.17a.2.2,0,0,1-.19-.11c-3.52-6.68-2-10.76-1.93-10.93a.23.23,0,0,1,.29-.13.22.22,0,0,1,.12.29s-1.51,4.08,1.9,10.56a.22.22,0,0,1-.09.3Z"/><path class="cls-5" d="M123.66,200.66l-7.29,5.07a32.3,32.3,0,0,1-.88,4.87,17.89,17.89,0,0,1-4.51,8.12,14.89,14.89,0,0,1-15.8,2.83,16.45,16.45,0,0,1-8.66-8.9H85a14.29,14.29,0,0,0-12.7,20.81l5.89,11.45.16,5a10.19,10.19,0,0,0,6.79,9.29l6,2.14L104.4,283.3h39.15l14.54-16.84Z"/><path class="cls-8" d="M95.18,221.55a14.89,14.89,0,0,0,15.8-2.83,17.89,17.89,0,0,0,4.51-8.12,32.3,32.3,0,0,0,.88-4.87L109,210.82l-.83-13.09-15.74,1.18-.78,13.74H86.52A16.45,16.45,0,0,0,95.18,221.55Z"/><path class="cls-7" d="M92.26,202.7c12.14,8.76,16.47,3.32,16.47,3.32l-.52-8.29-15.74,1.18Z"/><path class="cls-7" d="M115.4,256.65a20.9,20.9,0,0,1-14.65-5.95.23.23,0,0,1,0-.31.22.22,0,0,1,.31,0,20.38,20.38,0,0,0,19.78,5.05.22.22,0,1,1,.12.42A19.71,19.71,0,0,1,115.4,256.65Z"/><path class="cls-7" d="M78.3,250.15a.21.21,0,0,1-.22-.21l-.82-25.69a.22.22,0,0,1,.21-.23.2.2,0,0,1,.22.22l.82,25.68a.21.21,0,0,1-.21.23Z"/><path class="cls-8" d="M99.77,161.22l2.06,1.41a35,35,0,0,1,13,16.62h0a34.85,34.85,0,0,1,2.23,12.29v.28a11.55,11.55,0,0,1-6.39,10.34h0a11.56,11.56,0,0,1-8.58.71l-8.83-2.71h0a9.06,9.06,0,0,0-.15-6.75L91.69,190C101.56,177.71,99.77,161.22,99.77,161.22Z"/><path class="cls-8" d="M86.38,192.82a5.3,5.3,0,0,0-4.49,1.2,4.21,4.21,0,0,0-.47,4.75,6.81,6.81,0,0,0,3.89,3.08,19.29,19.29,0,0,0,5,.81c1.6.11,3.46.14,4.48-1.31s.21-2.45-.69-3.65A11.34,11.34,0,0,0,86.38,192.82Z"/><path class="cls-9" d="M91.45,200.66c-.33,0-.67,0-1,0a17.07,17.07,0,0,1-4.48-.69,4.85,4.85,0,0,1-2.75-2.11,2.19,2.19,0,0,1,.13-2.39,3,3,0,0,1,2-.63,6,6,0,0,1,.74,0,9.31,9.31,0,0,1,6.34,4.06,6.89,6.89,0,0,1,.75,1.12l-.09.15C93,200.32,92.79,200.66,91.45,200.66Z"/><path class="cls-5" d="M123.66,200.66h0a20.56,20.56,0,0,1,28.87,5.53l17.29,26.1L148,247.12Z"/><path class="cls-8" d="M148,247.12l9,17.28-24.09,21.79a16.83,16.83,0,0,0-15.33-2.12,17.38,17.38,0,0,0-10,9.08,2.28,2.28,0,0,0,1.4,3.09h0a2.25,2.25,0,0,0,2.53-.82,15.84,15.84,0,0,1,7.73-5.65,24.93,24.93,0,0,0-5.71,7.53,2.73,2.73,0,0,0,1.4,3.75l.05,0a2.72,2.72,0,0,0,3.17-.9,48,48,0,0,1,8.35-8.45l-5.23,8.75a2.1,2.1,0,0,0,1,3h0a2.09,2.09,0,0,0,2.2-.42c2-1.91,4.12-3.79,6.11-5.7-.73,1.15-1.43,2.4-2.14,3.62a1.9,1.9,0,0,0,1,2.75l0,0a1.9,1.9,0,0,0,2.25-.81c.76-1.28,1.47-2.56,2.29-3.83l.56,0a7.77,7.77,0,0,0,8-5.51h0l33.47-16.12A14.28,14.28,0,0,0,182,257L167.24,234Z"/><polygon class="cls-7" points="167.24 234.04 147.97 247.12 151.33 253.54 168.3 235.68 167.24 234.04"/><path class="cls-7" d="M148,247.34h-.06a.19.19,0,0,1-.14-.11L132,217a.2.2,0,0,1,.09-.29.22.22,0,0,1,.3.09l15.69,30,21.65-14.69a.22.22,0,1,1,.24.36L148.09,247.3A.19.19,0,0,1,148,247.34Z"/><path class="cls-7" d="M132.92,286.41a.23.23,0,0,1-.16-.08.22.22,0,0,1,0-.31l34.41-31.13a.22.22,0,0,1,.3.33l-34.42,31.13A.2.2,0,0,1,132.92,286.41Z"/><path class="cls-7" d="M145.28,242.2a.23.23,0,0,1-.19-.1.22.22,0,0,1,.07-.3l17.68-11.34a.21.21,0,0,1,.3.07.21.21,0,0,1-.07.3l-17.68,11.34A.2.2,0,0,1,145.28,242.2Z"/><path class="cls-10" d="M35.71,326.9a1,1,0,0,1-.88-.5A35.23,35.23,0,0,1,36,289.14a1,1,0,0,1,1.69,1.15,33.59,33.59,0,0,0-1.06,35.07,1,1,0,0,1-.36,1.4A1.07,1.07,0,0,1,35.71,326.9Z"/><path class="cls-10" d="M24.42,322.24a1,1,0,0,1-.92-.58,29.66,29.66,0,0,1,1.57-27.77A1,1,0,1,1,26.8,295a27.56,27.56,0,0,0-1.46,25.81,1,1,0,0,1-.48,1.36A1,1,0,0,1,24.42,322.24Z"/><path class="cls-10" d="M194.06,284.09a1,1,0,0,1-.79-1.66,33.59,33.59,0,0,0,3.95-34.86,1,1,0,1,1,1.83-.9,35.21,35.21,0,0,1-4.19,37A1,1,0,0,1,194.06,284.09Z"/><path class="cls-10" d="M205.28,280.29a1,1,0,0,1-.82-1.62,27.59,27.59,0,0,0,3.59-25.61,1,1,0,0,1,.59-1.32,1,1,0,0,1,1.32.6,29.63,29.63,0,0,1-3.86,27.54A1,1,0,0,1,205.28,280.29Z"/><path class="cls-10" d="M45.32,179a1,1,0,0,1-1-.81,35.24,35.24,0,0,1,13.07-34.91,1,1,0,1,1,1.23,1.63,33.57,33.57,0,0,0-12.3,32.86,1,1,0,0,1-.79,1.21Z"/><path class="cls-10" d="M36.13,171a1,1,0,0,1-1-.9A29.64,29.64,0,0,1,45.56,144.3a1,1,0,0,1,1.29,1.57,27.54,27.54,0,0,0-9.7,24,1,1,0,0,1-.9,1.13Z"/><path class="cls-10" d="M200,382a1,1,0,0,1-.54-.16,1,1,0,0,1-.32-1.41,33.59,33.59,0,0,0-.19-35.08,1,1,0,0,1,1.72-1.11,35.22,35.22,0,0,1,.19,37.28A1,1,0,0,1,200,382Z"/><path class="cls-10" d="M210.67,376.91a1,1,0,0,1-.51-.13,1,1,0,0,1-.37-1.39,27.55,27.55,0,0,0,.54-25.85,1,1,0,0,1,.44-1.38,1,1,0,0,1,1.37.44,29.65,29.65,0,0,1-.58,27.8A1,1,0,0,1,210.67,376.91Z"/></g></g></svg>