<svg xmlns="http://www.w3.org/2000/svg" viewBox="0 0 247.54 460.98"><defs><style>.cls-1{fill:#c7d2d7;}.cls-2{fill:#f2c9ad;}.cls-3{fill:#e36b85;}.cls-4{fill:#422c4f;}.cls-5{fill:#454f6b;}.cls-6{fill:#8c404c;}.cls-7{fill:#ce4e70;}.cls-8{fill:#eba58e;}.cls-9{fill:none;}.cls-10{fill:#e7faf9;}</style></defs><g id="Layer_2" data-name="Layer 2"><g id="OBJECT"><ellipse class="cls-1" cx="128.85" cy="452.63" rx="112.05" ry="8.36"/><path class="cls-1" d="M2.37,88.51c-7.47,34.25,3,71.91,27.09,97.4,5.92,6.27,12.75,12,16.39,19.86,5,10.74,3,23.47-1.05,34.59s-10.21,21.45-13.66,32.78c-7.93,26.08.07,56.32,19.86,75.06s50.42,25.09,76,15.76c18.37-6.69,33.24-20.3,47.59-33.59,17.8-16.48,35.84-33.24,48.52-53.91,22.13-36.06,25.82-80.43,24-122.69-1.5-34.64-6.77-70.44-25.68-99.5a119.74,119.74,0,0,0-64-48.48C92.92-14.41,17.43,19.47,2.37,88.51Z"/><path class="cls-2" d="M109.88,436.83a8.52,8.52,0,0,1-.49-1.58l-2-11L113,406,98.3,402.21l-2.61,18.85-2.76,2.49,9.75,15.24A11.16,11.16,0,0,1,109.88,436.83Z"/><path class="cls-3" d="M118.91,447.26a8,8,0,0,0-4.78-6.13,7.92,7.92,0,0,1-4.25-4.3,11.16,11.16,0,0,0-7.2,2l-9.75-15.24-3.52,3.19,7.61,15a12.88,12.88,0,0,0,11.49,7.05h10.64Z"/><path class="cls-4" d="M113,406,98.3,402.21l-1.13,8.18a34.9,34.9,0,0,0,13.11,4.46Z"/><path class="cls-5" d="M98.61,191.21l-3.28,5.84A84.61,84.61,0,0,0,86.82,258L103,326,91,401.13l.41.37a37.69,37.69,0,0,0,31.6,8.83h0l6.9-79.15v0l2.3,84.67h36.34L155.3,324.74l16.19-63.3a84.6,84.6,0,0,0-3.8-53.35l-7-16.88Z"/><polygon class="cls-4" points="129.88 235.51 105.5 228.16 129.88 242.87 129.88 235.51"/><polygon class="cls-4" points="156.56 225.17 129.88 235.51 130 243.51 156.56 225.17"/><path class="cls-2" d="M141.91,442.86H155.3l-1.66-7.38L155,415.85H140.31l.69,14.4a10.79,10.79,0,0,1-2.84,7.8A9.64,9.64,0,0,1,141.91,442.86Z"/><path class="cls-3" d="M141.91,442.86a9.64,9.64,0,0,0-3.75-4.81c-.1.11-.2.23-.31.34l-.67.67a10.74,10.74,0,0,1-5,2.82l-2.83.73a10.79,10.79,0,0,0-7.8,7.89H157l-1.72-7.64Z"/><polygon class="cls-4" points="140.31 415.85 155.02 415.85 154.74 419.88 140.5 419.88 140.31 415.85"/><path class="cls-4" d="M168.52,416.08H132.18a.23.23,0,0,1-.23-.22l-2.3-84.67V242a.23.23,0,0,1,.46,0v89.23l2.29,84.44h36.12a.23.23,0,0,1,0,.46Z"/><path class="cls-4" d="M122.59,335.24a.27.27,0,0,1-.12,0,28.92,28.92,0,0,1-12.92-15.8.23.23,0,0,1,.14-.29.22.22,0,0,1,.29.14,28.48,28.48,0,0,0,12.72,15.55.24.24,0,0,1,.09.32A.23.23,0,0,1,122.59,335.24Z"/><path class="cls-4" d="M140,329.45a.21.21,0,0,1-.19-.11.22.22,0,0,1,.07-.31,15,15,0,0,0,6.24-8.16.25.25,0,0,1,.29-.16.23.23,0,0,1,.15.29,15.46,15.46,0,0,1-6.44,8.42Z"/><path class="cls-4" d="M129.88,232.83a.23.23,0,0,1-.17-.07,20.87,20.87,0,0,1-5.7-15.12l.89-22.3a.22.22,0,0,1,.24-.22.23.23,0,0,1,.22.24l-.89,22.3A20.44,20.44,0,0,0,129.65,232V195.35a.23.23,0,0,1,.46,0V232.6a.25.25,0,0,1-.14.22Z"/><path class="cls-6" d="M154.63,131.26,153,68.33c-.18-7.18-.42-14.62-3.51-21.11a26.28,26.28,0,0,0-20.7-14.57c-8.78-.88-18.46,4-23.75,11.06-5.82,1.09-10.6,5.79-12.56,11.38s-1.32,11.86,1,17.32,7,9.7,11.3,13.79l-7.51,41.35C116.35,127.55,135.77,134.41,154.63,131.26Z"/><path class="cls-2" d="M118.42,124.17a16.29,16.29,0,0,0,19.44-2.63c3.42-3.54,4.88-8.33,5.5-13.31l-8.57,2.18-3.3-23.91-11.27,4.44-2,19.93-7.45-1.63A16.35,16.35,0,0,0,118.42,124.17Z"/><path class="cls-4" d="M131.74,88.33l-6.85,10.5a8.69,8.69,0,0,1-5.84,3.82h0l1.17-11.71,11.27-4.44Z"/><path class="cls-2" d="M91.87,155.25l-20-2.59-5.11,26a15.73,15.73,0,0,0,.12,6.63l23.51-21.13Z"/><polygon class="cls-4" points="71.91 152.66 91.87 155.25 90.43 164.15 71.62 154.13 71.91 152.66"/><path class="cls-3" d="M97.23,106.27h0a16.72,16.72,0,0,0-19.56,11.42L67.1,152,97.23,156Z"/><polygon class="cls-7" points="81.99 153.97 94.34 127.55 97.22 127.55 97.22 155.95 81.99 153.97"/><path class="cls-2" d="M107.5,53.07h0a27,27,0,0,0-8.28,19.47v9.9a23.94,23.94,0,0,0,1.54,8.45h0a13.8,13.8,0,0,0,12.92,8.94h0a13.82,13.82,0,0,0,9.26-3.55l10.16-9.17h0A9.22,9.22,0,0,1,129.73,80V75.3C113,73,107.5,53.07,107.5,53.07Z"/><path class="cls-2" d="M131.49,86.5a14.13,14.13,0,0,1,1.34-7.56,7.46,7.46,0,0,1,5.75-4.13,5.33,5.33,0,0,1,5.61,3.81,5.83,5.83,0,0,1-1.28,4.74A13.44,13.44,0,0,1,139,86.54,10.31,10.31,0,0,1,135.38,88,5,5,0,0,1,131.49,86.5Z"/><path class="cls-8" d="M135,86.2a3.34,3.34,0,0,1-1.69-.6,12.33,12.33,0,0,1,1.19-5.81,5.65,5.65,0,0,1,4.28-3.15H139A3.48,3.48,0,0,1,142.39,79a4,4,0,0,1-.93,3.22A11.83,11.83,0,0,1,138.05,85a8.61,8.61,0,0,1-2.94,1.24Z"/><polygon class="cls-9" points="96.31 158.86 90.43 164.15 90.43 164.15 96.31 158.86"/><path class="cls-3" d="M153.49,105.66l-10.13,2.57c-.62,5-2.08,9.77-5.5,13.31a15.77,15.77,0,0,1-27.08-12.3l-13.55-3-4,29.44-5.12,13a15.59,15.59,0,0,0,6.49,19.09,5.52,5.52,0,0,1,2.66,4.35l1.34,19.06h56.57Z"/><path class="cls-4" d="M88.12,148.94l-.09,0a.24.24,0,0,1-.13-.3l5.13-13,2.36-17.49a.24.24,0,0,1,.26-.2.23.23,0,0,1,.19.26l-2.37,17.55-5.14,13A.23.23,0,0,1,88.12,148.94Z"/><path class="cls-2" d="M112.76,144.08,99.56,156h0l-3.25,2.91-5.88,5.29h0L66.92,185.28a15.86,15.86,0,0,0,28.67,5.21l23.81-35.84Z"/><polygon class="cls-8" points="112.77 144.08 119.4 154.65 116.08 159.65 111.66 145.07 112.77 144.08"/><path class="cls-4" d="M74.25,178.92a.25.25,0,0,1-.18-.08.23.23,0,0,1,0-.32l32.73-29.42a.25.25,0,0,1,.33,0,.24.24,0,0,1,0,.33L74.4,178.86A.24.24,0,0,1,74.25,178.92Z"/><path class="cls-3" d="M153.49,105.66h0l1,51.2,27.12-4.13-4.76-31.55A18.92,18.92,0,0,0,153.49,105.66Z"/><path class="cls-2" d="M111.22,128.7a7.34,7.34,0,0,0-1.9,9.8L117.69,152l26.92,41.15a18.44,18.44,0,0,0,23.48,6.5h0a18.42,18.42,0,0,0,10.31-18.25l-2.53-27.83-21.37,3.26.25,12.88-24.87-20.23,2.6-10.71a28.08,28.08,0,0,0,.78-6.59h0a2.94,2.94,0,0,0-2.94-2.94h0a2.94,2.94,0,0,0-2.39,1.23l-.88,1.22-2.86-5a5.51,5.51,0,0,0-8-1.68Z"/><polygon class="cls-4" points="154.5 156.86 175.87 153.6 176.02 155.23 154.64 164.15 154.5 156.86"/><path class="cls-4" d="M154.5,157.09a.22.22,0,0,1-.15-.06.21.21,0,0,1-.08-.17l-.65-32.8a.23.23,0,0,1,.23-.23h0a.22.22,0,0,1,.23.22l.64,32.54,26.87-4.09a.22.22,0,0,1,.26.19.23.23,0,0,1-.19.26l-27.12,4.13Z"/><path class="cls-4" d="M154.39,151.27a.23.23,0,0,1,0-.46L176,147.29a.23.23,0,1,1,.07.45l-21.63,3.52Z"/><path class="cls-4" d="M163.54,177.12a.25.25,0,0,1-.15-.05l-33.65-27.38a.24.24,0,0,1-.08-.24l1.64-6.75a.23.23,0,1,1,.44.1l-1.6,6.62,33.54,27.29a.22.22,0,0,1,0,.32A.21.21,0,0,1,163.54,177.12Z"/><path class="cls-4" d="M144.61,193.42a.23.23,0,0,1-.19-.1l-30.5-47A.24.24,0,0,1,114,146a.25.25,0,0,1,.32.07l30.5,47a.22.22,0,0,1-.07.31A.17.17,0,0,1,144.61,193.42Z"/><path class="cls-4" d="M111.22,128.93a.22.22,0,0,1-.18-.1.22.22,0,0,1,0-.32L116,124.9a5.74,5.74,0,0,1,8.37,1.76l.45.77a.23.23,0,0,1-.08.32.24.24,0,0,1-.32-.09l-.44-.77a5.3,5.3,0,0,0-7.71-1.62l-4.92,3.61A.24.24,0,0,1,111.22,128.93Z"/><polygon class="cls-10" points="47.12 112.6 45.84 111.29 52.12 105.17 44.74 99.69 57.79 93.01 50.59 86.13 64.95 81 56.68 71.18 69.06 64.83 69.9 66.46 59.58 71.76 68.06 81.83 54.02 86.86 60.93 93.47 48.22 99.98 54.95 104.97 47.12 112.6"/><polygon class="cls-10" points="205.26 123.12 203.52 122.54 205.87 115.47 196.4 115.47 200.65 103.92 189.68 106.37 196.66 91.06 181.74 92.93 181.51 91.1 199.7 88.83 192.89 103.77 203.54 101.38 199.04 113.63 208.43 113.63 205.26 123.12"/><polygon class="cls-10" points="46.52 227.94 48.64 217.79 38.46 220.56 41.41 208.75 30.93 210.47 37.96 192.41 39.67 193.07 33.82 208.13 43.88 206.48 41.01 217.96 51.06 215.22 48.89 225.61 55.97 224.26 56.31 226.07 46.52 227.94"/><polygon class="cls-10" points="200.51 218.59 199.53 217.03 207.19 212.19 200.78 207 210.17 203.91 201.94 197.5 213.03 193.46 204.03 185.99 205.21 184.57 216.68 194.09 205.69 198.09 214.02 204.57 204.55 207.69 210.34 212.38 200.51 218.59"/><polygon class="cls-10" points="84.39 333.82 73.39 332.11 78.95 323.3 70.64 321.56 75.67 314.02 66.32 312.34 77.84 301.2 79.12 302.52 70.18 311.16 78.76 312.7 73.68 320.31 81.92 322.05 76.44 330.72 84.67 332 84.39 333.82"/><polygon class="cls-10" points="191.28 316.01 189.91 314.77 197.74 306.12 189.1 302.88 196.82 295 186.41 292.05 197.72 282.16 187.86 276.96 188.72 275.33 200.94 281.78 190.17 291.2 200.31 294.08 192.39 302.15 200.92 305.35 191.28 316.01"/></g></g></svg>