<svg xmlns="http://www.w3.org/2000/svg" viewBox="0 0 364.28 448.61"><defs><style>.cls-1{fill:#c7d2d7;}.cls-2{fill:#99a3b0;}.cls-3{fill:#f2c9ad;}.cls-4{fill:#6c6fc3;}.cls-5{fill:#422c4f;}.cls-6{fill:#454f6b;}.cls-7{fill:#fdf7e7;}.cls-8{fill:#eba25d;}.cls-9{fill:#eba58e;}</style></defs><g id="Layer_2" data-name="Layer 2"><g id="OBJECT"><ellipse class="cls-1" cx="182.14" cy="440.53" rx="164.94" ry="8.08"/><path class="cls-1" d="M138.38,355.67c-26.36-7.94-51.5-23.48-65.32-47.28-9.16-15.77-12.83-34.13-14.6-52.28C51,179.79,76.29,100.83,126.66,43,138.5,29.41,151.9,16.77,168,8.63s35.24-11.4,52.42-5.93,31.68,20.7,33.42,38.65c1.41,14.51-5.18,29.08-2.84,43.47,2.58,15.84,15.39,28,28.75,36.9s28.23,16.05,39.07,27.89c13.34,14.57,19,34.63,21.35,54.25,4.35,36.29-1.61,74.48-20.86,105.56C279.37,373.89,204.16,375.51,138.38,355.67Z"/><path class="cls-1" d="M265.44,86.49c3.2,8.35,9.51,15.68,17.77,19.11s18.43,2.5,25.34-3.18c10.06-8.28,10.82-23.2,10.21-36.22-.33-7.14-.85-14.39-3.35-21.07s-7.29-12.85-14-15.43C272.19,18.37,257.91,66.84,265.44,86.49Z"/><path class="cls-2" d="M287.45,83.52a20,20,0,0,0-33.07-9.14c-4.29-2-9.5.48-12.55,4.1a19.4,19.4,0,0,0,6.07,29.82c.14.07.3.11.44.18.16.58.32,1.16.51,1.73a21.49,21.49,0,0,0,7.33,10.34,16,16,0,0,0,12.13,3c9.17-1.64,14.71-12,15-21.78A20.31,20.31,0,0,0,287.45,83.52Z"/><polygon class="cls-2" points="251.11 108.84 245.43 125.68 264.09 131.82 265.31 111.84 251.11 108.84"/><path class="cls-2" d="M291.3,153.3l-10,78H207.92l6-107.84-29-32.32a16.47,16.47,0,0,1,.43-22.47L226.08,26.7a32.06,32.06,0,0,1-.16-20.53,2.18,2.18,0,0,1,1.65-1.41,28.26,28.26,0,0,1,8-.34,2.15,2.15,0,0,1,1.78,3,17.9,17.9,0,0,0-1.71,8.21,15.71,15.71,0,0,1,5.16-7.39A2.14,2.14,0,0,1,242.94,8L243,8a2.17,2.17,0,0,1,.85,3.44c-3.77,4.42-5.76,10.74-4.65,16.32a12,12,0,0,0,5.27-.89,8.09,8.09,0,0,1,8.74,1.59l.07.07c-3.42,5.4-10.49,7.82-16.89,7.82L205.83,78.27,238.05,110l12.24,15.11,17.35,5.66,15.42-6,49.32-10.14-4.22-55.86c-5.08-1.75-9-6.59-10.51-11.74l.22-.1a5.62,5.62,0,0,1,6,.92,9.79,9.79,0,0,0,3,1.73,25.27,25.27,0,0,0,.44-15.64,1.91,1.91,0,0,1,1.29-2.46l.14,0a1.89,1.89,0,0,1,2.05.71,14.15,14.15,0,0,1,2.59,9,30.21,30.21,0,0,0-.72-10.38,1.8,1.8,0,0,1,1.2-2.14h0a1.8,1.8,0,0,1,2.23,1,23.55,23.55,0,0,1,1.72,10.68A20,20,0,0,0,339.52,32a1.79,1.79,0,0,1,1.82-1.88h0A1.76,1.76,0,0,1,343,31.39a15.08,15.08,0,0,1-.2,9.16A14.28,14.28,0,0,0,345.19,36a1.29,1.29,0,0,1,1.7-.8h0a1.28,1.28,0,0,1,.79,1.43,54.54,54.54,0,0,1-9.28,21.57l16.16,57.6a15,15,0,0,1-9.35,18.12Z"/><path class="cls-2" d="M281.3,231.26l64.27,24.79a29.21,29.21,0,0,1,17.61,35.18l-18.35,65.06L310.14,346l21.68-57.28-63.89-28.44L284.7,329l-12.29,86-35.14-5.77L250.5,329.7l-36.29-65.31a53.73,53.73,0,0,1-6.29-33.13H281.3Z"/><path class="cls-2" d="M265.51,413.24l2.69,5a11.33,11.33,0,0,0,8,5.82h0a11.36,11.36,0,0,1,9,8.38l.71,2.78H244.41l5.68-28.42Z"/><path class="cls-2" d="M339,351.22v7.68A15.78,15.78,0,0,0,343.56,370l1.73,1.72a15.77,15.77,0,0,1,3.4,17.2h0l-38.14-21.51,13-21.44Z"/><path class="cls-2" d="M68.41,83.52a20,20,0,0,1,33.07-9.14c4.29-2,9.49.48,12.55,4.1A19.4,19.4,0,0,1,108,108.3c-.14.07-.3.11-.45.18-.15.58-.31,1.16-.51,1.73a21.41,21.41,0,0,1-7.32,10.34,16,16,0,0,1-12.13,3c-9.17-1.64-14.71-12-15-21.78A20.31,20.31,0,0,1,68.41,83.52Z"/><polygon class="cls-2" points="104.75 108.84 110.43 125.68 91.77 131.82 90.55 111.84 104.75 108.84"/><polygon class="cls-2" points="110.18 124.94 88.22 130.73 74.23 128.26 38.22 128 8.92 142.09 64.56 153.3 74.56 231.26 147.93 231.26 143.42 150.68 174.25 137.26 157.13 123.55 110.18 124.94"/><path class="cls-2" d="M72.51,85.09l-3.13,4.49a18.65,18.65,0,0,0-3.13,7.77l-.85,5.39L7.91,120.44A11.19,11.19,0,0,0,.58,134.7h0a11.2,11.2,0,0,0,16,6.25l52.06-28.6,1.62.9a18.69,18.69,0,0,0,9.12,2.38h0Z"/><path class="cls-2" d="M110.9,80.21,114,84.7a18.65,18.65,0,0,1,3.13,7.77l.85,5.39,57.49,17.69a11.21,11.21,0,0,1,7.33,14.27h0a11.19,11.19,0,0,1-16,6.25l-52.06-28.61-1.63.91a18.62,18.62,0,0,1-9.12,2.37h0Z"/><path class="cls-2" d="M63,413.24l-2.69,5a11.33,11.33,0,0,1-8,5.82h0a11.36,11.36,0,0,0-9,8.38l-.71,2.78H84.06l-5.68-28.42Z"/><path class="cls-2" d="M124.36,413.24l-2.69,5a11.33,11.33,0,0,1-8,5.82h0a11.36,11.36,0,0,0-9,8.38l-.71,2.78h41.46l-5.68-28.42Z"/><path class="cls-2" d="M74.56,231.26,39.71,302.85a55.92,55.92,0,0,0-3.91,38.37L54.65,415l32.05-8.19L69.48,328.53l33.79-59.16-11.54,49.2a56.06,56.06,0,0,0,1.91,31.95L117.13,415l32.29-8.19-24.69-72,17.7-48.61a110.17,110.17,0,0,0,6.15-48.12l-.65-6.84Z"/><path class="cls-3" d="M134.86,175.28l1.62,33a81.49,81.49,0,0,0,2.4,16l12.68,49.79,3.25-98.8Z"/><path class="cls-4" d="M175.15,118.64l-23.93,7.25a26.29,26.29,0,0,0-18.65,24l-1.17,25.43h19.13l-2.23,29.49a25.23,25.23,0,0,0,5,17h58.79v-46H245.2l-1.56-24.26a32.37,32.37,0,0,0-23.77-29.16l-24.78-6.76Z"/><path class="cls-5" d="M148.3,205h0a.2.2,0,0,1-.19-.22l4.13-54.67-4.57-8.74a.2.2,0,0,1,.08-.28.21.21,0,0,1,.28.09l4.6,8.8a.2.2,0,0,1,0,.11l-4.13,54.72A.21.21,0,0,1,148.3,205Z"/><path class="cls-5" d="M150.94,169.69H134.86a.21.21,0,0,1-.21-.21.2.2,0,0,1,.21-.2h16.08a.2.2,0,0,1,.2.2A.21.21,0,0,1,150.94,169.69Z"/><path class="cls-5" d="M245.2,176H209.14a.2.2,0,0,1-.21-.2V146.56a24.82,24.82,0,0,1,8-18.25.21.21,0,0,1,.29,0,.23.23,0,0,1,0,.3,24.37,24.37,0,0,0-7.89,17.94v29H245.2a.2.2,0,0,1,.2.21A.2.2,0,0,1,245.2,176Z"/><path class="cls-5" d="M240.06,169.69H209.14a.21.21,0,0,1-.21-.21.2.2,0,0,1,.21-.2h30.92a.2.2,0,0,1,.2.2A.21.21,0,0,1,240.06,169.69Z"/><path class="cls-6" d="M153.28,221.81l-5.44,197.25h31.1l11.38-142.38,4.55,144.15h31.19l6.19-165.66a158.74,158.74,0,0,0-.74-24.18l-1-9.18Z"/><path class="cls-5" d="M180.24,249.52l9.33,3.29.75,23.87L186,330.53l-3.45-50.85a54.49,54.49,0,0,1,3.88-24.15h0Z"/><path class="cls-5" d="M192.69,351.82a.22.22,0,0,1-.21-.2L189.37,253l-11.76-4.14a.21.21,0,1,1,.14-.39l11.89,4.19a.2.2,0,0,1,.13.19l3.13,98.81a.21.21,0,0,1-.2.21Z"/><path class="cls-5" d="M204.43,341.13a.24.24,0,0,1-.16-.07,36.36,36.36,0,0,1-6.93-12.26.21.21,0,0,1,.13-.26.2.2,0,0,1,.26.13,36,36,0,0,0,6.85,12.12.2.2,0,0,1,0,.29A.21.21,0,0,1,204.43,341.13Z"/><path class="cls-5" d="M206.4,355.34a.21.21,0,0,1-.15-.35A44.7,44.7,0,0,0,219,329.5a.22.22,0,0,1,.24-.18.21.21,0,0,1,.17.24,45.1,45.1,0,0,1-12.83,25.72A.2.2,0,0,1,206.4,355.34Z"/><path class="cls-5" d="M155.82,347.28a.21.21,0,0,1-.13,0,.21.21,0,0,1,0-.29A97.94,97.94,0,0,0,170,323.88a.2.2,0,1,1,.37.17A98.35,98.35,0,0,1,156,347.2.21.21,0,0,1,155.82,347.28Z"/><path class="cls-5" d="M175.55,410h-25a.21.21,0,0,1-.21-.21.2.2,0,0,1,.21-.2h25a.2.2,0,0,1,.21.2A.21.21,0,0,1,175.55,410Z"/><path class="cls-5" d="M224.21,412.63H197.54a.2.2,0,0,1-.21-.2.21.21,0,0,1,.21-.21h26.67a.21.21,0,0,1,.21.21A.2.2,0,0,1,224.21,412.63Z"/><path class="cls-4" d="M215.36,420.83H199.68l-.8,2.18a12.07,12.07,0,0,1-8.61,7.66,12.14,12.14,0,0,0-8,6.34h36.16Z"/><path class="cls-7" d="M182.23,437a11.52,11.52,0,0,0-.65,1.53l-.87,2.52h38.44l-.76-4.05Z"/><polygon class="cls-5" points="199.68 420.83 215.36 420.83 216.37 426.21 199.33 421.78 199.68 420.83"/><path class="cls-4" d="M171.76,419.06H156.08l-.79,2.18a12.11,12.11,0,0,1-8.62,7.66,12.14,12.14,0,0,0-8,6.34h36.16Z"/><path class="cls-7" d="M138.63,435.24a11.52,11.52,0,0,0-.65,1.53l-.87,2.52h38.44l-.76-4.05Z"/><polygon class="cls-5" points="156.08 419.06 171.76 419.06 172.77 424.44 155.73 420.01 156.08 419.06"/><path class="cls-5" d="M183.44,131.49c4.63.18,8.83-3.13,11.07-7.19a18.33,18.33,0,0,0,1-2.15c0-2.18-.22-4.38-.43-6.55-6.32,4.28-14.27,6.81-21.79,8.07,0,.54,0,1.08.1,1.61a22.28,22.28,0,0,0,1.52,1.85A12.77,12.77,0,0,0,183.44,131.49Z"/><path class="cls-3" d="M194.51,124.3c-2.24,4.06-6.44,7.37-11.07,7.19a12.77,12.77,0,0,1-8.52-4.36,22.28,22.28,0,0,1-1.52-1.85,15.43,15.43,0,0,0,3.12,8.26,10.41,10.41,0,0,0,9.28,4c4.37-.62,7.67-4.56,8.91-8.8a23.24,23.24,0,0,0,.81-6.6A18.33,18.33,0,0,1,194.51,124.3Z"/><path class="cls-8" d="M168.81,120.79a40.83,40.83,0,0,1-7.47-1.12,13.72,13.72,0,0,1-6.5-3.68c-2.65-2.84-3.47-6.89-3.9-10.75a46.36,46.36,0,0,1,.15-13.36,24.91,24.91,0,0,1,5.47-12.07,20.15,20.15,0,0,1,25.2-4.25,12,12,0,0,1,11.55-2.36A16.1,16.1,0,0,1,202,81a29.55,29.55,0,0,1,3.08,11.43,25.8,25.8,0,0,1-.86,10.5c-2.14,6.43-8,11.09-14.3,13.51S175.56,121.37,168.81,120.79Z"/><path class="cls-3" d="M160.48,113.07l8.77,9.91a16.22,16.22,0,0,0,16.37,4.93h0A16.25,16.25,0,0,0,197.4,115l.76-4.45a8,8,0,0,1-7.71-3.81,11.64,11.64,0,0,1-8.88-5.89,18.34,18.34,0,0,1-10.73,9.25c.48-.87,1-1.78,1.48-2.65Z"/><path class="cls-3" d="M196.17,107a7.84,7.84,0,0,1,4.19-4.13,3.85,3.85,0,0,1,3.36,0,3.8,3.8,0,0,1,1.54,3.46,7.3,7.3,0,0,1-2.57,5.3c-1.42,1.17-4,2.27-5.79,1.24C194.94,111.68,195.44,108.67,196.17,107Z"/><path class="cls-9" d="M198.54,111.19a1.28,1.28,0,0,1-.63-.14c-.53-.31-.48-1.91.12-3.29a5.87,5.87,0,0,1,3.1-3.06,3.12,3.12,0,0,1,1.11-.25,1,1,0,0,1,.46.09,2,2,0,0,1,.54,1.66,5.19,5.19,0,0,1-1.85,3.8A5.08,5.08,0,0,1,198.54,111.19Z"/><path class="cls-3" d="M212.07,175.79v78.89l3.29,19a16.58,16.58,0,0,0,11.74,7.94,2.33,2.33,0,0,0,2.35-1.26l.71-1.39h0a2.31,2.31,0,0,0,2.91-1.55h0a2.33,2.33,0,0,0-1.11-2.69l-.45-.24.86-1.46a3,3,0,0,0-.56-3.7l-.17-.15h0a3,3,0,0,0-.16-4.15l-1.3-1.22a15.4,15.4,0,0,0-3.66-11.45l9-36.86a97.05,97.05,0,0,0,2.38-14.57l2.16-25.12Z"/><polygon class="cls-5" points="212.07 175.79 240.06 175.79 212.07 181.75 212.07 175.79"/><path class="cls-5" d="M230.18,279.16h-.06c-8.11-2.52-10.81-7.21-10.92-7.41a.21.21,0,0,1,.08-.28.22.22,0,0,1,.28.08s2.74,4.74,10.69,7.22a.2.2,0,0,1,.13.25A.21.21,0,0,1,230.18,279.16Z"/><path class="cls-5" d="M231.54,274.68l-.07,0c-7.07-2.82-9.43-7.87-9.45-7.92a.2.2,0,0,1,.1-.27.22.22,0,0,1,.28.1c0,.05,2.31,4.95,9.22,7.71a.2.2,0,0,1,.11.27A.21.21,0,0,1,231.54,274.68Z"/><path class="cls-5" d="M231.67,269.37h-.06a11.11,11.11,0,0,1-7-6.23.2.2,0,0,1,.12-.26.22.22,0,0,1,.27.12,10.67,10.67,0,0,0,6.75,6,.2.2,0,0,1,.14.25A.21.21,0,0,1,231.67,269.37Z"/><path class="cls-5" d="M226.55,252.55h-.05a.2.2,0,0,1-.15-.25l7.43-30.53a.2.2,0,0,1,.24-.15.21.21,0,0,1,.15.25l-7.42,30.53A.21.21,0,0,1,226.55,252.55Z"/></g></g></svg>