<svg xmlns="http://www.w3.org/2000/svg" viewBox="0 0 295.08 442.16"><defs><style>.cls-1{fill:#c7d2d7;}.cls-2{fill:#6ca8bf;}.cls-3{fill:#468097;}.cls-4{fill:#f2c9ad;}.cls-5{fill:#454f6b;}.cls-6{fill:#422c4f;}.cls-7{fill:#e4e4e0;}.cls-8{fill:#eba58e;}.cls-9{fill:#6a3649;}.cls-10{fill:#fff;}.cls-11{fill:#99a3b0;}</style></defs><g id="Layer_2" data-name="Layer 2"><g id="OBJECT"><ellipse class="cls-1" cx="123.29" cy="432.96" rx="123.29" ry="9.19"/><path class="cls-1" d="M33.74,363.64C14.15,342.2,7.19,310,16.19,282.37,24.86,255.79,47,233.08,46.8,205.13c-.13-15.7-7.48-30.35-10.76-45.71-7.12-33.28,5.48-68.21,25.34-95.86,18-25,42.45-45.94,71.41-56.45s62.52-9.81,89.51,5,46.05,44.62,45,75.4c-1.1,31.62-21.91,60.93-18.89,92.41,1.75,18.26,11.33,34.66,17.8,51.81,8,21.31,11.33,44.63,7.64,67.1s-14.64,44-31.89,58.85c-16.28,14-37.33,21.6-58.56,25-25.14,4-50.85,3.79-76.08,7.09C80.5,393.29,52.06,383.68,33.74,363.64Z"/><path class="cls-2" d="M228.21,253c20.19,36.89,17.25,119.55-3.39,152.9L217.25,411l1.87-4.74-117.27-98,3.75-35.08Z"/><path class="cls-3" d="M226.73,276.66h0l-13.8-21.12L105.6,273.18l-3.75,35.08,102.83,85.92-7.21-53.33a52.63,52.63,0,0,1,15.88-45.18l1-.95A52.48,52.48,0,0,0,226.73,276.66Z"/><path class="cls-4" d="M104.27,247.06h-6a30.62,30.62,0,0,0-30.16,25.35h0l32.4,1.18Z"/><path class="cls-4" d="M61.72,268.9l-1.56.39a14.12,14.12,0,0,0-9.47,7.89l-5.42,12a14.24,14.24,0,0,0-.91,8.94L47.25,311h0a10,10,0,0,0,8.06-9.79v-6.33l6.41-14.64Z"/><path class="cls-5" d="M129.6,324.32l-25.16-37.73a29.2,29.2,0,0,0-24.26-13h0a29.16,29.16,0,0,0-29,31.81l7.9,86.7,46.88-3.59L112,409.82A33.39,33.39,0,0,0,144.14,434h0a33.45,33.45,0,0,0,17.76-5.12l6.39-4Z"/><path class="cls-6" d="M135.88,340.65l4,74.19a12.6,12.6,0,0,1-12.58,13.27h-2A33.35,33.35,0,0,0,144.14,434h0a33.45,33.45,0,0,0,17.76-5.12l6.39-4Z"/><rect class="cls-6" x="97.37" y="305.81" width="0.51" height="76.53" transform="translate(-37.45 12.91) rotate(-6.35)"/><polygon class="cls-6" points="89.54 382.4 83.99 301.13 84.5 301.09 90.05 382.37 89.54 382.4"/><polygon class="cls-6" points="62.85 382.94 62.8 382.44 95.75 378.84 95.81 379.35 62.85 382.94"/><path class="cls-4" d="M78.88,412.46H91.17L88,390l-21.46,1.56.62,8.35A17.33,17.33,0,0,1,66.5,406a33.88,33.88,0,0,1,12.38,2Z"/><path class="cls-7" d="M39.17,428.11c-.19.41-.4.81-.56,1.24L36.84,434H94.22l-.83-5.88Z"/><path class="cls-3" d="M91.17,412.46H78.88V408a33.88,33.88,0,0,0-12.38-2,17.21,17.21,0,0,1-3.73,6.78h0a17.34,17.34,0,0,1-9.19,5.35l-2.5.55a17.27,17.27,0,0,0-11.91,9.48H93.39Z"/><polygon class="cls-8" points="87.99 389.99 66.53 391.55 67.01 398.03 88.33 392.41 87.99 389.99"/><polygon class="cls-4" points="166.35 236.27 197.18 244.24 161.41 257.85 166.35 236.27"/><path class="cls-9" d="M103.28,267.21a24.76,24.76,0,0,1-15.64-.34c-1.7-.61-3.52-1.64-3.88-3.41-.5-2.49,2.1-4.35,4.07-6,5.52-4.53,7.87-11.81,9.5-18.77s2.91-14.28,7.11-20.06a23.85,23.85,0,0,1,27.18-7.93c4-3.64,9.78-4.74,15.11-3.69a25,25,0,0,1,13.69,8.29,42.53,42.53,0,0,1,7.86,14.16c2.47,7,3.64,15.15-.08,21.58-3.25,5.64-9.55,8.74-15.69,10.89C136.93,267.46,119.05,262.31,103.28,267.21Z"/><path class="cls-4" d="M169.69,251.52,145.22,258a99.78,99.78,0,0,0-43.8,1l-39.7,9.9v11.3l101.19,14.64,18.22-4.57A67,67,0,0,0,169.69,251.52Z"/><path class="cls-2" d="M180,301.11a66.68,66.68,0,0,0-10.31-49.6l33.81-8.95A21.88,21.88,0,0,1,231,263.71h0a21.87,21.87,0,0,1-12.77,19.89Z"/><path class="cls-8" d="M169.71,251.55c6.41,17.94,5.51,32.68,3.11,40.8l8.31-2.08A67,67,0,0,0,169.71,251.55Z"/><path class="cls-3" d="M180,301.11a63.8,63.8,0,0,0,1.14-10.84l-6.65,1.66A54.35,54.35,0,0,0,180,301.11Z"/><path class="cls-6" d="M179.66,301.54l.09-.48a66.06,66.06,0,0,0-.39-26.34l.49-.11a66.55,66.55,0,0,1,.49,26.06l37.77-17.3a21.69,21.69,0,0,0,12.62-19.66h.5a22.19,22.19,0,0,1-12.91,20.12Z"/><rect class="cls-6" x="62.92" y="264.58" width="30.23" height="0.51" transform="translate(-61.96 26.87) rotate(-14.05)"/><polygon class="cls-6" points="134.92 291.05 82.58 283.47 82.65 282.97 135 290.55 134.92 291.05"/><path class="cls-6" d="M83.92,387.76c15.79,21.86,43.53,15.8,43.53,15.8l7.51-15.8-44.31-15Z"/><path class="cls-10" d="M56,434h53.44v-5.88H59A19.22,19.22,0,0,0,56,434Z"/><path class="cls-2" d="M97.28,415.4v-3.86a30.26,30.26,0,0,0-9.29-4.3,29.19,29.19,0,0,1-16.93,13.33l-2.12.63a19.46,19.46,0,0,0-9.9,6.91h50.4V415.4Z"/><path class="cls-4" d="M97.28,415.4h12.16v-1.83l13.77-23.88L100.68,379.1,89.55,404.26a29.05,29.05,0,0,1-1.56,3,30.26,30.26,0,0,1,9.29,4.3Z"/><path class="cls-8" d="M95.78,390.17c10,1,19.09,8.27,21,10.72l6.46-11.2L100.68,379.1Z"/><path class="cls-5" d="M219.12,406.25,172.74,300.81a27.25,27.25,0,0,0-24.94-16.28h0a27.25,27.25,0,0,0-24.87,16.12l-39,87.11c24.65-7.32,43.53,15.8,43.53,15.8l15-31.59,8.45,40a27.74,27.74,0,0,0,27.13,22h13.34a27.73,27.73,0,0,0,27.73-27.74Z"/><path class="cls-6" d="M159.28,336.62c.59,21.5-13,53.37-13,53.37l-3.81-18Z"/><polygon class="cls-6" points="127.68 403.66 127.22 403.45 162.53 329.19 162.99 329.41 127.68 403.66"/><rect class="cls-6" x="55.7" y="343.95" width="95.45" height="0.51" transform="translate(-252.95 297.62) rotate(-65.83)"/><path class="cls-6" d="M126.91,392.57A40.65,40.65,0,0,0,91.62,378.8l-.07-.51a41.19,41.19,0,0,1,35.75,13.95Z"/><rect class="cls-6" x="104.22" y="364.26" width="62.07" height="0.51" transform="translate(-251.7 326.64) rotate(-64.05)"/><path class="cls-4" d="M139.21,285.93c6.2,2.64,7.43,12.34,6.76,19a2.84,2.84,0,0,0,2.47,3.09l1.92.24h0a2.86,2.86,0,0,0,2.48,2.93l3.86.5h0a2.39,2.39,0,0,0,2.23,2.39l1.61.12a2.41,2.41,0,0,0,2.56-2.12l.17-1.48h0a4.29,4.29,0,0,0,4.92-3.91c1.15-14.81-7.48-26.49-16.67-26.49C141.41,280.2,139.73,283.47,139.21,285.93Z"/><path class="cls-6" d="M160.72,314.46h-.19l-1.62-.11a2.68,2.68,0,0,1-2.46-2.43l-3.64-.47a3.09,3.09,0,0,1-2.7-2.95l-1.7-.22a3.1,3.1,0,0,1-2.69-3.37l.5.05a2.59,2.59,0,0,0,2.25,2.81l2.16.28v.23a2.59,2.59,0,0,0,2.26,2.67l4.07.53v.22a2.16,2.16,0,0,0,2,2.14l1.61.12a2.18,2.18,0,0,0,2.29-1.9l.2-1.73.26,0a4,4,0,0,0,4.62-3.68,31.94,31.94,0,0,0-.87-10.51,26.8,26.8,0,0,0-3-7.2c-3.18-5.33-7.89-8.51-12.58-8.51-6.56,0-10.37,1.37-11.64,4.18l-.46-.2c1.36-3,5.32-4.48,12.1-4.48,4.87,0,9.74,3.27,13,8.75a27.43,27.43,0,0,1,3,7.33,32.73,32.73,0,0,1,.89,10.68,4.55,4.55,0,0,1-1.71,3.21,4.5,4.5,0,0,1-3.24,1l-.14,1.22A2.64,2.64,0,0,1,160.72,314.46Z"/><path class="cls-6" d="M163.52,310.62l-.5,0a52.18,52.18,0,0,0-1.09-14.43l.49-.13A52.66,52.66,0,0,1,163.52,310.62Z"/><path class="cls-6" d="M157,311.7l-.51,0c.82-12.77-.88-15.82-.9-15.85l.44-.26C156.05,295.68,157.78,298.69,157,311.7Z"/><path class="cls-6" d="M150.62,308.29l-.51-.05a46.49,46.49,0,0,0,0-12.1l.49-.1S151.44,300.45,150.62,308.29Z"/><path class="cls-11" d="M295.08,89.22H23.82c5.44-6.76,13.22-13,21.71-14.75a38.43,38.43,0,0,1,25.29,3.4c-2.53-5-1.07-11.74,2.06-16.41a21.31,21.31,0,0,1,13.91-8.71,25.51,25.51,0,0,1,20.83,5.62c3.43-16.5,17.06-31.42,33.77-33.57s34.29,7.27,41.77,22.36a36.66,36.66,0,0,1,59.09,29.56c8.57-4.3,17.74-4.68,27.14-2.8S288.83,82,295.08,89.22Z"/><path class="cls-10" d="M72.34,105.29a40.39,40.39,0,0,0,3,12.7,2.57,2.57,0,0,0,4.67-2.16A40.58,40.58,0,0,0,72.34,105.29Z"/><path class="cls-10" d="M106.78,140.05a40.52,40.52,0,0,0,3,12.69,2.57,2.57,0,0,0,4.67-2.16A40.36,40.36,0,0,0,106.78,140.05Z"/><path class="cls-10" d="M63.14,157.35a40.55,40.55,0,0,0,3,12.7,2.57,2.57,0,1,0,4.67-2.17A40.36,40.36,0,0,0,63.14,157.35Z"/><path class="cls-10" d="M94.05,171.54a40.52,40.52,0,0,0,3,12.69,2.57,2.57,0,1,0,4.67-2.16A40.61,40.61,0,0,0,94.05,171.54Z"/><path class="cls-10" d="M85.76,210.32a40.55,40.55,0,0,0,3,12.7,2.57,2.57,0,0,0,4.67-2.16A40.55,40.55,0,0,0,85.76,210.32Z"/><path class="cls-10" d="M46.51,184.2a40.24,40.24,0,0,0,3.05,12.7,2.57,2.57,0,1,0,4.66-2.16A40.38,40.38,0,0,0,46.51,184.2Z"/><path class="cls-10" d="M59.17,244.47a40.36,40.36,0,0,0,3,12.69A2.57,2.57,0,1,0,66.88,255,40.44,40.44,0,0,0,59.17,244.47Z"/><path class="cls-10" d="M136.25,196.14a40.52,40.52,0,0,0,3.05,12.69,2.57,2.57,0,1,0,4.67-2.16A40.36,40.36,0,0,0,136.25,196.14Z"/><path class="cls-10" d="M148.42,159a40.52,40.52,0,0,0,3.05,12.69,2.57,2.57,0,0,0,4.67-2.16A40.36,40.36,0,0,0,148.42,159Z"/><path class="cls-10" d="M121.77,105.29a40.24,40.24,0,0,0,3,12.7,2.57,2.57,0,0,0,4.66-2.16A40.58,40.58,0,0,0,121.77,105.29Z"/><path class="cls-10" d="M177.5,105.29a40.39,40.39,0,0,0,3,12.7,2.57,2.57,0,0,0,4.67-2.16A40.58,40.58,0,0,0,177.5,105.29Z"/><path class="cls-10" d="M169.93,141.35a40.55,40.55,0,0,0,3,12.7,2.57,2.57,0,0,0,4.67-2.16A40.55,40.55,0,0,0,169.93,141.35Z"/><path class="cls-10" d="M197.32,189a40.39,40.39,0,0,0,3,12.7,2.57,2.57,0,0,0,4.67-2.16A40.58,40.58,0,0,0,197.32,189Z"/><path class="cls-10" d="M203.73,157.35a40.24,40.24,0,0,0,3.05,12.7,2.57,2.57,0,1,0,4.66-2.17A40.44,40.44,0,0,0,203.73,157.35Z"/><path class="cls-10" d="M173.25,208.58a40.55,40.55,0,0,0,3.05,12.7,2.57,2.57,0,0,0,4.67-2.16A40.3,40.3,0,0,0,173.25,208.58Z"/><path class="cls-10" d="M223,217.42a40.36,40.36,0,0,0,3,12.69,2.57,2.57,0,1,0,4.67-2.16A40.44,40.44,0,0,0,223,217.42Z"/><path class="cls-10" d="M238.14,196.14a40.52,40.52,0,0,0,3.05,12.69,2.57,2.57,0,1,0,4.67-2.16A40.61,40.61,0,0,0,238.14,196.14Z"/><path class="cls-10" d="M238.14,148.45a40.52,40.52,0,0,0,3.05,12.69,2.57,2.57,0,0,0,4.67-2.16A40.61,40.61,0,0,0,238.14,148.45Z"/><path class="cls-10" d="M217.62,107.76a40.36,40.36,0,0,0,3,12.69,2.57,2.57,0,0,0,4.67-2.16A40.44,40.44,0,0,0,217.62,107.76Z"/><path class="cls-10" d="M253,112.39a40.52,40.52,0,0,0,3,12.69,2.57,2.57,0,1,0,4.67-2.16A40.61,40.61,0,0,0,253,112.39Z"/></g></g></svg>