<?xml version="1.0" encoding="utf-8"?>
<!-- Generator: Adobe Illustrator 27.5.0, SVG Export Plug-In . SVG Version: 6.00 Build 0)  -->
<svg version="1.1" xmlns="http://www.w3.org/2000/svg" xmlns:xlink="http://www.w3.org/1999/xlink" x="0px" y="0px"
	 viewBox="0 0 750 500" style="enable-background:new 0 0 750 500;" xml:space="preserve">
<g id="BACKGROUND">
	<rect style="fill:#FFFFFF;" width="750" height="500"/>
</g>
<g id="OBJECTS">
	<g>
		<defs>
			<rect id="SVGID_1_" width="404.106" height="500"/>
		</defs>
		<clipPath id="SVGID_00000021111948120368156160000004123735090488642470_">
			<use xlink:href="#SVGID_1_"  style="overflow:visible;"/>
		</clipPath>
		<g style="clip-path:url(#SVGID_00000021111948120368156160000004123735090488642470_);">
			<path style="fill:#F1F1F1;" d="M-28.508,31.69c11.542-8.287,24.868-14.077,38.801-16.86c2.117-0.423,4.487-0.732,6.286,0.46
				c3.896,2.58,1.472,8.797,3.129,13.166c1.334,3.517,5.359,5.412,9.121,5.415c3.762,0.003,7.343-1.492,10.805-2.963
				c14.03-5.958,28.06-11.916,42.089-17.874c8.236-3.498,18.353-6.818,25.529-1.472c7.364,5.485,6.671,17.299,1.45,24.852
				c-5.221,7.553-13.559,12.199-20.948,17.65c-1.35,0.996-2.779,2.197-3.008,3.858c-0.31,2.252,1.764,4.155,3.884,4.976
				c2.12,0.821,4.487,1.036,6.425,2.224c3.911,2.399,4.641,8.087,2.815,12.297c-1.826,4.209-5.526,7.264-9.135,10.097
				c-15.502,12.169-31.762,23.371-48.655,33.519c-1.841,1.106-3.878,2.466-4.208,4.588c-0.507,3.257,3.39,5.524,6.686,5.577
				c3.296,0.053,6.683-1.052,9.827-0.06c5.085,1.604,7.081,8.24,5.427,13.308c-1.654,5.069-5.854,8.834-9.99,12.199
				c-27.004,21.969-59.212,38.24-81.081,65.325"/>
			<path style="fill:#F1F1F1;" d="M211.162,525.051c9.046-9.755,40.2-33.546,15.05-42.232c-14.694-5.188-47.81,27.344-56.871,7.299
				c-3.349-11.815,61.438-50.583,66.792-67.195c1.209-4.133-0.59-9.467-4.758-10.553c-5.081-1.324-10.117,4.069-15.208,2.784
				c-10.518-4.421-2.792-17.346,4.367-21.541c13.669-12.299,29.872-23.919,38.489-40.471c5.628-12.124-4.199-25.053-17.407-22.872
				c-14.479-0.5-73.591,39.737-78.309,27.296c-2.215-4.446,3.155-8.82,4.494-13.601c1.818-6.49-4.774-12.868-11.485-13.49
				s-13.098,2.655-19.041,5.835c-56.847,30.424-113.693,60.848-170.54,91.272v91.826"/>
		</g>
		
			<path style="clip-path:url(#SVGID_00000021111948120368156160000004123735090488642470_);fill:none;stroke:#000000;stroke-linecap:round;stroke-linejoin:round;stroke-miterlimit:10;" d="
			M116.091,458.266c9.894,1.256,20.416,2.781,27.952,9.314c6.151,4.393,7.429,14.515-0.187,17.979
			c-13.11,4.891-17.386-13.905-6.98-19.804c7.027-5.1,14.955-7.041,14.468,4.411c0.055,2.716,0.917,6.025,3.558,6.663
			c6.679-0.209,9.903-9.413,14.503-13.513c5.289-6.816,9.854,0.405,4.697,5.328c-2.351,3.689-13.774,13.581-2.909,13.256
			c14.711-5.432,13.307,12.991-7.739,16.154c-5.109,1.437-8.324-3.53-3.099-6.28c6.987-3.542,14.642,1.004,21.798,1.635
			c8.978,0.271,18.657-4.267,24.379-11.173c3.78-3.804,0.053-9.863-4.262-5.667c-3.643,7.41,7.05,9.547,12.291,7.54
			c10.479-0.853,51.15-11.071,51.249,5.121c-1.673,7.92-12.195,3.778-7.607-3.096c6.663-7.436,18.135,0.302,26.012-4.389
			c6.197-3.707,3.775-8.334,1.836-13.538c-0.143-3.193,3.371-5.293,4.445-8.303c2.793-9.753-13.467-12.632-13.927-21.423
			c4.626-22.139,45.95-5.667,33.061,21.039c-1.604,3.137-3.983,6.97-1.86,9.783c2.261,2.996,7.374,1.471,10.348,3.76
			c5.717,4.876-1.845,13.685,3.156,18.891c3.997,2.751,9.28-0.447,13.331-1.872c15.202-7.425,33.679,7.283,29.801,23.78"/>
		<g style="clip-path:url(#SVGID_00000021111948120368156160000004123735090488642470_);">
			<g>
				<path style="fill:#80AAA8;" d="M113.688,468.884c-7.785,11.547-15.682,23.223-26.3,32.592c-1.447,1.277-2.994,2.537-4.888,3.139
					c-1.894,0.603-4.225,0.408-5.654-0.941c-1.727-1.63-1.572-4.317-0.614-6.382s2.561-3.819,3.501-5.891
					c3.232-7.128-2.119-15.583-0.139-23.118c1.622-6.175,8.41-10.52,15.272-10.364c6.861,0.156,13.338,4.421,16.469,10.164"/>
				<path style="fill:#A6CDCB;" d="M129.612,446.338c-4.543,19.237-12.865,27.804-34.675,25.497
					c-18.409,6.488-19.267,19.798-47.283,16.206c-10.646-1.611-20.59-6.421-29.153-12.641
					c-42.953-44.604,49.022-7.391,82.353-43.473c-0.977,1.198,12.783,9.352,14.182,10.021
					C119.804,444.228,125.024,444.046,129.612,446.338z"/>
				<g>
					<path style="fill:#C5D7D6;" d="M150.431,366.558c17.895-0.955,34.685,12.932,35.838,29.624
						c37.346,17.781,15.217,70.022-24.737,53.291c-17.896,3.031-40.13,8.572-53.33-8.046c-3.885,16.318-26.354,23.81-40.931,13.651
						c-4.466,16.061-30.163,17.221-36.979,1.677c-16.829,14.921-50.099,1.019-33.055-20.766
						c-15.305-2.092-20.86-23.736-7.105-30.936c-11.422-16.631,2.9-40.831,24.544-37.87c2.084-17.635,26.956-25.546,40.72-12.957
						c8.548-16.881,36.277-17.563,46.509-1.148c15.163-9.968,38.516-2.759,44.757,13.812
						C147.909,366.711,149.168,366.601,150.431,366.558z"/>
					<g>
						<path style="fill:#A6CDCB;" d="M109.44,442.968c-1.008-2.255-1.072-5.054,0.607-6.875c1.833-1.988,5.019-2.202,7.86-2.231
							c2.841-0.029,6.004-0.135,7.97-2.008c0.799-0.761,1.207-2.205,0.23-2.797c-0.539-0.326-1.238-0.21-1.856-0.081
							c-2.515,0.523-5.03,1.045-7.545,1.568c-1.783,0.371-3.45,0.723-5.217,0.878c-1.229,0.108-2.786,2.449-4.011,1.617
							c-0.307-0.208-0.443-0.565-0.565-0.899c-1.999-5.464-4.842-10.673-8.414-15.415c-2.064-2.741-4.591-5.468-8.025-6.412
							c-0.796-0.219-1.743-0.306-2.357,0.197c-0.775,0.634-0.574,1.826-0.099,2.699c1.103,2.028,3.208,3.389,5.076,4.859
							c3.611,2.842,6.584,6.389,8.663,10.334c-0.008-0.014-3.12-0.981-3.465-1.132c-1.016-0.443-1.939-0.858-2.89-1.433
							c-2.549-1.541-5.142-3.061-8.02-3.997c-3.209-1.044-6.832-1.304-9.894-0.033c-0.719,0.298-1.448,0.732-1.699,1.428
							c-0.387,1.073,0.6,2.251,1.76,2.636c1.16,0.385,2.422,0.217,3.64,0.129c6.155-0.443,12.517,1.411,17.378,5.065
							s8.164,9.067,9.024,14.784"/>
						<path style="fill:#A6CDCB;" d="M102.235,353.317c15.318-0.207,34.473,12.772,34.308,19.962
							c4.837-2.599,32.435,8.561,29.41,22.895c-7.556,19.762-51.906,14.36-46.402,20.178c2.662,2.814,37.986-3.279,48.598-16.417
							c7.81,12.178,6.901,28.85-3.262,39.29c-1.38,1.109-2.873,3.714-0.628,4.731c15.102-6.579,19.927-38.299,5.169-48.183
							c1.884-14.535-24.551-27.245-30.448-25.434C137.589,361.373,117.614,349.609,102.235,353.317z"/>
						<path style="fill:#A6CDCB;" d="M160.151,404.246c-1.363,1.347-3.551,1.729-5.549,1.494c-2.915-0.343-5.628-1.859-7.547-3.959
							c-1.919-2.099-3.071-4.747-3.519-7.452c-0.135-0.819-0.216-1.667-0.627-2.407c-0.411-0.74-1.263-1.353-2.136-1.225
							c-0.989,0.145-1.554,1.132-1.719,2.051c-0.39,2.175,0.617,4.379,1.813,6.315c1.388,2.246,3.09,4.366,5.278,5.971
							c2.189,1.605,4.902,2.668,7.659,2.641"/>
						<path style="fill:#A6CDCB;" d="M122.96,414.294c-0.671,3.328-2.897,6.516-6.298,7.686c-0.71,0.245-1.484,0.399-2.235,0.263
							c-0.751-0.136-1.473-0.611-1.704-1.292c-0.264-0.781,0.165-1.625,0.788-2.185c0.622-0.56,1.418-0.918,2.133-1.372
							c2.977-1.894,4.381-5.674,3.32-8.936c-0.471-1.448-1.665-3.407-0.48-4.809c0.896-1.06,1.999-0.415,2.772,0.464
							C123.537,406.707,123.579,411.222,122.96,414.294z"/>
						<path style="fill:#A6CDCB;" d="M64.982,365.234c4.582,2.517,9.915,3.611,15.186,3.853c2.242,0.103,4.541,0.068,6.662,0.788
							c0.887,0.301,1.824,0.851,1.983,1.715c0.14,0.758-0.408,1.5-1.122,1.869s-1.561,0.442-2.382,0.484
							c-6.919,0.35-14.095-1.104-19.893-4.764c-5.798-3.66-10.058-9.646-10.629-16.094c0.04,0.447,0.611,1.175,0.8,1.612
							c0.251,0.581,0.437,1.18,0.713,1.755c0.59,1.231,1.344,2.395,2.221,3.471C60.267,362.068,62.498,363.869,64.982,365.234z"/>
						<path style="fill:#A6CDCB;" d="M90.26,378.232c-0.764-1.571-0.792-3.363-0.506-5.048c0.286-1.685,0.868-3.307,1.285-4.966
							c0.266-1.058,0.46-2.189,0.074-3.227c-0.387-1.038-1.539-1.917-2.683-1.696c-1.071,0.207-1.688,1.223-2.103,2.162
							c-1.33,3.014-1.951,6.394-1.171,9.61c0.78,3.216,3.111,6.222,6.4,7.468c1.099,0.416,4.028,0.509,2.376-1.054
							C92.638,380.258,91.096,379.952,90.26,378.232z"/>
						<path style="fill:#A6CDCB;" d="M59.441,438.458c-0.273-2.094-0.461-4.489-2.258-5.799c-1.511,1.064-1.596,3.142-1.362,4.914
							c0.55,4.164,2.123,8.227,4.564,11.787c-2.439-2.679-5.143-5.151-8.065-7.372c-0.999-0.76-2.081-1.515-3.344-1.717
							c-1.263-0.202-2.739,0.344-3.093,1.479c-0.389,1.248,0.663,2.485,1.672,3.413c4.74,4.36,10.335,7.906,16.402,10.427
							c0.606,0.252,3.83,1.899,4.38,1.55c0.886-0.563-0.739-1.998-1.103-2.402c-2.003-2.226-3.713-4.63-5.02-7.264
							C60.796,444.617,59.846,441.565,59.441,438.458z"/>
						<path style="fill:#A6CDCB;" d="M21.316,430.68c0.87-0.738,2.019-1.596,3.103-1.12c0.664,0.292,1.008,1.027,0.978,1.704
							c-0.03,0.677-0.368,1.302-0.754,1.869c-1.725,2.534-4.54,4.312-7.599,5.284c-3.059,0.971-6.359,1.185-9.611,1.053
							c-2.469-0.1-5.02-0.441-7.294-1.429c-0.463-0.201-2.996-1.331-2.849-1.918c0.164-0.653,2.635,0.138,3.125,0.211
							c4.768,0.708,9.712,0.115,14.105-1.622C17.008,433.727,19.322,432.371,21.316,430.68z"/>
						<path style="fill:#A6CDCB;" d="M15.712,436.082c-2.547-0.309-4.659-2.269-5.538-4.526c-0.879-2.257-0.691-4.747-0.068-7.048
							c0.624-2.301,1.661-4.476,2.483-6.719c0.344-0.938,0.653-1.94,0.43-2.919c-0.223-0.98-1.159-1.903-2.225-1.824
							c-0.968,0.072-1.644,0.885-2.126,1.662c-3.067,4.941-3.195,11.395-0.327,16.552c1.196,2.15,2.896,4.147,3.323,6.523"/>
						<path style="fill:#A6CDCB;" d="M19.965,381.518c-0.161,3.747-1.415,7.44-0.971,11.179c0.07,0.591,0.19,1.195,0.529,1.704
							c0.339,0.509,0.943,0.905,1.578,0.871c1.055-0.056,1.613-1.148,1.902-2.09c0.929-3.025,1.324-6.201,1.165-9.363
							c-0.042-0.848-0.106-1.764,0.392-2.464c0.506-0.71,1.492-1.011,2.415-0.976c0.923,0.035,1.809,0.354,2.679,0.658
							c6.008,2.099,12.205,3.704,18.495,4.791c3.225,0.557,6.784,0.925,9.532-0.67c0.514-0.298,1-0.676,1.257-1.188
							c0.257-0.511,0.238-1.178-0.175-1.605c-0.608-0.63-1.676-0.483-2.556-0.32c-2.586,0.478-5.25,0.625-7.894,0.434
							c-3.801-0.275-7.526-1.241-11.122-2.473c-2.787-0.955-5.511-2.072-8.232-3.187c-1.587-0.651-3.19-1.31-4.579-2.282
							c-3.565-2.496-5.399-6.818-9.232-8.936c0.051,0.026-0.308,1.621-0.225,1.87c0.165,0.496,0.91,1.095,1.228,1.541
							c0.877,1.228,1.613,2.541,2.199,3.908C19.523,375.65,20.091,378.6,19.965,381.518z"/>
						<path style="fill:#A6CDCB;" d="M60.42,417.066c-4.059-2.052-7.352-5.421-9.16-9.372c-0.117-0.255-0.23-0.535-0.155-0.8
							c0.117-0.413,0.617-0.596,1.051-0.735c4.769-1.524,8.878-4.69,11.367-8.759c0.332-0.542,0.593-1.321,0.067-1.725
							c-0.455-0.35-1.127-0.112-1.628,0.158c-4.097,2.205-7.315,5.789-11.779,7.281c-3.533,1.181-7.433,0.91-11.187,1.241
							c-3.648,0.322-7.266,1.247-10.349,3.046c-3.083,1.799-5.6,4.518-6.681,7.764c7.564-4.756,16.803-7.203,26.018-6.889
							c1.794,2.609,3.963,4.998,6.428,7.083c2.078,1.757,4.427,3.326,7.107,4.059c0.334,0.091,0.689,0.17,1.022,0.089
							c0.333-0.081,0.627-0.373,0.574-0.693c-0.053-0.319-0.569-0.51-0.772-0.253"/>
					</g>
				</g>
			</g>
			<path style="fill:none;stroke:#000000;stroke-linecap:round;stroke-linejoin:round;stroke-miterlimit:10;" d="M140.949,356.056
				c7.272,2.731,15.493,6.467,17.468,13.98c1.431,5.444-1.162,11.37-5.344,15.138c-4.182,3.768-9.701,5.7-15.198,6.914
				c-22.312,4.924-46.602-0.45-67.734,8.238c-2.566,1.055-5.117,2.357-6.961,4.43c-1.844,2.073-2.864,5.065-1.974,7.693
				c1.389,4.102,6.577,5.553,10.88,5.056c5.373-0.62,10.551-3.435,13.619-7.89c3.068-4.455,3.813-10.536,1.501-15.426
				c-2.091-4.421-6.394-7.515-11.039-9.045c-4.645-1.53-9.634-1.658-14.519-1.408c-6.537,0.335-13.457,1.507-18.329,5.879
				c-6.424,5.763-7.444,16.052-3.77,23.862c3.675,7.809,11.203,13.274,19.295,16.277c8.091,3.003,16.802,3.834,25.403,4.554
				c5.707,0.478,12.492,1.64,14.791,6.886c1.295,2.954,0.643,6.515-1.12,9.216c-1.763,2.701-4.503,4.634-7.404,6.045
				c-4.279,2.081-9.251,3.149-13.837,1.88c-4.586-1.269-8.581-5.267-8.859-10.017c-0.278-4.75,4.043-9.543,8.759-8.914
				c18.404,2.452-7.849,33.078-13.649,37.422c-9.584,7.178-21.248,11.288-33.114,12.897c-4.941,0.67-10.507,0.743-14.27-2.529
				c-4.703-4.09-4.448-11.339-3.807-17.539"/>
			<path style="fill:none;stroke:#000000;stroke-linecap:round;stroke-linejoin:round;stroke-miterlimit:10;" d="M-14.289,401.28
				c5.946-1.138,12.422-0.988,17.646,2.07c5.224,3.058,8.694,9.591,6.825,15.349c-0.903,2.783-3.207,5.28-6.111,5.627
				c-2.905,0.348-6.05-2.136-5.737-5.045c0.234-2.176,2.101-3.78,3.927-4.984c10.78-7.111,24.578-8.362,37.321-6.269
				c12.744,2.093,24.751,7.233,36.703,12.125c11.952,4.893,24.185,9.629,37.042,10.842c4.799,0.453,9.78,0.382,14.248-1.425
				c4.469-1.807,8.352-5.629,9.148-10.382c0.796-4.754-2.268-10.147-7.016-10.979c-4.748-0.831-9.751,4.301-8.045,8.809
				c1.456,3.848,6.173,5.172,10.261,5.641c12.599,1.445,26.034-0.479,36.35-7.857c10.315-7.377,16.692-20.914,13.355-33.149"/>
		</g>
		
			<path style="clip-path:url(#SVGID_00000021111948120368156160000004123735090488642470_);fill:none;stroke:#000000;stroke-linecap:round;stroke-linejoin:round;stroke-miterlimit:10;" d="
			M22.337,352.696c-25.733,18.255,12.577,34.577,27.767,3.521c7.042-24.27-17.253-12.967-18.545-24.517
			c1.02-7.652,11.316-4.583,16.358-6.901c12.56-10.781-12.685-9.599-18.595-11.435c-8.242-1.564-19.724-1.993-23.812,6.867
			c-3.58,18.102,19.715,14.602,16.904-8.399c-0.829-10.215,6.28-18.523,16.804-17.672c8.957,0.167,20.667,3.63,27.085-4.569
			c2.841-3.858,2.09-10.39-2.304-12.3c-9.622-1.794-19.104,5.971-28.305,8.422c-21.707,9.507-23.388-12.419-12.521-25.837
			c15.821-22.412,10.794-64.203-22.47-62.248c-6.03,1.9-11.044-0.734-9.56-7.521c2.515-11.501,6.062-20.734,14.552-29.303
			c3.416-3.448,7.385-7.257,11.381-9.971c5.44-3.695,10.384-6.687,14.324-12.18c1.188-1.656,2.283-3.766,1.496-5.646
			c-0.989-2.362-4.297-2.708-6.703-1.831c-2.407,0.876-4.51,2.569-7.024,3.058c-4.464,0.867-9.21-3.08-9.171-7.628
			c0.06-7.01,9.317-12.877,6.405-19.254c-1.836-4.02-7.231-4.627-11.644-4.381c-4.412,0.246-9.601,0.453-12.369-2.993
			c-2.895-3.604-1.203-9.127,1.797-12.644c3-3.517,7.104-6.023,9.795-9.783c5.043-7.046,3.431-17.974-3.43-23.265
			c-1.914-1.476-4.302-2.561-6.698-2.241c-2.396,0.32-4.637,2.428-4.456,4.839c0.304,4.06,6.061,4.911,9.909,3.581
			c5.989-2.071,11.097-6.577,13.898-12.261c1.116-2.264,1.903-4.739,3.523-6.675c1.619-1.936,4.444-3.199,6.701-2.071
			c3.348,1.674,3.285,7.205,6.729,8.67c3.632,1.545,7.144-3.361,6.355-7.229c-0.789-3.868-3.869-6.78-5.97-10.122
			c-2.101-3.342-2.976-8.327,0.099-10.802c3.151-2.535,8.176-0.254,10.1,3.304c1.924,3.557,1.783,7.814,2.096,11.846
			c0.313,4.032,1.411,8.462,4.8,10.668c3.749,2.441,9.157,0.988,12.022-2.449c2.865-3.437,3.513-8.293,2.795-12.709
			c-1.016-6.248-4.612-12.035-9.762-15.715c-4.162,1.864-4.056,8.673-0.296,11.253c3.759,2.58,9.253,1.235,12.397-2.067
			c3.144-3.303,4.326-8.033,4.585-12.585c0.267-4.697-0.324-9.441-1.735-13.929c-1.218-3.876-5.01-8.274-8.527-6.239
			c-3.25,1.88-1.829,7.116,1.049,9.527c7.737,6.479,19.877,2.931,28.972,7.302c5.259,2.528,9.065,7.523,14.43,9.816
			c8.806,3.763,18.96-0.794,26.552-6.63c7.592-5.836,14.428-13.202,23.535-16.162c15.148-4.925,31.901,4.354,41.104,17.355"/>
		<g style="clip-path:url(#SVGID_00000021111948120368156160000004123735090488642470_);">
			<g>
				<path style="fill:#DA8265;" d="M25.632,275.218c-0.972-0.586-2.142-0.726-3.273-0.827c-1.131-0.101-2.296-0.185-3.316-0.684
					c-0.463-0.226-0.913-0.571-1.057-1.067c-0.243-0.839,0.518-1.671,1.344-1.956c0.826-0.285,1.732-0.229,2.58-0.438
					c1.301-0.321,2.451-1.359,2.713-2.673c0.263-1.314-0.514-2.812-1.799-3.189c-1.164-0.342-2.86-0.038-3.222-1.195
					c-0.192-0.612,0.228-1.28,0.789-1.592c0.561-0.312,1.226-0.354,1.865-0.398c5.022-0.348,10.008-1.219,14.85-2.595
					c1.337-0.38,2.713-0.826,3.725-1.778c1.012-0.952,1.547-2.554,0.876-3.771c-0.901-1.633-3.198-1.66-5.054-1.471
					c-3.953,0.402-7.905,0.805-11.858,1.207c-0.785,0.08-1.602,0.156-2.34-0.123c-0.738-0.278-1.363-1.027-1.224-1.803
					c0.184-1.033,1.5-1.486,1.877-2.465c0.359-0.934-0.317-2.009-1.217-2.446c-0.901-0.437-1.948-0.402-2.948-0.358
					c-3.971,0.175-7.941,0.35-11.912,0.524c-1.24,0.055-2.829-0.125-3.175-1.317c-0.361-1.243,1.005-2.253,2.173-2.812
					c5.294-2.533,10.786-4.653,16.409-6.333c3.435-1.027,6.998-1.925,9.943-3.97c0.773-0.537,1.568-1.314,1.466-2.25
					c-0.113-1.041-1.316-1.64-2.361-1.59c-1.045,0.051-2.014,0.539-3.031,0.787c-0.958,0.234-2.264,0.046-2.491-0.914
					c-0.255-1.08,1.074-1.793,2.141-2.096c2.801-0.796,5.601-1.593,8.402-2.389c-1.757-1.014-3.643-1.863-5.653-2.509
					c-15.264-4.907-31.616,3.489-36.523,18.753s3.489,31.616,18.753,36.523c4.66,1.498,9.421,1.75,13.927,0.952
					C26.802,276.247,26.276,275.607,25.632,275.218z"/>
				<path style="fill:#D66B54;" d="M49.605,257.251c4.261-13.255-1.513-27.325-13.101-34.014c-2.801,0.796-5.601,1.593-8.402,2.389
					c-1.067,0.303-2.396,1.017-2.141,2.096c0.227,0.96,1.533,1.149,2.491,0.914c1.017-0.248,1.985-0.737,3.031-0.787
					c1.045-0.051,2.248,0.549,2.361,1.59c0.102,0.936-0.693,1.713-1.466,2.25c-2.945,2.045-6.508,2.944-9.943,3.97
					c-5.623,1.68-11.115,3.8-16.409,6.333c-1.168,0.559-2.533,1.569-2.173,2.812c0.346,1.192,1.936,1.371,3.175,1.317
					c3.971-0.175,7.941-0.35,11.912-0.524c1-0.044,2.048-0.079,2.948,0.358c0.9,0.437,1.576,1.511,1.217,2.446
					c-0.377,0.979-1.692,1.432-1.877,2.465c-0.138,0.776,0.486,1.525,1.224,1.803c0.738,0.278,1.556,0.202,2.34,0.123
					c3.953-0.403,7.905-0.805,11.858-1.207c1.856-0.189,4.153-0.162,5.054,1.471c0.671,1.217,0.137,2.819-0.876,3.771
					c-1.012,0.952-2.388,1.399-3.725,1.778c-4.843,1.376-9.828,2.247-14.85,2.595c-0.64,0.044-1.305,0.087-1.865,0.398
					c-0.56,0.311-0.98,0.98-0.789,1.592c0.362,1.158,2.058,0.854,3.222,1.195c1.286,0.377,2.062,1.875,1.799,3.189
					c-0.262,1.314-1.412,2.352-2.713,2.673c-0.848,0.209-1.754,0.153-2.58,0.438c-0.826,0.285-1.587,1.117-1.344,1.956
					c0.143,0.495,0.593,0.841,1.057,1.067c1.02,0.498,2.185,0.582,3.316,0.684c1.131,0.101,2.301,0.241,3.273,0.827
					c0.644,0.388,1.17,1.029,1.378,1.737C37.263,275.138,46.196,267.854,49.605,257.251z"/>
			</g>
			<g>
				<path d="M31.191,248.259c1.283,2.87,4.673-2.69,2.165-3.227C31.673,244.735,30.695,246.918,31.191,248.259z"/>
				<path d="M15.557,243.028c-2.902,1.209-1.556-5.163,0.638-3.833C17.624,240.132,16.838,242.392,15.557,243.028z"/>
				<path d="M21.794,258.175c1.587,0.073,10.124,6.9,5.137,6.254c-6.037-4.127-8.466-5.005-15.83-5.154
					C6.058,256.61,20.588,256.776,21.794,258.175z"/>
				<path d="M35.812,243.214c0.198,0.055,0.405,0.104,0.608,0.073c0.203-0.031,0.405-0.159,0.464-0.357
					c0.085-0.289-0.15-0.565-0.367-0.775c-0.771-0.746-1.541-1.492-2.312-2.239c-0.642-0.621-1.465-1.382-2.439-1.12
					c-0.787,0.211-0.996,0.905-0.581,1.572C32.081,241.807,34.25,242.785,35.812,243.214z"/>
				<path d="M14.026,236.211c-0.193-0.071-0.389-0.152-0.537-0.296c-0.147-0.144-0.236-0.366-0.169-0.56
					c0.099-0.285,0.451-0.372,0.749-0.416c1.061-0.157,2.122-0.315,3.183-0.472c0.884-0.131,1.996-0.27,2.635,0.511
					c0.516,0.63,0.282,1.316-0.444,1.616C17.879,237.241,15.546,236.772,14.026,236.211z"/>
			</g>
		</g>
		<g style="clip-path:url(#SVGID_00000021111948120368156160000004123735090488642470_);">
			<path style="fill:#E1A98C;" d="M58.427,306.834c-1.922-0.066-3.922-0.153-5.612-1.071c-1.69-0.917-2.949-2.936-2.352-4.763
				c0.26-0.797,0.827-1.453,1.21-2.199c0.954-1.858,0.691-4.112,0.065-6.104c-0.626-1.992-1.588-3.882-2.004-5.929
				c-1.256-6.18,3.405-12.819,9.583-14.085c6.178-1.266,12.884,2.712,15.088,8.621c0.532,1.427,0.833,2.939,1.468,4.324
				c0.634,1.385,1.695,2.684,3.16,3.099c2.758,0.782,5.21-1.718,7.646-3.229c2.444-1.516,5.571-2.108,8.254-1.073
				c2.683,1.035,4.695,3.898,4.284,6.745c-0.258,1.785-1.321,3.804-0.193,5.212c1.055,1.316,3.104,0.897,4.751,0.529
				c3.5-0.784,7.18-0.753,10.666,0.09c1.553,0.375,3.121,0.941,4.266,2.055c1.145,1.114,1.767,2.889,1.149,4.363
				c-0.882,2.102-3.589,2.591-5.862,2.753c-5.048,0.36-10.106,0.575-15.166,0.645"/>
			<g>
				<path style="fill:#C5D7D6;" d="M79.96,320.335c0.394,0.354,0.837,0.674,1.348,0.813c0.511,0.139,1.103,0.069,1.498-0.284
					c0.488-0.436,0.563-1.199,0.355-1.82c-0.208-0.621-0.646-1.133-1.074-1.629c-1.007-1.165-2.013-2.331-3.02-3.496
					c-0.77-0.891-1.681-2.451-2.69-3.022c-0.197,0.486,0.085,1.292,0.164,1.81c0.147,0.967,0.325,1.926,0.606,2.865
					c0.275,0.918,0.633,1.816,1.115,2.645C78.488,318.606,79.456,320.335,79.96,320.335z"/>
				<path style="fill:#C5D7D6;" d="M95.582,327.312c0.481,0.294,1.01,0.55,1.574,0.569c0.564,0.019,1.168-0.249,1.403-0.762
					c0.214-0.468,0.079-1.038-0.213-1.462s-0.718-0.734-1.136-1.036c-2.673-1.927-5.31-3.924-8.029-5.784
					c0.52,0.542,0.785,1.5,1.145,2.163c0.457,0.84,0.934,1.67,1.468,2.464C92.845,325.03,94.067,326.211,95.582,327.312z"/>
				<path style="fill:#C5D7D6;" d="M101.928,318.882c0.386,0.352,0.792,0.702,1.279,0.892c0.487,0.19,1.078,0.193,1.498-0.119
					c0.627-0.465,0.629-1.453,0.227-2.122c-0.402-0.669-1.092-1.102-1.743-1.532c-1.318-0.872-2.575-1.835-3.759-2.88
					c-0.601-0.53-1.184-1.081-1.747-1.652c-0.418-0.424-0.879-1.149-1.399-1.41c-0.474,1.147,1.127,3.389,1.711,4.29
					C99.086,316.033,100.448,317.533,101.928,318.882z"/>
				<path style="fill:#C5D7D6;" d="M62.482,320.606c0.386,0.352,0.792,0.702,1.279,0.892s1.078,0.193,1.498-0.119
					c0.627-0.465,0.629-1.453,0.227-2.122c-0.402-0.669-1.092-1.102-1.743-1.532c-1.318-0.872-2.575-1.835-3.76-2.88
					c-0.601-0.53-1.184-1.081-1.747-1.652c-0.419-0.424-0.879-1.149-1.399-1.41c-0.474,1.147,1.127,3.39,1.71,4.29
					C59.639,317.757,61.001,319.256,62.482,320.606z"/>
				<path style="fill:#C5D7D6;" d="M114.896,325.998c0.486,0.301,1.007,0.578,1.576,0.638c0.568,0.06,1.196-0.141,1.506-0.621
					c0.272-0.422,0.251-0.981,0.064-1.446c-0.187-0.465-0.52-0.855-0.857-1.227c-2.231-2.458-5.056-5.041-7.921-6.732
					c-0.294,1.386,0.399,3.624,1.133,4.854C111.491,323.299,113.084,324.874,114.896,325.998z"/>
				<path style="fill:#C5D7D6;" d="M78.939,331.856c0.486,0.301,1.007,0.578,1.575,0.638c0.568,0.06,1.196-0.141,1.506-0.621
					c0.272-0.422,0.251-0.981,0.064-1.446c-0.187-0.465-0.52-0.855-0.857-1.227c-2.231-2.458-5.056-5.041-7.921-6.732
					c-0.294,1.386,0.399,3.624,1.133,4.854C75.534,329.156,77.127,330.731,78.939,331.856z"/>
				<path style="fill:#C5D7D6;" d="M107.455,338.293c0.426,0.451,0.909,0.876,1.496,1.075c0.587,0.199,1.301,0.128,1.737-0.314
					c0.51-0.517,0.493-1.385,0.164-2.032s-0.901-1.13-1.449-1.608c-2.261-1.974-4.325-4.174-6.15-6.556
					c0.346,0.45,0.144,1.62,0.281,2.2c0.2,0.852,0.631,1.705,0.981,2.504C105.264,335.267,106.168,336.931,107.455,338.293z"/>
			</g>
		</g>
		<g style="clip-path:url(#SVGID_00000021111948120368156160000004123735090488642470_);">
			<path style="fill:#C5D7D6;" d="M39.896,150.172c-7.801-0.464-15.373,8.634-9.73,15.374c-22.099-1.603-17.789,30.332,2.586,28.341
				c-8.48,11.018,19.972,13.164,23.864,5.431c4.886,9.83,20.364,8.628,23.675-1.835c9.895,3.76,29.811-0.582,22.309-14.379
				c18.152-8.787-1.152-36.817-18.62-24.552c-2.891-16.576-29.649-19.107-29.37,0.024C51.567,152.731,46.64,150.012,39.896,150.172z
				"/>
			<path style="fill:#C5D7D6;" d="M50.918,197.795c0.536,7.124-2.776,14.423-8.49,18.711c7.636,1.337,18.466-12.024,21.521-18.356"
				/>
		</g>
		<g style="clip-path:url(#SVGID_00000021111948120368156160000004123735090488642470_);">
			<path style="fill:#C5D7D6;" d="M316.456,457.535c-4.402,1.179-8.141,4.597-9.71,8.875c-0.815,2.221-1.05,4.75-0.129,6.93
				c0.92,2.18,3.176,3.873,5.533,3.666c2.268,4.949,7.123,8.621,12.503,9.456c5.379,0.835,11.12-1.193,14.781-5.221
				c4.221,4.451,10.245,7.141,16.376,7.314c2.003,0.057,4.1-0.173,5.787-1.255c1.687-1.082,2.832-3.201,2.272-5.125
				c4.134,0.883,8.356,1.772,12.555,1.292c4.2-0.48,8.449-2.578,10.416-6.32c1.967-3.742,0.811-9.148-3.026-10.922
				c4.477-4.876,5.856-12.429,3.218-18.501c-2.638-6.072-9.226-10.246-15.835-9.853c-6.608,0.392-12.724,5.436-14.191,11.891
				c-2.185-5.158-7.927-8.566-13.502-8.014c-5.81,0.576-10.12,5.01-11.684,10.413C327.114,446.114,317.798,451.221,316.456,457.535z
				"/>
			<path style="fill:#C5D7D6;" d="M332.567,455.234c-2.404-7.625-9.104-13.732-16.918-15.422c9.087-1.883,19.044,1.181,25.501,7.846
				"/>
		</g>
		<g style="clip-path:url(#SVGID_00000021111948120368156160000004123735090488642470_);">
			<path style="fill:#E1A98C;" d="M185.17,469.107c-1.682-2.266-1.79-7.292-0.04-9.506c1.75-2.214,4.432-3.477,7.108-4.373
				c2.676-0.896,5.467-1.51,7.981-2.793c5.004-2.553,8.327-7.407,11.848-11.784s7.914-8.694,13.493-9.348
				c6.01-0.704,12.182,3.743,13.416,9.667c0.44,2.112,0.379,4.478,1.74,6.152c1.399,1.722,3.915,2.129,6.1,1.738
				c2.184-0.391,4.191-1.43,6.294-2.138c3.825-1.287,8.288-1.388,11.667,0.818c3.379,2.206,5.053,7.147,2.828,10.514
				c3.79-1.365,7.842-2.748,11.767-1.841c3.925,0.907,7.352,5.125,5.878,8.874c-1.418,3.606-6.2,4.523-10.003,3.781"/>
			<g>
				<path style="fill:#C5D7D6;" d="M193.141,480.223c0.396,0.692,0.862,1.386,1.56,1.772c0.698,0.386,1.684,0.358,2.186-0.261
					c0.574-0.707,0.282-1.755-0.085-2.588c-1.118-2.534-2.707-4.86-4.656-6.827c-0.505-0.51-1.623-1.988-1.601-0.545
					c0.019,1.235,0.351,2.578,0.668,3.762C191.65,477.173,192.299,478.753,193.141,480.223z"/>
				<path style="fill:#C5D7D6;" d="M217.666,480.223c0.396,0.692,0.863,1.386,1.56,1.772c0.698,0.386,1.684,0.358,2.186-0.261
					c0.574-0.707,0.282-1.755-0.085-2.588c-1.118-2.534-2.707-4.86-4.656-6.827c-0.505-0.51-1.623-1.988-1.601-0.545
					c0.019,1.235,0.351,2.578,0.668,3.762C216.175,477.173,216.824,478.753,217.666,480.223z"/>
				<path style="fill:#C5D7D6;" d="M239.182,477.133c0.256,0.447,0.557,0.895,1.007,1.144c0.451,0.249,1.087,0.231,1.412-0.168
					c0.371-0.456,0.182-1.133-0.055-1.671c-0.722-1.636-1.748-3.138-3.006-4.408c-0.326-0.329-1.048-1.283-1.034-0.352
					c0.012,0.798,0.227,1.665,0.431,2.429C238.22,475.164,238.638,476.184,239.182,477.133z"/>
				<path style="fill:#C5D7D6;" d="M264.23,477.043c0.257,0.449,0.56,0.9,1.013,1.151c0.453,0.25,1.093,0.232,1.419-0.169
					c0.373-0.459,0.183-1.14-0.055-1.68c-0.726-1.645-1.757-3.155-3.023-4.432c-0.328-0.331-1.054-1.291-1.04-0.354
					c0.012,0.802,0.228,1.674,0.434,2.443C263.262,475.063,263.683,476.089,264.23,477.043z"/>
				<path style="fill:#C5D7D6;" d="M250.524,493.61c0.396,0.692,0.862,1.386,1.56,1.772c0.698,0.386,1.684,0.358,2.186-0.261
					c0.574-0.706,0.282-1.755-0.085-2.588c-1.118-2.534-2.707-4.86-4.656-6.827c-0.505-0.51-1.623-1.988-1.601-0.545
					c0.019,1.235,0.351,2.578,0.668,3.762C249.033,490.561,249.682,492.141,250.524,493.61z"/>
				<path style="fill:#C5D7D6;" d="M235.587,495.015c0.396,0.692,0.863,1.386,1.56,1.772c0.698,0.386,1.684,0.358,2.186-0.261
					c0.574-0.707,0.282-1.755-0.085-2.588c-1.118-2.534-2.707-4.86-4.656-6.827c-0.505-0.51-1.623-1.988-1.601-0.545
					c0.019,1.235,0.351,2.578,0.668,3.762C234.097,491.965,234.746,493.545,235.587,495.015z"/>
				<path style="fill:#C5D7D6;" d="M213.438,497.768c0.396,0.692,0.863,1.386,1.56,1.772c0.698,0.386,1.684,0.358,2.186-0.261
					c0.574-0.707,0.282-1.755-0.085-2.588c-1.118-2.534-2.707-4.86-4.656-6.827c-0.505-0.51-1.623-1.988-1.601-0.544
					c0.019,1.235,0.351,2.578,0.668,3.762C211.948,494.718,212.597,496.298,213.438,497.768z"/>
			</g>
		</g>
		<g style="clip-path:url(#SVGID_00000021111948120368156160000004123735090488642470_);">
			<g>
				<path style="fill:#D66B54;" d="M22.659,115.884c0.398-0.449,0.797-0.93,0.942-1.512c0.146-0.582-0.041-1.292-0.576-1.564
					c-0.575-0.293-1.365-0.018-1.855-0.438c-0.382-0.327-0.374-0.949-0.126-1.387c0.248-0.438,0.675-0.739,1.08-1.038
					c2.151-1.591,4.036-3.54,5.557-5.742c0.573-0.83,1.104-1.924,0.598-2.797c-0.558-0.961-2-0.93-2.986-0.418
					c-0.986,0.513-1.787,1.364-2.832,1.742c-0.312,0.113-0.716,0.156-0.924-0.102c-0.286-0.355,0.073-0.862,0.082-1.319
					c0.011-0.555-0.549-0.99-1.103-1.027c-0.553-0.037-1.082,0.223-1.554,0.514c-0.472,0.292-0.93,0.628-1.464,0.776
					c-0.344,0.095-0.77,0.081-0.987-0.201c-0.344-0.447,0.108-1.06,0.528-1.438c2.1-1.888,4.157-3.823,6.17-5.803
					c0.524-0.515,1.062-1.06,1.3-1.755s0.077-1.586-0.557-1.958c-0.719-0.422-1.626-0.018-2.346,0.403
					c-3.403,1.987-6.566,4.382-9.401,7.12c-0.437,0.422-0.888,0.866-1.466,1.051c-0.578,0.186-1.321,0.017-1.579-0.533
					c-0.227-0.484-0.011-1.047,0.15-1.557c0.161-0.51,0.228-1.157-0.184-1.498c-0.546-0.452-1.345,0.036-1.872,0.508
					c-0.649,0.582-1.299,1.164-1.948,1.746c1.567,6.037,5.916,13.248,14.286,21.304C20.67,117.994,21.698,116.97,22.659,115.884z"/>
				<path style="fill:#DA8265;" d="M44.452,105.698c-0.448-1.109-1.131-2.202-2.206-2.724c-1.076-0.522-2.598-0.241-3.117,0.836
					c-0.267,0.554-0.237,1.213-0.485,1.776c-0.248,0.563-1.032,0.987-1.464,0.549c-0.239-0.243-0.242-0.625-0.23-0.965
					c0.174-4.92,0.241-14.569,0.155-14.465c-9.426-20.765-37.217-13.922-31.8,6.953c0.649-0.582,1.299-1.164,1.948-1.746
					c0.528-0.473,1.327-0.96,1.872-0.508c0.412,0.341,0.345,0.988,0.184,1.498c-0.161,0.51-0.377,1.073-0.15,1.557
					c0.258,0.55,1.001,0.718,1.579,0.533c0.578-0.186,1.029-0.63,1.466-1.051c2.834-2.737,5.998-5.133,9.401-7.12
					c0.72-0.421,1.627-0.825,2.346-0.403c0.634,0.372,0.795,1.262,0.557,1.958s-0.776,1.24-1.3,1.755
					c-2.013,1.98-4.071,3.915-6.17,5.803c-0.42,0.378-0.872,0.99-0.528,1.438c0.218,0.283,0.643,0.297,0.987,0.201
					c0.535-0.148,0.993-0.484,1.464-0.776c0.472-0.292,1-0.551,1.554-0.514c0.553,0.037,1.113,0.472,1.103,1.027
					c-0.009,0.456-0.368,0.963-0.082,1.319c0.208,0.258,0.612,0.215,0.924,0.102c1.045-0.378,1.846-1.229,2.832-1.742
					c0.986-0.512,2.428-0.543,2.986,0.418c0.506,0.872-0.025,1.967-0.598,2.797c-1.52,2.202-3.406,4.15-5.557,5.742
					c-0.405,0.299-0.832,0.6-1.08,1.038c-0.248,0.438-0.256,1.059,0.126,1.387c0.49,0.42,1.281,0.145,1.855,0.438
					c0.534,0.273,0.721,0.982,0.576,1.564c-0.146,0.582-0.545,1.063-0.942,1.512c-0.961,1.085-1.989,2.11-3.068,3.078
					c3.75,3.61,8.299,7.387,13.778,11.307c0.087-0.029,0.169-0.06,0.256-0.089c0.982-4.512,1.964-9.024,2.945-13.535
					c0.115-0.527,0.237-1.07,0.552-1.508c0.315-0.437,0.879-0.743,1.396-0.592c0.541,0.158,0.837,0.726,1.265,1.092
					c0.742,0.633,1.892,0.611,2.745,0.138c0.853-0.473,1.444-1.314,1.856-2.197C45.528,111.129,45.463,108.203,44.452,105.698z"/>
			</g>
			<g>
				<path style="fill:#D66B54;" d="M72.326,97.021c-2.201,2.17-4.432,4.363-7.095,5.934c-0.539,0.318-1.369,0.543-1.678-0.002
					c-0.231-0.407,0.056-0.903,0.332-1.281c1.758-2.397,3.515-4.795,5.272-7.193c0.611-0.834,1.245-1.727,1.322-2.758
					c0.077-1.031-0.662-2.194-1.695-2.165c-0.863,0.024-1.478,0.797-2.124,1.369c-0.688,0.61-1.531,1.044-2.427,1.251
					c-0.28,0.064-0.595,0.101-0.835-0.055c-0.431-0.28-0.32-0.96-0.014-1.372c0.307-0.412,0.758-0.731,0.935-1.213
					c0.329-0.893-0.529-1.878-1.472-2.004c-0.943-0.126-1.86,0.354-2.632,0.912c-1.081,0.78-2.021,1.736-3.022,2.616
					c-0.782,0.688-1.906,1.36-2.792,0.812c0.118-3.454,4.43-5.695,4.449-9.151c-1.087,0.208-2.174,0.417-3.26,0.625
					c-0.195,0.037-0.409,0.072-0.583-0.022c-0.372-0.201-0.265-0.758-0.091-1.143c0.484-1.07,1.105-2.075,1.824-3.004
					c-3.347,1.781-6.922,4.728-10.576,9.094c-0.039,4.923-0.237,9.844-0.411,14.764c-0.012,0.34-0.009,0.723,0.23,0.965
					c0.432,0.438,1.216,0.014,1.464-0.549c0.248-0.563,0.218-1.222,0.485-1.776c0.519-1.077,2.041-1.358,3.117-0.836
					c1.076,0.522,1.758,1.615,2.206,2.724c1.012,2.505,1.076,5.431-0.067,7.879c-0.412,0.883-1.004,1.725-1.856,2.198
					c-0.853,0.473-2.003,0.495-2.745-0.138c-0.429-0.366-0.724-0.934-1.265-1.092c-0.517-0.151-1.081,0.155-1.396,0.592
					s-0.437,0.981-0.552,1.508c-0.982,4.512-1.964,9.023-2.946,13.535c25.205-8.44,34.562-23.982,34.646-35.705
					C75.492,93.9,73.909,95.461,72.326,97.021z"/>
				<path style="fill:#DA8265;" d="M55.008,83.324c0.175,0.094,0.388,0.06,0.583,0.022c1.087-0.208,2.174-0.417,3.26-0.625
					c-0.019,3.456-4.331,5.697-4.449,9.151c0.886,0.548,2.009-0.124,2.792-0.812c1.001-0.881,1.941-1.836,3.022-2.616
					c0.772-0.557,1.688-1.037,2.632-0.912c0.943,0.126,1.802,1.111,1.472,2.004c-0.178,0.482-0.629,0.801-0.935,1.213
					c-0.307,0.412-0.417,1.092,0.014,1.372c0.241,0.156,0.556,0.119,0.835,0.055c0.896-0.207,1.739-0.641,2.427-1.251
					c0.646-0.572,1.262-1.345,2.124-1.369c1.033-0.029,1.772,1.134,1.695,2.165c-0.077,1.031-0.711,1.924-1.322,2.758
					c-1.757,2.398-3.515,4.795-5.272,7.193c-0.276,0.377-0.563,0.874-0.332,1.281c0.309,0.545,1.139,0.321,1.678,0.002
					c2.662-1.571,4.893-3.764,7.095-5.934c1.583-1.56,3.165-3.12,4.748-4.68c0.083-11.498-8.755-19.323-20.334-13.163
					c-0.719,0.929-1.34,1.934-1.824,3.004C54.742,82.566,54.636,83.123,55.008,83.324z"/>
			</g>
		</g>
		<g style="clip-path:url(#SVGID_00000021111948120368156160000004123735090488642470_);">
			<path style="fill:#E1A98C;" d="M57.992,39.393c0.369-3.237,3.113-6.05,6.339-6.5c1.949-0.272,4.013,0.227,5.855-0.465
				c1.648-0.62,2.821-2.094,3.71-3.614c1.201-2.053,2.041-4.299,3.194-6.379c1.154-2.08,2.701-4.054,4.849-5.077
				c2.148-1.023,4.986-0.86,6.612,0.877c1.401,1.496,1.814,3.949,3.667,4.825c1.118,0.529,2.484,0.282,3.547-0.352
				c1.062-0.634,1.875-1.606,2.625-2.59c1.823-2.392,3.419-4.98,5.558-7.095c2.139-2.114,4.978-3.752,7.983-3.628
				c3.414,0.14,6.425,2.579,8.051,5.584c1.626,3.005,2.072,6.504,2.185,9.919c0.059,1.787,0.041,3.611,0.592,5.312
				c0.551,1.701,1.805,3.298,3.546,3.708c1.811,0.427,3.662-0.49,5.523-0.512c3.468-0.039,6.451,3.665,5.673,7.045"/>
			<g>
				<path style="fill:#C5D7D6;" d="M63.834,52.061c-0.267,0.664-0.477,1.375-0.408,2.088c0.069,0.713,0.466,1.43,1.126,1.709
					c0.626,0.265,1.369,0.09,1.935-0.287s0.986-0.931,1.382-1.482c2.027-2.82,3.773-5.995,4.318-9.466
					c0.28-1.785-0.622-1.396-1.744-0.544c-1.264,0.961-2.44,2.103-3.51,3.272C65.657,48.744,64.541,50.301,63.834,52.061z"/>
				<path style="fill:#C5D7D6;" d="M82.49,53.298c-0.386,0.605-0.778,1.222-0.968,1.914c-0.19,0.692-0.151,1.485,0.275,2.063
					c0.658,0.896,2.05,0.974,3.019,0.429s1.587-1.548,2.053-2.557c1.588-3.437,1.809-7.214,1.977-10.937
					c-0.712-0.176-0.992,0.352-1.254,0.901c-0.423,0.884-0.952,1.687-1.48,2.514C84.905,49.516,83.698,51.407,82.49,53.298z"/>
				<path style="fill:#C5D7D6;" d="M108.341,72.267c-0.386,0.605-0.778,1.222-0.968,1.914c-0.19,0.692-0.151,1.484,0.275,2.063
					c0.659,0.896,2.05,0.974,3.019,0.429c0.969-0.545,1.587-1.548,2.053-2.558c1.588-3.437,1.809-7.214,1.977-10.937
					c-0.712-0.177-0.992,0.352-1.254,0.901c-0.423,0.884-0.952,1.687-1.48,2.514C110.756,68.485,109.549,70.376,108.341,72.267z"/>
				<path style="fill:#C5D7D6;" d="M87.916,69.969c-0.386,0.605-0.778,1.222-0.968,1.915c-0.19,0.692-0.15,1.484,0.275,2.063
					c0.658,0.896,2.05,0.974,3.019,0.428c0.969-0.545,1.587-1.548,2.053-2.557c1.588-3.437,1.809-7.214,1.977-10.937
					c-0.712-0.177-0.992,0.352-1.254,0.901c-0.423,0.884-0.952,1.687-1.48,2.514C90.33,66.187,89.123,68.078,87.916,69.969z"/>
				<path style="fill:#C5D7D6;" d="M70.455,69.601c-0.292,0.457-0.587,0.923-0.731,1.445c-0.143,0.523-0.114,1.121,0.207,1.557
					c0.497,0.676,1.548,0.735,2.279,0.324c0.731-0.411,1.198-1.169,1.55-1.931c1.199-2.595,1.366-5.446,1.492-8.257
					c-0.538-0.133-0.749,0.265-0.947,0.68c-0.319,0.668-0.718,1.273-1.117,1.898C72.278,66.745,71.366,68.173,70.455,69.601z"/>
				<path style="fill:#C5D7D6;" d="M103.775,51.946c-0.526,0.727-1.066,1.486-1.228,2.368c-0.162,0.882,0.172,1.924,0.991,2.289
					c0.855,0.381,1.849-0.094,2.573-0.689c1.603-1.317,2.631-3.238,3.152-5.246c0.317-1.222,0.458-2.482,0.498-3.741
					c0.013-0.408,0.269-2.469-0.23-2.607c-0.649-0.18-2.914,3.696-3.226,4.127C105.462,49.613,104.618,50.779,103.775,51.946z"/>
				<path style="fill:#C5D7D6;" d="M122.029,52.969c-0.461,0.944-0.886,2.12-0.289,2.985c0.518,0.752,1.639,0.882,2.471,0.505
					c0.831-0.377,1.421-1.138,1.901-1.915c1.554-2.518,2.281-5.527,2.1-8.477c-0.061-0.982-0.111-2.356-1.228-1.293
					c-0.937,0.891-1.603,2.166-2.263,3.259C123.749,49.638,122.851,51.285,122.029,52.969z"/>
			</g>
		</g>
	</g>
	<g>
		<defs>
			<rect id="SVGID_00000181782501219027931170000009164578455964047249_" x="347.425" width="402.575" height="500"/>
		</defs>
		<clipPath id="SVGID_00000144310382367318900230000010298347895525539748_">
			<use xlink:href="#SVGID_00000181782501219027931170000009164578455964047249_"  style="overflow:visible;"/>
		</clipPath>
		<g style="clip-path:url(#SVGID_00000144310382367318900230000010298347895525539748_);">
			<path style="fill:#F1F1F1;" d="M456.282-11.789c-7.652,3.324-15.303,6.649-22.955,9.973c-2.246,0.976-4.68,2.129-5.702,4.356
				c-1.505,3.28,0.988,7.215,4.219,8.823c9.691,4.824,23.738-4.316,31.268,3.462c3.255,3.363,3.539,8.778,1.93,13.173
				s-4.779,8.011-7.881,11.516c-9.094,10.275-18.189,20.551-27.283,30.826c-2.754,3.112-5.593,6.376-6.681,10.387
				c-1.088,4.01,0.162,8.984,3.891,10.817c3.467,1.705,7.584,0.215,11.146-1.281c12.713-5.338,25.427-10.677,38.14-16.015
				c4.644-1.95,11.122-3.384,13.786,0.89c2.188,3.51-0.251,8.074-3.09,11.082c-2.839,3.008-6.371,6.026-6.634,10.154
				c-0.296,4.663,4.072,8.59,8.669,9.427c4.596,0.837,9.274-0.634,13.664-2.233c41.967-15.285,78.081-43.614,119.57-60.153
				c2.62-1.044,5.376-2.058,8.185-1.799c2.809,0.259,5.669,2.182,6.057,4.976c0.772,5.555-7.876,9.078-7.071,14.628
				c0.515,3.547,4.983,5.335,8.433,4.363c3.45-0.972,6.027-3.776,8.392-6.47c20.976-23.9,40.54-49.039,58.556-75.242"/>
			<path style="fill:#F1F1F1;" d="M760.587,164.839c-28.402,14.525-55.207,32.169-79.779,52.512
				c-4.316,3.573-8.987,9.196-6.261,14.091c3.702,6.65,16.135,2.704,19.9,9.318c2.517,4.423-1.027,9.736-4.378,13.566
				c-18.733,21.418-37.466,42.836-56.2,64.254c-2.853,3.262-5.796,6.691-6.862,10.891c-1.066,4.2,0.405,9.386,4.381,11.109
				c3.04,1.318,6.534,0.317,9.689-0.694c6.904-2.212,13.808-4.424,20.713-6.637c4.875-1.562,10.662-2.989,14.738,0.109
				c3.652,2.776,4.23,8.264,2.639,12.566c-1.591,4.302-4.863,7.726-7.952,11.117c-11.493,12.617-21.556,26.536-29.933,41.405
				c-1.461,2.594-2.917,5.572-2.086,8.431c1.341,4.611,7.382,5.65,12.172,5.297c10.225-0.753,20.116-3.871,29.808-7.216
				c36.514-12.603,71.799-28.762,105.194-48.175"/>
		</g>
		<g style="clip-path:url(#SVGID_00000144310382367318900230000010298347895525539748_);">
			<g>
				<path style="fill:#E1A98C;" d="M494.221,59.104c-5.312,3.425-12.38,2.844-17.928,5.872c-1.511,0.825-2.998,2.113-3.137,3.828
					c-0.162,1.985,1.583,3.661,3.445,4.368c3.767,1.431,8.137,0.079,11.3-2.416c3.164-2.495,5.365-5.981,7.503-9.396
					c-0.137-0.007-0.273-0.015-0.41-0.022"/>
				<path style="fill:#DA8265;" d="M505.765,58.188c0.913,3.365,1.843,6.775,3.597,9.789c1.754,3.014,4.458,5.636,7.83,6.522
					c1.404,0.369,2.999,0.397,4.203-0.415c1.047-0.705,1.637-1.959,1.757-3.215c0.12-1.256-0.182-2.519-0.622-3.701
					c-1.227-3.297-3.541-6.138-6.369-8.23c-2.828-2.092-6.153-3.458-9.585-4.228"/>
				<path style="fill:#E1A98C;" d="M669.999,187.919c-5.781-0.416-11.668,0.522-16.988,2.821
					c-5.32,2.298-10.059,5.964-13.529,10.606c-1.566,2.095-2.915,4.525-2.896,7.141c0.019,2.615,1.83,5.358,4.431,5.632
					c1.922,0.202,3.72-0.914,5.255-2.087c8.74-6.678,14.719-16.649,24.051-22.47"/>
				<path style="fill:#DA8265;" d="M671.777,191.061c-4.908,5.616-7.757,12.759-9.541,20.001c-0.791,3.212-1.393,6.492-1.402,9.799
					c-0.009,3.308,0.595,6.658,2.109,9.599c0.519,1.008,1.163,1.986,2.081,2.652c0.918,0.666,2.155,0.974,3.214,0.566
					c1.681-0.648,2.27-2.698,2.514-4.483c0.779-5.719,0.298-11.523,0.168-17.293c-0.129-5.77,0.123-11.686,2.266-17.045"/>
				<path style="fill:#E1A98C;" d="M660.28,338.44c3.412-3.471,6.867-7,9.221-11.26c2.354-4.26,3.509-9.419,2.02-14.053
					c-0.614-1.911-1.858-3.834-3.802-4.334c-1.531-0.394-3.196,0.212-4.373,1.267c-1.178,1.055-1.931,2.503-2.491,3.982
					c-2.889,7.632-1.146,16.349-3.632,24.121"/>
				<path style="fill:#E1A98C;" d="M662.224,364.122c-1.366-0.659-2.804-1.234-4.317-1.352c-1.512-0.118-3.121,0.275-4.208,1.333
					c-1.32,1.285-1.645,3.393-1.031,5.13c0.614,1.737,2.047,3.104,3.697,3.923c1.65,0.819,3.507,1.137,5.346,1.243
					c1.839,0.106,3.684,0.01,5.526,0.051c1.069,0.024,2.146,0.093,3.202-0.077c0.747-0.12,2.544-0.568,2.721-1.496
					c0.153-0.805-1.468-2.002-1.998-2.515c-1.668-1.613-3.499-3.056-5.457-4.302C664.584,365.348,663.421,364.7,662.224,364.122z"/>
				<path style="fill:#E1A98C;" d="M683.936,384.008c2.45-3.189,5.686-5.851,9.475-7.197c0.876-0.311,1.795-0.553,2.724-0.516
					c0.929,0.038,1.877,0.386,2.482,1.092c0.738,0.862,0.854,2.129,0.555,3.223c-0.299,1.095-0.956,2.054-1.64,2.96
					c-2.261,2.996-4.949,5.693-8.072,7.775c-1.279,0.852-2.629,1.598-4.036,2.216c-1.269,0.557-2.95,1.388-4.362,1.385
					c-3.598-0.007-0.757-4.923-0.021-6.345C681.875,386.993,682.831,385.445,683.936,384.008z"/>
				<path style="fill:#DA8265;" d="M691.165,408.171c-1.634-0.832-3.349-1.506-5.113-2.009c-2.605-0.743-5.343-1.113-8.035-0.81
					c-2.692,0.303-5.34,1.305-7.393,3.074c-0.883,0.76-1.665,1.684-2.035,2.789c-0.37,1.105-0.269,2.412,0.465,3.317
					c0.555,0.685,1.396,1.072,2.233,1.349c3.616,1.196,7.622,0.727,11.192-0.597c3.57-1.325,6.779-3.455,9.904-5.632"/>
				<path style="fill:#E1A98C;" d="M669.614,475.356c-4.491-1.448-8.623-3.992-11.94-7.348c-1.831-1.853-3.445-4.008-4.187-6.506
					c-0.323-1.089-0.469-2.287-0.059-3.346c0.583-1.506,2.22-2.425,3.833-2.509c1.612-0.084,3.188,0.541,4.568,1.378
					c3.089,1.875,5.422,4.823,7.056,8.046s2.619,6.732,3.477,10.242"/>
				<path style="fill:#DA8265;" d="M683.938,475.824c-3.829,1.565-7.381,3.803-10.445,6.583c-0.976,0.885-1.91,1.834-2.615,2.947
					c-0.705,1.113-1.172,2.406-1.145,3.724c0.022,1.022,0.391,2.097,1.222,2.692c0.851,0.609,1.995,0.597,3.027,0.426
					c3.904-0.647,7.293-3.204,9.712-6.336c2.419-3.132,3.99-6.825,5.447-10.504"/>
				<path style="fill:#DA8265;" d="M716.141,473.049c-3.135-1.242-6.292-2.496-9.132-4.313c-2.841-1.817-5.377-4.255-6.771-7.326
					c-0.625-1.375-1.01-2.944-0.596-4.397c0.557-1.953,2.505-3.287,4.514-3.58c2.009-0.292,4.053,0.298,5.891,1.161
					c3.752,1.762,6.895,4.651,9.412,7.944s3.657,5.863,5.434,9.608"/>
				<path style="fill:#E1A98C;" d="M739.051,469.206c-3.282,3.106-5.727,7.087-7.013,11.419c-0.319,1.073-0.567,2.223-0.268,3.302
					c0.456,1.647,2.186,2.751,3.896,2.767s3.333-0.908,4.463-2.19c1.13-1.282,1.821-2.893,2.325-4.527
					c1.254-4.07,1.44-8.413,1.03-12.652"/>
			</g>
			<path style="fill:none;stroke:#000000;stroke-linecap:round;stroke-linejoin:round;stroke-miterlimit:10;" d="M455.129-6.914
				c13.702,2.359,26.59,9.345,35.932,19.643c9.342,10.297,15.056,23.855,15.752,37.741c0.121,2.42,0.088,4.894-0.67,7.196
				c-0.758,2.302-2.336,4.432-4.576,5.357c-4.894,2.023-9.248-2.529-6.691-7.192c4.23-6.579,13.319-6.283,20.58-6.793
				c16.037-1.388,88.418-18.996,73.262-37.844c-2.936-3.651-8.67-3.279-10.907,0.838c-1.846,27.738,43.337,39.827,63.458,52.361
				c67.461,23.255,93.246,118.269-0.583,116.764c-11.714-5.342-0.222-17.304,8.949-12.601c15.832,4.949,22.183,23.274,31.56,36.957
				c16.78,24.816,62.406,44.804,86.941,22.124c3.517-8.191-4.94-13.786-12.645-7.921c-11.154,6.846-19.812,17.702-24.43,29.72
				c-18.133,34.424-39.749,83.74-77.908,98.306c-5.809,2.625-13.821-0.577-10.196-7.466c2.695-5.036,10.484-6.071,15.237-2.823
				c17.436,13.474,11.242,41.131,22.382,58.533c9.93,16.073,29.772,25.777,48.533,23.422c7.589-2.061,13.629-6.398,21.907-6.721
				c26.114-0.978,29.76,27.366,12.026,41.991c-26.609,24.508-65.916,19.035-99.35,21.517c-33.032,0.44-75.548,23.649-66.717,61.582"
				/>
			<g>
				<path style="fill:#EAAB39;" d="M642.102,162.42c-1.186-1.744-3.518-2.701-5.532-2.074c-1.809,0.563-3.098,2.237-3.695,4.035
					c-0.597,1.798-0.612,3.73-0.621,5.624c-1.136-2.139-2.348-4.366-4.572-5.507c-1.021-0.524-2.215-0.722-3.325-0.429
					c-2.709,0.715-3.228,3.542-2.578,5.776c0.836,2.876,3.448,5.153,6.412,5.588c-2.33-0.354-4.888,0.433-6.347,2.283
					c-1.459,1.85-1.544,4.766,0.061,6.491c1.331,1.432,3.574,1.822,5.414,1.162c1.84-0.66,3.262-2.245,3.987-4.06
					c-0.304,2.426,0.46,5.034,2.257,6.693c2.47,2.282,6.937,2.424,8.819-1.05c0.523-0.965,0.722-2.107,0.476-3.177
					c-0.567-2.462-2.885-3.585-5.028-4.507c3.204,0.561,6.644-0.437,9.051-2.625c1.385-1.259,2.499-3.301,1.169-4.966
					c-0.528-0.661-1.339-1.051-2.175-1.177c-2.228-0.336-3.854,0.389-5.621,1.178c0.752-1.486,2.112-2.379,2.59-4.107
					C643.318,165.854,643.117,163.912,642.102,162.42z"/>
				<path style="fill:#E06F42;" d="M631.676,172.936c-0.877,0.641-1.42,1.706-1.461,2.792c-0.032,0.852,0.268,1.76,0.957,2.264
					c0.563,0.412,1.314,0.502,2.001,0.377c1.856-0.337,3.38-2.378,3.132-4.292C636.036,172.008,632.99,171.975,631.676,172.936z"/>
			</g>
			<g>
				<path style="fill:#EAAB39;" d="M635.35,333.517c-2.101,0.19-4.069,1.764-4.499,3.829c-0.386,1.855,0.452,3.794,1.733,5.19
					c1.282,1.395,2.963,2.346,4.615,3.274c-2.421-0.045-4.957-0.067-7.034,1.323c-0.954,0.638-1.707,1.586-1.99,2.699
					c-0.69,2.715,1.53,4.542,3.798,5.058c2.92,0.665,6.179-0.513,7.998-2.892c-1.44,1.865-1.995,4.484-1.086,6.658
					c0.909,2.174,3.417,3.664,5.704,3.099c1.898-0.469,3.328-2.24,3.644-4.169c0.316-1.929-0.379-3.941-1.613-5.457
					c1.974,1.444,4.624,2.041,6.947,1.277c3.194-1.051,5.487-4.887,3.364-8.22c-0.59-0.926-1.491-1.654-2.546-1.958
					c-2.427-0.7-4.535,0.781-6.381,2.207c2.046-2.529,2.844-6.02,2.1-9.186c-0.428-1.823-1.672-3.787-3.773-3.433
					c-0.834,0.14-1.569,0.66-2.085,1.33c-1.375,1.784-1.531,3.559-1.699,5.486c-0.934-1.379-1.055-3.002-2.333-4.258
					C638.942,334.121,637.146,333.354,635.35,333.517z"/>
				<path style="fill:#E06F42;" d="M639.481,347.737c0.134,1.078,0.802,2.069,1.732,2.632c0.729,0.442,1.669,0.62,2.443,0.262
					c0.634-0.293,1.077-0.905,1.301-1.566c0.606-1.786-0.438-4.11-2.232-4.822C640.786,343.475,639.28,346.122,639.481,347.737z"/>
			</g>
			<g>
				<path style="fill:#EAAB39;" d="M700.427,407.115c-1.895,0.926-3.174,3.098-2.84,5.181c0.3,1.871,1.774,3.385,3.468,4.232
					c1.695,0.847,3.605,1.137,5.479,1.415c-2.279,0.82-4.656,1.703-6.102,3.742c-0.664,0.936-1.03,2.09-0.898,3.23
					c0.322,2.783,3.047,3.699,5.351,3.373c2.966-0.419,5.591-2.68,6.443-5.552c-0.682,2.255-0.267,4.9,1.357,6.608
					c1.624,1.707,4.498,2.206,6.434,0.863c1.606-1.114,2.312-3.279,1.92-5.194c-0.392-1.915-1.758-3.548-3.451-4.524
					c2.359,0.646,5.048,0.26,6.946-1.282c2.61-2.12,3.387-6.521,0.215-8.879c-0.881-0.655-1.983-1.014-3.077-0.923
					c-2.517,0.211-3.959,2.345-5.176,4.335c1.011-3.091,0.513-6.638-1.31-9.332c-1.05-1.551-2.912-2.943-4.749-1.864
					c-0.729,0.428-1.231,1.175-1.474,1.985c-0.65,2.157-0.163,3.871,0.366,5.731c-1.364-0.956-2.055-2.429-3.697-3.148
					C703.999,406.399,702.048,406.322,700.427,407.115z"/>
				<path style="fill:#E06F42;" d="M709.353,418.931c0.51,0.96,1.487,1.648,2.556,1.843c0.839,0.153,1.78-0.015,2.377-0.625
					c0.488-0.499,0.684-1.23,0.658-1.927c-0.07-1.885-1.873-3.684-3.803-3.71C709.054,414.483,708.589,417.493,709.353,418.931z"/>
			</g>
			<g>
				<path style="fill:#EAAB39;" d="M638.224,463.402c-2.026-0.588-4.432,0.16-5.585,1.927c-1.035,1.586-0.962,3.698-0.277,5.464
					c0.685,1.766,1.905,3.264,3.105,4.73c-2.238-0.924-4.592-1.868-7.033-1.331c-1.121,0.247-2.168,0.855-2.836,1.788
					c-1.632,2.277-0.23,4.787,1.694,6.094c2.477,1.684,5.941,1.773,8.502,0.221c-2.021,1.212-3.491,3.449-3.437,5.804
					c0.054,2.356,1.847,4.657,4.183,4.964c1.938,0.255,3.915-0.874,4.913-2.555c0.997-1.681,1.083-3.808,0.486-5.67
					c1.312,2.064,3.562,3.586,6.004,3.72c3.357,0.185,6.891-2.552,6.128-6.429c-0.212-1.077-0.786-2.084-1.658-2.751
					c-2.005-1.536-4.508-0.925-6.746-0.27c2.826-1.609,4.842-4.57,5.302-7.79c0.265-1.854-0.178-4.136-2.263-4.572
					c-0.828-0.173-1.701,0.043-2.426,0.479c-1.931,1.16-2.722,2.756-3.581,4.489c-0.367-1.625,0.112-3.18-0.621-4.816
					C641.349,465.273,639.956,463.905,638.224,463.402z"/>
				<path style="fill:#E06F42;" d="M636.889,478.15c-0.268,1.053-0.007,2.219,0.654,3.082c0.518,0.677,1.328,1.185,2.18,1.135
					c0.697-0.042,1.333-0.451,1.782-0.985c1.215-1.442,1.09-3.987-0.322-5.303C639.658,474.656,637.29,476.572,636.889,478.15z"/>
			</g>
		</g>
		<g style="clip-path:url(#SVGID_00000144310382367318900230000010298347895525539748_);">
			<path style="fill:#D66B54;" d="M641.526,126.235c6.436,12.35,12.969,24.84,22.466,35.344c1.294,1.431,2.69,2.857,4.504,3.669
				c1.814,0.812,4.153,0.881,5.724-0.299c1.899-1.426,2.048-4.113,1.328-6.272c-0.72-2.159-2.115-4.082-2.816-6.247
				c-2.41-7.446,3.858-15.245,2.739-22.955c-0.917-6.318-7.173-11.399-14.009-12.016c-6.836-0.617-13.75,2.892-17.508,8.247"/>
			<path style="fill:#DA8265;" d="M628.24,102.04c2.35,19.626,9.655,29.075,31.586,29.236c17.562,8.518,16.917,21.84,45.159,21.423
				c10.76-0.403,21.182-4.063,30.39-9.281c47.698-39.488-47.879-12.859-76.939-52.462c0.836,1.3-13.754,7.854-15.22,8.362
				C638.223,101.047,633.056,100.279,628.24,102.04z"/>
			<g>
				<path style="fill:#E1A98C;" d="M616.529,20.425c-17.674-2.962-35.92,8.948-38.943,25.404
					c-39.109,13.466-22.998,67.865,18.584,55.735c17.442,5.026,38.91,13.032,53.896-1.995c2.024,16.652,23.508,26.623,39.136,18.169
					c2.63,16.462,28.034,20.505,36.555,5.827c15.044,16.719,49.666,6.649,35.182-16.915c15.443-0.357,23.398-21.238,10.54-29.941
					c13.221-15.24,1.712-40.898-20.127-40.391c-0.086-17.758-23.911-28.416-39.003-17.456c-6.594-17.736-34.07-21.532-46.084-6.374
					c-13.945-11.611-37.961-7.075-46.027,8.689C619.017,20.86,617.779,20.61,616.529,20.425z"/>
				<g>
					<path style="fill:#DA8265;" d="M648.663,100.961c1.255-2.127,1.634-4.901,0.17-6.899c-1.597-2.181-4.739-2.753-7.559-3.102
						c-2.82-0.349-5.951-0.809-7.694-2.892c-0.708-0.846-0.952-2.327,0.086-2.805c0.572-0.263,1.253-0.069,1.854,0.128
						c2.44,0.802,4.881,1.604,7.321,2.407c1.73,0.569,3.346,1.106,5.085,1.46c1.209,0.246,2.493,2.747,3.804,2.058
						c0.328-0.173,0.504-0.512,0.662-0.829c2.601-5.204,6.012-10.061,10.095-14.371c2.36-2.491,5.177-4.916,8.696-5.468
						c0.816-0.128,1.766-0.108,2.32,0.461c0.699,0.717,0.365,1.879-0.205,2.693c-1.324,1.891-3.569,3.007-5.59,4.257
						c-3.908,2.418-7.261,5.608-9.77,9.293c0.009-0.014,3.21-0.624,3.571-0.734c1.059-0.326,2.023-0.634,3.033-1.098
						c2.706-1.245,5.454-2.463,8.418-3.069c3.307-0.676,6.936-0.527,9.835,1.081c0.681,0.377,1.357,0.89,1.528,1.61
						c0.264,1.11-0.85,2.169-2.046,2.421c-1.196,0.252-2.431-0.057-3.632-0.281c-6.066-1.133-12.597-0.006-17.837,3.078
						c-5.24,3.084-9.132,8.091-10.631,13.675"/>
					<path style="fill:#DA8265;" d="M665.908,12.69c-15.197-1.929-35.691,8.813-36.336,15.975
						c-4.514-3.127-33.192,4.857-31.799,19.441c5.285,20.487,49.961,20.108,43.837,25.27c-2.962,2.496-37.375-7.532-46.443-21.78
						c-9.131,11.223-10.104,27.89-1.18,39.408c1.246,1.258,2.437,4.014,0.091,4.772c-14.266-8.236-15.492-40.298,0.285-48.458
						c-0.237-14.655,27.46-24.309,33.116-21.846C629.872,16.717,651.043,7.275,665.908,12.69z"/>
					<path style="fill:#DA8265;" d="M602.63,56.78c1.203,1.492,3.335,2.118,5.346,2.109c2.935-0.013,5.802-1.214,7.944-3.085
						c2.143-1.87,3.586-4.371,4.335-7.009c0.227-0.798,0.402-1.632,0.894-2.321c0.491-0.689,1.407-1.202,2.26-0.977
						c0.966,0.255,1.416,1.3,1.477,2.232c0.143,2.205-1.106,4.282-2.512,6.071c-1.632,2.075-3.561,3.99-5.917,5.339
						c-2.355,1.349-5.171,2.1-7.907,1.762"/>
					<path style="fill:#DA8265;" d="M638.455,70.948c0.292,3.383,2.145,6.8,5.394,8.346c0.678,0.323,1.43,0.563,2.191,0.513
						c0.762-0.05,1.532-0.441,1.838-1.092c0.351-0.746,0.019-1.634-0.536-2.26c-0.555-0.626-1.306-1.071-1.965-1.604
						c-2.745-2.217-3.715-6.131-2.293-9.253c0.631-1.386,2.038-3.198,1.018-4.724c-0.771-1.155-1.94-0.638-2.807,0.149
						C638.734,63.345,638.185,67.826,638.455,70.948z"/>
					<path style="fill:#DA8265;" d="M701.584,28.723c-4.836,1.986-10.258,2.472-15.523,2.12c-2.24-0.15-4.52-0.444-6.709,0.033
						c-0.915,0.2-1.908,0.64-2.163,1.481c-0.224,0.738,0.237,1.536,0.904,1.983c0.668,0.447,1.501,0.615,2.313,0.749
						c6.836,1.126,14.13,0.488,20.303-2.496c6.172-2.984,11.08-8.453,12.372-14.796c-0.09,0.44-0.739,1.099-0.976,1.512
						c-0.315,0.549-0.567,1.123-0.905,1.664c-0.725,1.157-1.605,2.228-2.597,3.199C706.625,26.107,704.206,27.646,701.584,28.723z"
						/>
					<path style="fill:#DA8265;" d="M675.004,38.795c0.936-1.475,1.166-3.253,1.071-4.959c-0.095-1.707-0.491-3.384-0.718-5.079
						c-0.145-1.081-0.211-2.227,0.29-3.215c0.501-0.988,1.745-1.732,2.856-1.384c1.041,0.326,1.54,1.405,1.846,2.385
						c0.982,3.145,1.22,6.573,0.082,9.681c-1.137,3.108-3.791,5.833-7.2,6.701c-1.138,0.29-4.06,0.052-2.242-1.315
						C672.413,40.54,673.979,40.409,675.004,38.795z"/>
					<path style="fill:#DA8265;" d="M698.852,102.105c0.507-2.049,0.963-4.409,2.896-5.509c1.382,1.227,1.232,3.301,0.8,5.036
						c-1.014,4.075-3.035,7.936-5.861,11.199c2.725-2.388,5.69-4.539,8.843-6.418c1.078-0.643,2.238-1.271,3.516-1.329
						c1.277-0.059,2.683,0.65,2.907,1.818c0.246,1.284-0.938,2.395-2.045,3.204c-5.2,3.799-11.159,6.693-17.471,8.516
						c-0.63,0.182-4.019,1.456-4.526,1.047c-0.817-0.659,0.959-1.902,1.366-2.263c2.241-1.986,4.21-4.183,5.805-6.654
						C696.812,108.073,698.099,105.147,698.852,102.105z"/>
					<path style="fill:#DA8265;" d="M737.609,98.666c-0.782-0.831-1.826-1.813-2.958-1.462c-0.692,0.215-1.117,0.907-1.163,1.583
						c-0.046,0.676,0.219,1.335,0.539,1.942c1.429,2.712,4.026,4.796,6.956,6.105c2.93,1.309,6.185,1.893,9.431,2.128
						c2.464,0.178,5.037,0.127,7.408-0.599c0.483-0.148,3.127-0.986,3.046-1.586c-0.089-0.667-2.634-0.16-3.129-0.142
						c-4.817,0.167-9.664-0.978-13.833-3.199C741.547,102.178,739.4,100.571,737.609,98.666z"/>
					<path style="fill:#DA8265;" d="M742.57,104.664c2.565-0.02,4.885-1.731,6.012-3.874c1.127-2.144,1.221-4.639,0.86-6.996
						c-0.361-2.356-1.147-4.635-1.711-6.956c-0.236-0.971-0.43-2.001-0.098-2.949s1.365-1.761,2.416-1.562
						c0.954,0.18,1.534,1.064,1.926,1.891c2.492,5.255,1.892,11.682-1.537,16.483c-1.43,2.002-3.344,3.795-4.035,6.108"/>
					<path style="fill:#DA8265;" d="M744.483,49.968c-0.262,3.741,0.569,7.552-0.293,11.217c-0.136,0.579-0.323,1.167-0.717,1.634
						c-0.394,0.467-1.039,0.793-1.666,0.688c-1.042-0.174-1.474-1.322-1.655-2.291c-0.582-3.11-0.618-6.31-0.105-9.435
						c0.138-0.837,0.304-1.741-0.113-2.492c-0.423-0.762-1.368-1.172-2.29-1.241c-0.921-0.069-1.837,0.148-2.736,0.352
						c-6.206,1.409-12.545,2.307-18.917,2.68c-3.268,0.191-6.845,0.156-9.396-1.738c-0.477-0.354-0.917-0.785-1.115-1.321
						c-0.198-0.537-0.104-1.197,0.354-1.576c0.675-0.558,1.719-0.291,2.576-0.03c2.516,0.766,5.147,1.211,7.795,1.319
						c3.808,0.154,7.618-0.387,11.33-1.206c2.877-0.636,5.709-1.439,8.538-2.241c1.65-0.468,3.317-0.943,4.807-1.753
						c3.824-2.079,6.132-6.167,10.179-7.841c-0.054,0.021,0.124,1.646,0.013,1.883c-0.22,0.474-1.027,0.986-1.394,1.393
						c-1.009,1.122-1.889,2.344-2.624,3.636C745.582,44.187,744.686,47.054,744.483,49.968z"/>
					<path style="fill:#DA8265;" d="M700.285,80.739c4.264-1.582,7.915-4.56,10.156-8.282c0.145-0.241,0.289-0.506,0.244-0.778
						c-0.07-0.424-0.546-0.662-0.961-0.849c-4.567-2.051-8.294-5.659-10.31-9.982c-0.268-0.576-0.441-1.379,0.127-1.722
						c0.491-0.296,1.132,0.015,1.6,0.34c3.823,2.652,6.617,6.575,10.885,8.56c3.377,1.571,7.284,1.741,10.977,2.492
						c3.589,0.73,7.08,2.056,9.94,4.191c2.861,2.134,5.057,5.119,5.766,8.466c-6.98-5.577-15.886-9.048-25.078-9.773
						c-2.076,2.39-4.5,4.521-7.184,6.314c-2.263,1.512-4.773,2.806-7.519,3.234c-0.342,0.053-0.704,0.091-1.026-0.027
						c-0.322-0.118-0.581-0.441-0.492-0.753c0.089-0.311,0.623-0.443,0.795-0.164"/>
				</g>
			</g>
		</g>
		<g style="clip-path:url(#SVGID_00000144310382367318900230000010298347895525539748_);">
			<g>
				<path style="fill:#EAAB39;" d="M557.558,48.124c-1.197-0.106-2.373,0.303-3.496,0.732c-1.122,0.428-2.269,0.888-3.471,0.888
					c-0.545,0-1.133-0.12-1.499-0.524c-0.62-0.686-0.282-1.829,0.371-2.483c0.653-0.654,1.541-1.02,2.25-1.613
					c1.088-0.909,1.701-2.429,1.341-3.8c-0.36-1.371-1.792-2.436-3.19-2.198c-1.265,0.215-2.737,1.29-3.618,0.357
					c-0.466-0.493-0.377-1.323,0.012-1.879c0.389-0.556,1.001-0.905,1.589-1.244c4.614-2.66,8.951-5.8,12.918-9.353
					c1.095-0.981,2.196-2.043,2.717-3.418c0.521-1.375,0.287-3.146-0.916-3.992c-1.614-1.135-3.811-0.096-5.488,0.944
					c-3.572,2.215-7.144,4.431-10.716,6.646c-0.709,0.44-1.452,0.891-2.282,0.969c-0.831,0.078-1.772-0.345-2-1.147
					c-0.304-1.068,0.737-2.108,0.642-3.214c-0.091-1.055-1.233-1.763-2.291-1.761c-1.059,0.002-2.039,0.521-2.969,1.027
					c-3.695,2.007-7.389,4.015-11.084,6.022c-1.154,0.627-2.749,1.193-3.63,0.22c-0.92-1.015-0.089-2.609,0.762-3.681
					c3.859-4.864,8.099-9.426,12.667-13.631c2.791-2.569,5.762-5.076,7.614-8.386c0.486-0.869,0.882-1.977,0.351-2.82
					c-0.59-0.937-2.012-0.95-2.982-0.416c-0.971,0.533-1.665,1.447-2.517,2.154c-0.803,0.667-2.132,1.093-2.793,0.286
					c-0.743-0.908,0.189-2.203,1.063-2.986c2.294-2.056,4.588-4.112,6.882-6.168c-2.141-0.15-4.328-0.082-6.539,0.235
					c-16.79,2.412-28.446,17.978-26.034,34.768c2.412,16.79,17.978,28.446,34.768,26.034c5.126-0.736,9.77-2.704,13.685-5.553
					C559.148,48.56,558.351,48.195,557.558,48.124z"/>
				<path style="fill:#EDBC5B;" d="M572.023,19.922c-2.094-14.58-14.109-25.282-28.229-26.269c-2.294,2.056-4.588,4.112-6.882,6.168
					c-0.874,0.783-1.806,2.078-1.063,2.986c0.661,0.808,1.99,0.382,2.793-0.286c0.852-0.708,1.546-1.621,2.517-2.154
					c0.971-0.533,2.392-0.521,2.982,0.416c0.531,0.843,0.136,1.95-0.351,2.82c-1.852,3.31-4.823,5.817-7.614,8.386
					c-4.568,4.205-8.808,8.767-12.667,13.631c-0.851,1.073-1.682,2.667-0.762,3.681c0.882,0.973,2.477,0.407,3.63-0.22
					c3.695-2.007,7.389-4.015,11.084-6.022c0.93-0.506,1.911-1.024,2.969-1.027c1.059-0.002,2.2,0.706,2.291,1.761
					c0.096,1.106-0.945,2.147-0.642,3.214c0.228,0.802,1.17,1.225,2,1.147c0.831-0.077,1.573-0.529,2.282-0.969
					c3.572-2.215,7.144-4.431,10.716-6.646c1.677-1.04,3.874-2.08,5.488-0.944c1.202,0.846,1.437,2.617,0.916,3.992
					c-0.521,1.375-1.622,2.437-2.717,3.418c-3.967,3.554-8.304,6.694-12.918,9.353c-0.588,0.339-1.2,0.688-1.589,1.244
					c-0.389,0.556-0.478,1.386-0.012,1.879c0.881,0.933,2.353-0.143,3.618-0.357c1.398-0.237,2.831,0.827,3.19,2.198
					c0.36,1.371-0.252,2.891-1.341,3.8c-0.71,0.592-1.597,0.959-2.25,1.613c-0.653,0.654-0.992,1.798-0.371,2.483
					c0.366,0.405,0.954,0.524,1.499,0.524c1.201,0,2.348-0.459,3.471-0.888c1.122-0.428,2.299-0.838,3.496-0.732
					c0.793,0.071,1.59,0.436,2.115,1.013C568.581,42.654,573.698,31.586,572.023,19.922z"/>
			</g>
			<g>
				<path d="M558.706,29.66c-2.616,14.212-20.528,11.816-30.427,7.071c2.456,4.532,6.705,8.207,11.767,9.184
					c5.062,0.976,10.641-0.725,14.043-4.597C556.946,38.065,557.883,33.91,558.706,29.66z"/>
				<path d="M549.605,11.554c1.616-0.395,3.379,0.152,4.647,1.229c0.387,0.329,0.905,0.729,1.339,0.466
					c0.358-0.217,0.358-0.743,0.221-1.139c-0.495-1.431-2.073-2.2-3.569-2.43c-1.51-0.233-3.133-0.048-4.41,0.79
					c-0.73,0.479-1.319,1.19-1.64,2.003c-0.121,0.307-0.601,2.385,0.05,2.414c0.252,0.011,0.974-1.761,1.213-2.03
					C548.02,12.224,548.779,11.756,549.605,11.554z"/>
				<path d="M530.719,14.267c-1.662,0.076-3.2,1.097-4.113,2.487c-0.279,0.425-0.663,0.955-1.154,0.824
					c-0.405-0.108-0.552-0.612-0.532-1.031c0.073-1.512,1.37-2.694,2.741-3.337c1.383-0.648,2.992-0.928,4.454-0.483
					c0.835,0.254,1.6,0.771,2.138,1.46c0.203,0.26,1.248,2.119,0.632,2.33c-0.239,0.082-1.43-1.416-1.735-1.606
					C532.429,14.463,531.569,14.228,530.719,14.267z"/>
				<path d="M551.071,20.046c3.146,1.08,1.293-5.556-0.933-4.004C548.693,17.128,549.676,19.462,551.071,20.046z"/>
				<path d="M532.618,22.369c-2.715,1.921-2.805-4.967-0.232-4.105C534.078,18.901,533.792,21.416,532.618,22.369z"/>
			</g>
		</g>
		<g style="clip-path:url(#SVGID_00000144310382367318900230000010298347895525539748_);">
			<g>
				<path style="fill:#EAAB39;" d="M759.687,196.482l-69.395-10.841l-2.866,18.347c0.669-0.233,1.339-0.467,2.008-0.7
					c0.591-0.206,1.319-0.388,1.785,0.029c0.588,0.527,0.242,1.491-0.164,2.167c-0.406,0.676-0.829,1.578-0.326,2.186
					c0.454,0.548,1.315,0.41,2,0.219c4.656-1.297,9.27-2.742,13.834-4.331c2.103-0.732,4.229-1.503,6.45-1.651
					c0.546-0.036,1.144-0.018,1.565,0.33c0.653,0.54,0.53,1.641-0.029,2.278c-0.559,0.637-1.404,0.928-2.209,1.193
					c-4.745,1.561-9.489,3.121-14.234,4.682c-0.528,0.173-1.078,0.361-1.46,0.765c-0.382,0.403-0.522,1.094-0.153,1.509
					c0.378,0.425,1.047,0.363,1.608,0.267c1.38-0.237,2.76-0.475,4.14-0.712c0.592-0.102,1.248-0.192,1.755,0.13
					c0.708,0.45,0.756,1.53,0.326,2.251c-0.43,0.721-1.191,1.167-1.921,1.583c-6.177,3.522-12.354,7.045-18.532,10.567
					l-9.228,59.067l11.221,1.753c2.086-1.61,4.508-2.785,7.068-3.413c0.503-0.123,1.102-0.203,1.481,0.151
					c0.299,0.28,0.345,0.728,0.484,1.113c0.582,1.611,2.734,1.978,4.411,1.632c3.575-0.738,6.407-3.36,9.189-5.723
					c4.251-3.61,8.822-6.844,13.642-9.651c0.54-0.315,1.101-0.63,1.721-0.708c0.62-0.078,1.319,0.139,1.634,0.679
					c0.476,0.817-0.116,1.826-0.711,2.56c-1.94,2.396-4.156,4.567-6.592,6.457c-0.578,0.448-1.225,1.234-0.763,1.8
					c0.187,0.229,0.502,0.311,0.797,0.323c0.822,0.034,1.593-0.358,2.324-0.734c0.731-0.376,1.512-0.757,2.332-0.697
					c0.82,0.06,1.652,0.746,1.557,1.563c-0.074,0.635-0.663,1.151-0.63,1.789c0.029,0.557,0.55,0.987,1.096,1.103
					c0.546,0.115,1.11-0.012,1.653-0.139c1.729-0.403,3.458-0.806,5.187-1.21c1.384-0.323,3.075-0.556,4.017,0.508
					c0.676,0.765,0.657,1.957,0.228,2.883c-0.43,0.926-1.194,1.646-1.941,2.341c-1.501,1.398-3.002,2.797-4.503,4.195l14.491,2.264
					L759.687,196.482z"/>
				<path style="fill:#EDBC5B;" d="M704.322,214.599c0.43-0.721,0.382-1.8-0.326-2.251c-0.507-0.322-1.163-0.232-1.755-0.13
					c-1.38,0.237-2.76,0.475-4.14,0.712c-0.56,0.096-1.229,0.158-1.608-0.267c-0.369-0.415-0.229-1.105,0.153-1.509
					c0.382-0.403,0.932-0.591,1.46-0.765c4.745-1.561,9.489-3.121,14.234-4.682c0.805-0.265,1.651-0.555,2.209-1.193
					c0.559-0.637,0.682-1.738,0.029-2.278c-0.421-0.348-1.02-0.367-1.565-0.33c-2.222,0.148-4.347,0.919-6.45,1.651
					c-4.564,1.59-9.178,3.035-13.834,4.331c-0.685,0.191-1.546,0.329-2-0.219c-0.504-0.607-0.081-1.509,0.326-2.186
					c0.406-0.676,0.752-1.641,0.164-2.167c-0.466-0.418-1.193-0.236-1.785-0.029c-0.669,0.233-1.339,0.467-2.008,0.7l-3.556,22.761
					c6.177-3.522,12.354-7.045,18.532-10.567C703.131,215.766,703.892,215.32,704.322,214.599z"/>
				<path style="fill:#EDBC5B;" d="M735.99,287.857c0.43-0.926,0.448-2.118-0.228-2.883c-0.942-1.065-2.633-0.831-4.017-0.508
					c-1.729,0.403-3.458,0.807-5.187,1.21c-0.543,0.127-1.107,0.254-1.653,0.139c-0.546-0.115-1.067-0.546-1.096-1.103
					c-0.033-0.638,0.556-1.155,0.63-1.789c0.095-0.817-0.737-1.503-1.557-1.563c-0.82-0.06-1.601,0.32-2.332,0.697
					c-0.731,0.376-1.503,0.768-2.324,0.734c-0.296-0.012-0.611-0.094-0.797-0.323c-0.463-0.567,0.185-1.352,0.763-1.8
					c2.435-1.89,4.652-4.061,6.592-6.457c0.595-0.735,1.187-1.743,0.711-2.56c-0.315-0.54-1.014-0.757-1.634-0.679
					c-0.62,0.078-1.181,0.393-1.721,0.708c-4.82,2.807-9.391,6.04-13.642,9.651c-2.782,2.363-5.615,4.984-9.189,5.723
					c-1.678,0.346-3.83-0.02-4.411-1.632c-0.139-0.385-0.185-0.833-0.484-1.113c-0.379-0.354-0.977-0.274-1.481-0.151
					c-2.56,0.627-4.982,1.803-7.068,3.413l43.683,6.824c1.501-1.398,3.002-2.797,4.503-4.195
					C734.795,289.502,735.56,288.782,735.99,287.857z"/>
			</g>
			
				<rect x="680.746" y="184.035" transform="matrix(0.988 0.1544 -0.1544 0.988 38.3289 -109.3755)" style="fill:#F1F1F1;" width="85.547" height="16.214"/>
			
				<rect x="684.692" y="178.353" transform="matrix(0.988 0.1544 -0.1544 0.988 37.0177 -103.8336)" style="fill:#CACACA;" width="4.913" height="16.214"/>
			
				<rect x="693.63" y="179.749" transform="matrix(0.988 0.1544 -0.1544 0.988 37.3404 -105.1965)" style="fill:#CACACA;" width="4.913" height="16.214"/>
			
				<rect x="702.569" y="181.146" transform="matrix(0.988 0.1543 -0.1543 0.988 37.6574 -106.5466)" style="fill:#CACACA;" width="4.913" height="16.214"/>
			
				<rect x="711.507" y="182.542" transform="matrix(0.988 0.1544 -0.1544 0.988 37.9858 -107.9226)" style="fill:#CACACA;" width="4.913" height="16.214"/>
			
				<rect x="720.446" y="183.939" transform="matrix(0.988 0.1544 -0.1544 0.988 38.3085 -109.2855)" style="fill:#CACACA;" width="4.913" height="16.214"/>
			
				<rect x="729.384" y="185.335" transform="matrix(0.988 0.1544 -0.1544 0.988 38.6311 -110.6486)" style="fill:#CACACA;" width="4.913" height="16.214"/>
			
				<rect x="738.323" y="186.732" transform="matrix(0.988 0.1543 -0.1543 0.988 38.9476 -111.9974)" style="fill:#CACACA;" width="4.913" height="16.214"/>
			
				<rect x="747.261" y="188.128" transform="matrix(0.988 0.1544 -0.1544 0.988 39.2765 -113.3745)" style="fill:#CACACA;" width="4.913" height="16.214"/>
			
				<rect x="756.199" y="189.524" transform="matrix(0.988 0.1544 -0.1544 0.988 39.5992 -114.7375)" style="fill:#CACACA;" width="4.913" height="16.214"/>
			<g>
				<polyline style="fill:#F1CC81;" points="685.782,214.512 755.177,225.353 746.521,280.755 677.127,269.914 				"/>
				
					<rect x="733.305" y="249.212" transform="matrix(0.988 0.1544 -0.1544 0.988 49.2822 -110.9843)" width="12.09" height="25.32"/>
				
					<rect x="736.794" y="229.596" transform="matrix(0.988 0.1544 -0.1544 0.988 45.877 -111.7907)" style="fill:#FFFFFF;" width="12.09" height="19.887"/>
				<path style="fill:#FFFFFF;" d="M700.131,258.677c-20.694-14.859-2.6-33.236,3.961-18.929
					c4.129-11.334,21.198-8.605,17.866,4.383c-1.981,6.83-7.886,11.549-12.392,16.771
					C706.507,264.865,702.962,260.892,700.131,258.677z"/>
			</g>
		</g>
		<g style="clip-path:url(#SVGID_00000144310382367318900230000010298347895525539748_);">
			<path style="fill:#F1CC81;" d="M472.879,47.133l-56.6,11.222c-3.804,0.754-7.499-1.718-8.253-5.522l-5.015-25.295
				c-0.754-3.804,1.718-7.499,5.522-8.253l56.601-11.222c3.804-0.754,7.499,1.718,8.253,5.522l5.015,25.295
				C479.155,42.684,476.683,46.379,472.879,47.133z"/>
			<path style="fill:#F1CC81;" d="M454.224,48.738c4.547,5.668,11.57,7.965,18.55,9.376c1.448,0.293,2.515-1.357,1.609-2.524
				c-2.297-2.961-3.841-6.51-4.387-10.219"/>
		</g>
		<g style="clip-path:url(#SVGID_00000144310382367318900230000010298347895525539748_);">
			<path style="fill:#DA8265;" d="M692.983,362.799l56.489-11.771c3.796-0.791,6.232-4.51,5.441-8.306l-5.261-25.245
				c-0.791-3.796-4.51-6.232-8.306-5.441l-56.489,11.771c-3.796,0.791-6.232,4.51-5.441,8.306l5.261,25.245
				C685.468,361.154,689.187,363.59,692.983,362.799z"/>
			<path style="fill:#DA8265;" d="M710.783,356.992c-1.972,6.994-7.541,11.85-13.416,15.875c-1.219,0.835-2.845-0.267-2.467-1.695
				c0.959-3.623,0.994-7.493,0.049-11.121"/>
		</g>
		<g style="clip-path:url(#SVGID_00000144310382367318900230000010298347895525539748_);">
			<ellipse style="fill:#D66B54;" cx="379.04" cy="11.099" rx="14.802" ry="18.827"/>
			<ellipse style="fill:#DA8265;" cx="384.811" cy="11.099" rx="14.802" ry="18.827"/>
			<path style="fill:#D66B54;" d="M376.233-4.244l16.147,31.526c0.619-0.476,1.308-1.076,2.002-1.822
				c0.52-0.558,0.956-1.104,1.319-1.61c-5.646-9.979-11.292-19.958-16.939-29.937c-0.468,0.22-1.027,0.536-1.604,0.991
				C376.792-4.806,376.485-4.514,376.233-4.244z"/>
		</g>
	</g>
</g>
<g id="TEXTS">
	<text transform="matrix(1 0 0 1 36.5374 183.1238)" style="fill:#FFFFFF; font-family:'TitanOne'; font-size:21px;">Bore</text>
	<text transform="matrix(1 0 0 1 327.3368 472.2648)" style="fill:#FFFFFF; font-family:'TitanOne'; font-size:21px;">Sad</text>
	
		<text transform="matrix(0.979 -0.204 0.204 0.979 689.2825 345.8448)" style="fill:#FFFFFF; font-family:'TitanOne'; font-size:12px;">Sunshine</text>
	
		<text transform="matrix(0.9809 -0.1945 0.1945 0.9809 418.4263 43.8083)" style="fill:#FFFFFF; font-family:'TitanOne'; font-size:21px;">Hey!</text>
</g>
</svg>
