<svg xmlns="http://www.w3.org/2000/svg" viewBox="0 0 500 500"><defs><style>.cls-1{isolation:isolate;}.cls-2{fill:#78baf1;}.cls-3{fill:#242136;}.cls-4{fill:#f9de59;}.cls-5{fill:#9cd8ff;}.cls-6{fill:#492455;}.cls-13,.cls-6{mix-blend-mode:multiply;opacity:0.2;}.cls-7{fill:#ffb4ca;}.cls-8{fill:#da6ce0;}.cls-9{fill:#9055a8;}.cls-10{fill:#ff6a95;}.cls-11{fill:#fff;}.cls-12{fill:#b53168;}.cls-13{fill:#d12455;}</style></defs><g class="cls-1"><g id="OBJECTS"><ellipse class="cls-2" cx="250" cy="446.57" rx="129.93" ry="7.71"/><path class="cls-3" d="M250,455.28c-34.72,0-67.37-.8-91.94-2.26-39-2.31-39-5-39-6.45s0-4.14,39-6.45c24.56-1.46,57.21-2.26,91.94-2.26s67.38.8,91.94,2.26c39,2.31,39,5,39,6.45s0,4.14-39,6.45C317.38,454.48,284.72,455.28,250,455.28Zm-128.7-8.71c5.1,3.29,56.8,6.71,128.7,6.71s123.6-3.42,128.7-6.71c-5.1-3.29-56.8-6.71-128.7-6.71S126.4,443.28,121.3,446.57Zm257.7.25h0Z"/><circle class="cls-4" cx="425.63" cy="150.6" r="10.18"/><path class="cls-3" d="M425.63,161.78a1,1,0,0,1-1-1,9.19,9.19,0,0,0-9.18-9.18,1,1,0,0,1,0-2,9.18,9.18,0,0,0,9.18-9.17,1,1,0,1,1,2,0,9.18,9.18,0,0,0,9.18,9.17,1,1,0,0,1,0,2,9.19,9.19,0,0,0-9.18,9.18A1,1,0,0,1,425.63,161.78Zm-5.56-11.18a11.23,11.23,0,0,1,5.56,5.56,11.23,11.23,0,0,1,5.56-5.56,11.25,11.25,0,0,1-5.56-5.55A11.25,11.25,0,0,1,420.07,150.6Z"/><circle class="cls-4" cx="455.41" cy="233.73" r="10.18"/><path class="cls-3" d="M455.41,244.9a1,1,0,0,1-1-1,9.18,9.18,0,0,0-9.18-9.17,1,1,0,0,1,0-2,9.19,9.19,0,0,0,9.18-9.18,1,1,0,0,1,2,0,9.18,9.18,0,0,0,9.17,9.18,1,1,0,0,1,0,2,9.18,9.18,0,0,0-9.17,9.17A1,1,0,0,1,455.41,244.9Zm-5.56-11.17a11.29,11.29,0,0,1,5.56,5.55,11.23,11.23,0,0,1,5.55-5.55,11.21,11.21,0,0,1-5.55-5.56A11.27,11.27,0,0,1,449.85,233.73Z"/><circle class="cls-4" cx="416.59" cy="378.9" r="8.17"/><path class="cls-3" d="M416.59,388.07a1,1,0,0,1-1-1,7.18,7.18,0,0,0-7.17-7.18,1,1,0,1,1,0-2,7.17,7.17,0,0,0,7.17-7.17,1,1,0,0,1,2,0,7.18,7.18,0,0,0,7.18,7.17,1,1,0,0,1,0,2,7.19,7.19,0,0,0-7.18,7.18A1,1,0,0,1,416.59,388.07Zm-4-9.18a9.22,9.22,0,0,1,4,4,9.29,9.29,0,0,1,4-4,9.22,9.22,0,0,1-4-4A9.14,9.14,0,0,1,412.58,378.89Z"/><circle class="cls-4" cx="364.76" cy="411.21" r="8.17"/><path class="cls-3" d="M364.76,420.38a1,1,0,0,1-1-1,7.18,7.18,0,0,0-7.17-7.17,1,1,0,0,1,0-2,7.18,7.18,0,0,0,7.17-7.17,1,1,0,1,1,2,0,7.18,7.18,0,0,0,7.18,7.17,1,1,0,0,1,0,2,7.18,7.18,0,0,0-7.18,7.17A1,1,0,0,1,364.76,420.38Zm-4-9.17a9.19,9.19,0,0,1,4,4,9.25,9.25,0,0,1,4-4,9.25,9.25,0,0,1-4-4A9.19,9.19,0,0,1,360.75,411.21Z"/><circle class="cls-4" cx="180.38" cy="70.11" r="8.17"/><path class="cls-3" d="M180.38,79.29a1,1,0,0,1-1-1,7.19,7.19,0,0,0-7.18-7.18,1,1,0,0,1,0-2,7.18,7.18,0,0,0,7.18-7.17,1,1,0,0,1,2,0,7.18,7.18,0,0,0,7.17,7.17,1,1,0,0,1,0,2,7.18,7.18,0,0,0-7.17,7.18A1,1,0,0,1,180.38,79.29Zm-4-9.18a9.25,9.25,0,0,1,4,4,9.25,9.25,0,0,1,4-4,9.25,9.25,0,0,1-4-4A9.25,9.25,0,0,1,176.37,70.11Z"/><circle class="cls-4" cx="71.07" cy="107.09" r="8.17"/><path class="cls-3" d="M71.07,116.27a1,1,0,0,1-1-1,7.19,7.19,0,0,0-7.18-7.18,1,1,0,0,1,0-2,7.18,7.18,0,0,0,7.18-7.17,1,1,0,0,1,2,0,7.18,7.18,0,0,0,7.17,7.17,1,1,0,0,1,0,2,7.18,7.18,0,0,0-7.17,7.18A1,1,0,0,1,71.07,116.27Zm-4-9.18a9.25,9.25,0,0,1,4,4,9.25,9.25,0,0,1,4-4,9.25,9.25,0,0,1-4-4A9.25,9.25,0,0,1,67.06,107.09Z"/><circle class="cls-4" cx="88.44" cy="62.65" r="15.72"/><path class="cls-3" d="M88.44,79.37a1,1,0,0,1-1-1A14.73,14.73,0,0,0,72.73,63.65a1,1,0,0,1,0-2A14.73,14.73,0,0,0,87.44,46.93a1,1,0,0,1,2,0,14.74,14.74,0,0,0,14.72,14.72,1,1,0,0,1,0,2A14.74,14.74,0,0,0,89.44,78.37,1,1,0,0,1,88.44,79.37Zm-10-16.72a16.77,16.77,0,0,1,10,10,16.83,16.83,0,0,1,10-10,16.83,16.83,0,0,1-10-10A16.77,16.77,0,0,1,78.42,62.65Z"/><circle class="cls-4" cx="42.64" cy="246.33" r="13.07"/><path class="cls-3" d="M42.64,260.4a1,1,0,0,1-1-1,12.08,12.08,0,0,0-12.07-12.07,1,1,0,0,1,0-2,12.08,12.08,0,0,0,12.07-12.07,1,1,0,0,1,2,0,12.09,12.09,0,0,0,12.07,12.07,1,1,0,1,1,0,2A12.08,12.08,0,0,0,43.64,259.4,1,1,0,0,1,42.64,260.4Zm-7.86-14.07a14.12,14.12,0,0,1,7.86,7.86,14.15,14.15,0,0,1,7.86-7.86,14.18,14.18,0,0,1-7.86-7.86A14.15,14.15,0,0,1,34.78,246.33Z"/><path class="cls-5" d="M332.08,82h95.71s-1-19.13-25.61-12.46c2.17-25.19-19.64-29.33-35.4-23.23-10.19,4-17.86,12.21-14.83,21.81C332.08,62.86,332.08,82,332.08,82Z"/><path class="cls-3" d="M427.79,83H332.08a1,1,0,0,1-1-1c0-.35.06-8.61,5.85-13.08,3.39-2.61,8-3.33,13.64-2.15-2-9.75,6.32-17.7,15.85-21.39,10.42-4,21.69-3.25,28.7,2,4.11,3.08,8.77,9.18,8.15,20.83,8.13-2,14.56-1.29,19.11,2,5.94,4.3,6.39,11.43,6.41,11.73a1,1,0,0,1-.27.74A1,1,0,0,1,427.79,83Zm-94.65-2h93.51a14.46,14.46,0,0,0-5.46-9.17c-4.29-3.09-10.6-3.54-18.75-1.33a1,1,0,0,1-.91-.2,1,1,0,0,1-.35-.85c.8-9.22-1.71-16.3-7.26-20.46-6.47-4.85-17-5.54-26.78-1.75C358,50.76,350,58.5,352.9,67.77A1,1,0,0,1,351.69,69c-5.79-1.52-10.34-1.05-13.53,1.41C334.24,73.46,333.34,78.76,333.14,81Z"/><path class="cls-6" d="M364.78,82c-4.28-11.66-2-24.7,2-35.69-10.19,4-17.86,12.21-14.83,21.81C332.08,62.86,332.08,82,332.08,82Z"/><path class="cls-5" d="M139.42,393.85H62.89s.82-15.3,20.48-10c-1.74-20.14,15.7-23.45,28.3-18.57,8.15,3.16,14.28,9.76,11.86,17.44C139.42,378.58,139.42,393.85,139.42,393.85Z"/><path class="cls-3" d="M139.42,394.85H62.89a1,1,0,0,1-.72-.31,1,1,0,0,1-.27-.74,13.45,13.45,0,0,1,5.2-9.53c3.64-2.64,8.75-3.2,15.19-1.69-.42-9.23,3.31-14.09,6.6-16.56,5.66-4.25,14.75-4.89,23.15-1.64,7.6,2.95,14.22,9.26,12.85,17,4.46-.87,8.08-.27,10.78,1.82,4.7,3.62,4.75,10.33,4.75,10.61A1,1,0,0,1,139.42,394.85Zm-75.37-2h74.3c-.2-1.84-1-5.77-3.91-8-2.5-1.92-6.09-2.29-10.65-1.09a1,1,0,0,1-1-.28,1,1,0,0,1-.23-1c2.3-7.28-4-13.39-11.27-16.2-7.77-3-16.1-2.48-21.22,1.37-4.37,3.28-6.35,8.88-5.72,16.18a1,1,0,0,1-.36.85,1,1,0,0,1-.9.2c-6.45-1.75-11.44-1.4-14.82,1A11.27,11.27,0,0,0,64.05,392.85Z"/><path class="cls-6" d="M113.27,393.85c3.42-9.33,1.58-19.75-1.6-28.54,8.15,3.16,14.28,9.76,11.86,17.44,15.89-4.17,15.89,11.1,15.89,11.1Z"/><path class="cls-7" d="M133.54,279.34a55.11,55.11,0,0,1-12.91,30.29c-17.18,20-44.81,23.4-44.81,23.4s-32.75,10.7-34.33,6.89S52.62,330,52.62,330s-18.2-1.33-17.27-7.63c.85-5.7,17-1.8,17-1.8s-10.51-4.72-7.82-13.84,8.48-4.26,7.36-1.44-.43,7.67,4,7.32,5.71-7.61,1.4-9.9-3.82-5.55-1.93-7.25c2.55-2.28,11.72,1.41,13.85,8.88,2.21,7.75,9.9,6.25,9.9,6.25s17.15,2.16,30.77-9.16c5.75-4.77,10.87-11.95,13.8-22.72Z"/><path class="cls-3" d="M44.16,341.73c-2.46,0-3.27-.63-3.59-1.43-1.41-3.38,4.46-7.36,8.65-9.69-4.31-.59-11.39-2-13.92-5.15a4.12,4.12,0,0,1-.94-3.27,3.74,3.74,0,0,1,1.71-2.62c2.6-1.76,7.79-1.47,11.69-.91-2.85-2.48-5.83-6.59-4.16-12.24,1.27-4.33,3.23-5.6,4.64-5.89A4,4,0,0,1,52.07,302a3.67,3.67,0,0,1,.78,3.68,5.56,5.56,0,0,0,.35,4.91,2.81,2.81,0,0,0,2.67,1,3.56,3.56,0,0,0,3-3.1,4.45,4.45,0,0,0-2-4.92c-2.87-1.51-3.66-3.36-3.82-4.64a4.92,4.92,0,0,1,1.69-4.23c1.13-1,3.09-1.2,5.41-.53A15.1,15.1,0,0,1,70.23,304c1.93,6.76,8.47,5.6,8.75,5.55a.81.81,0,0,1,.31,0c.17,0,16.9,2,30-8.94,6.37-5.28,10.9-12.76,13.47-22.21a1,1,0,0,1,1-.74l9.8.66a1,1,0,0,1,.92,1.11,56.23,56.23,0,0,1-13.14,30.83C104.68,329.76,77.91,333.75,76,334c-.91.29-8.69,2.8-16.54,4.86C51.44,341,46.83,341.73,44.16,341.73Zm-1.94-21.49a9.7,9.7,0,0,0-5,1,1.76,1.76,0,0,0-.84,1.26,2.09,2.09,0,0,0,.52,1.71c2.52,3.15,12.28,4.51,15.83,4.77a1,1,0,0,1,.36,1.9c-5.73,2.76-11.37,6.9-10.64,8.67,1.3,1.14,14.35-1.34,33.1-7.46a.58.58,0,0,1,.19,0c.27,0,27.45-3.57,44.17-23.06a54.11,54.11,0,0,0,12.55-28.71l-7.94-.54c-2.72,9.49-7.39,17-13.9,22.44-13.29,11-29.58,9.6-31.39,9.4-1.24.17-8.64.87-10.88-7a13.23,13.23,0,0,0-8.71-8.5c-1.56-.46-2.94-.42-3.51.09a2.93,2.93,0,0,0-1.05,2.5c.15,1.16,1.11,2.24,2.78,3.12a6.42,6.42,0,0,1,3,7.09,5.52,5.52,0,0,1-4.83,4.7,4.72,4.72,0,0,1-4.44-1.86,7.49,7.49,0,0,1-.6-6.83,1.75,1.75,0,0,0-.45-1.65,2,2,0,0,0-1.89-.76c-1.22.26-2.37,1.9-3.13,4.5-2.42,8.19,7.17,12.6,7.27,12.65a1,1,0,0,1-.65,1.88A48.27,48.27,0,0,0,42.22,320.24Z"/><path class="cls-6" d="M133.54,279.34a55.11,55.11,0,0,1-12.91,30.29l-10.69-8.23c5.75-4.77,10.87-11.95,13.8-22.72Z"/><path class="cls-6" d="M66.85,314.24S56,321.91,63.92,330.42C65.09,323.38,66.85,314.24,66.85,314.24Z"/><path class="cls-7" d="M373.66,279.34a55.11,55.11,0,0,0,12.91,30.29c17.18,20,44.81,23.4,44.81,23.4s32.75,10.7,34.33,6.89S454.58,330,454.58,330s18.2-1.33,17.27-7.63c-.85-5.7-17-1.8-17-1.8s10.51-4.72,7.82-13.84-8.48-4.26-7.36-1.44.43,7.67-4,7.32-5.71-7.61-1.4-9.9,3.82-5.55,1.93-7.25c-2.55-2.28-11.72,1.41-13.85,8.88-2.21,7.75-9.9,6.25-9.9,6.25s-17.15,2.16-30.77-9.16c-5.75-4.77-10.87-11.95-13.8-22.72Z"/><path class="cls-3" d="M463,341.73c-2.67,0-7.28-.75-15.34-2.86-7.86-2.06-15.63-4.57-16.54-4.86-1.87-.26-28.64-4.25-45.35-23.73a56.23,56.23,0,0,1-13.14-30.83.94.94,0,0,1,.22-.75,1,1,0,0,1,.7-.36l9.8-.66a1,1,0,0,1,1,.74c2.58,9.45,7.11,16.93,13.48,22.21,13.11,10.9,29.84,9,30,8.94a.86.86,0,0,1,.32,0c.27.05,6.82,1.2,8.75-5.55A15.08,15.08,0,0,1,447,294.16c2.31-.67,4.28-.48,5.4.52a4.93,4.93,0,0,1,1.7,4.24c-.16,1.28-.95,3.13-3.82,4.64a4.45,4.45,0,0,0-2,4.92,3.58,3.58,0,0,0,3,3.1,2.81,2.81,0,0,0,2.67-1,5.59,5.59,0,0,0,.35-4.91,3.69,3.69,0,0,1,.77-3.68,4,4,0,0,1,3.83-1.42c1.42.29,3.37,1.56,4.65,5.89,1.67,5.65-1.31,9.76-4.17,12.24,3.9-.56,9.09-.85,11.7.91a3.74,3.74,0,0,1,1.71,2.62,4.16,4.16,0,0,1-.94,3.27c-2.53,3.15-9.62,4.56-13.92,5.15,4.18,2.33,10.06,6.31,8.65,9.69C466.3,341.1,465.49,341.73,463,341.73Zm-88.26-61.46A54.11,54.11,0,0,0,387.33,309c16.73,19.51,43.9,23,44.17,23.06a.65.65,0,0,1,.19,0c18.75,6.12,31.8,8.6,33.14,7.39.69-1.7-4.95-5.84-10.69-8.6a1,1,0,0,1-.54-1.09,1,1,0,0,1,.9-.81c3.56-.26,13.32-1.62,15.84-4.77a2.13,2.13,0,0,0,.52-1.71,1.78,1.78,0,0,0-.85-1.26c-3-2-11.81-.48-15,.28a1,1,0,0,1-.64-1.88c.39-.18,9.68-4.49,7.27-12.65-.77-2.6-1.91-4.24-3.14-4.5a2,2,0,0,0-1.89.76,1.77,1.77,0,0,0-.44,1.65,7.49,7.49,0,0,1-.6,6.83,4.72,4.72,0,0,1-4.44,1.86,5.52,5.52,0,0,1-4.83-4.7,6.41,6.41,0,0,1,3-7.08c1.67-.89,2.63-2,2.77-3.13a3,3,0,0,0-1-2.5c-.57-.51-1.95-.55-3.52-.09a13.24,13.24,0,0,0-8.7,8.5c-2.24,7.86-9.65,7.16-10.88,7-1.82.2-18.1,1.64-31.39-9.4-6.51-5.4-11.19-12.95-13.91-22.44Z"/><path class="cls-6" d="M373.66,279.34a55.11,55.11,0,0,0,12.91,30.29l10.69-8.23c-5.75-4.77-10.87-11.95-13.8-22.72Z"/><path class="cls-6" d="M440.34,314.24s10.85,7.67,2.94,16.18C442.1,323.38,440.34,314.24,440.34,314.24Z"/><path class="cls-7" d="M360,351c-3.16,22.89-143.82,21.18-143.82,21.18l-.81-5L213.75,357s96.54-5,100.89-10.92c5.09-7-21.78-22.33-21.78-22.33l37.33-14.06A87.82,87.82,0,0,1,342,318C351.11,325.47,361.89,337.42,360,351Z"/><path class="cls-3" d="M222.52,373.16c-4,0-6.24,0-6.33,0a1,1,0,0,1-1-.84l-2.45-15.12a1,1,0,0,1,.21-.78,1,1,0,0,1,.73-.38c37.14-1.92,97.17-6.47,100.13-10.52a2.4,2.4,0,0,0,.37-2.07c-1.24-5.87-16.19-15.56-21.84-18.79a1,1,0,0,1-.5-.95,1,1,0,0,1,.64-.86l37.34-14.06a1,1,0,0,1,.83.06,88.8,88.8,0,0,1,12,8.36c9.45,7.78,20.31,20,18.38,33.91h0c-1.38,10-26.29,16.77-74,20C260.65,372.93,234.27,373.16,222.52,373.16Zm-5.47-2c39.48.42,139.5-2.39,142-20.32,1.8-13-8.62-24.64-17.67-32.09a90.83,90.83,0,0,0-11.26-7.93L295.16,324c5.17,3.14,19.59,12.4,21,19a4.41,4.41,0,0,1-.71,3.68c-4.32,5.88-82,10.3-100.53,11.27ZM360,351h0Z"/><path class="cls-6" d="M360,351c-3.16,22.89-143.82,21.18-143.82,21.18l-.81-5c12.19-.48,97.11-4.11,117.59-11.95,22.08-8.44.62-33.36.62-33.36L342,318C351.11,325.47,361.89,337.42,360,351Z"/><path class="cls-8" d="M198.88,348.05s-12.12,52.88-4.18,50.47a7.67,7.67,0,0,0,1.17-.46c7.57-3.63,15.21-19.51,15.21-19.51l10.79-1.38,1.29-22.95-18.24-4.63Z"/><path class="cls-3" d="M194.2,399.6a2.26,2.26,0,0,1-1.58-.63c-5.05-4.71,3.52-43.43,5.28-51.14a1,1,0,0,1,1.23-.75l24.28,6.17a1,1,0,0,1,.75,1l-1.29,22.94a1,1,0,0,1-.87.94l-10.26,1.32c-1.39,2.77-8.31,16.06-15.44,19.49a11,11,0,0,1-1.3.51A2.82,2.82,0,0,1,194.2,399.6Zm5.43-50.33c-7.3,32.14-7.35,46.64-5.65,48.24.08.07.15.14.43.06a7.89,7.89,0,0,0,1-.41c7.17-3.44,14.66-18.89,14.74-19a1,1,0,0,1,.77-.56l10-1.28L222.11,355Z"/><path class="cls-9" d="M198.88,348.05s-12.12,52.88-4.18,50.47a7.67,7.67,0,0,0,1.17-.46l9-48.47Z"/><path class="cls-3" d="M194.2,399.6a2.26,2.26,0,0,1-1.58-.63c-5.05-4.71,3.52-43.43,5.28-51.14a1,1,0,0,1,1.23-.75l6,1.54a1,1,0,0,1,.74,1.15l-9.05,48.48a1,1,0,0,1-.54.71,10.21,10.21,0,0,1-1.31.52A2.82,2.82,0,0,1,194.2,399.6Zm5.43-50.33c-7.3,32.14-7.35,46.64-5.65,48.24.08.07.15.14.43.06s.39-.13.58-.21l8.77-47Z"/><path class="cls-7" d="M289.84,348.76l-1.09,8.18-.93,7s-140.56,5.7-144.36-17.09c-1.75-10.49,4.18-20.25,11.09-27.72a89.18,89.18,0,0,1,17.56-14.38l37.71,13s-26.42,16.13-21.14,22.93C193.2,346.5,289.84,348.76,289.84,348.76Z"/><path class="cls-3" d="M251.12,365.57c-10.49,0-22.29-.16-34.09-.63C169.22,363,144.14,357,142.48,347c-1.53-9.16,2.28-18.77,11.34-28.56a88.85,88.85,0,0,1,17.78-14.56,1,1,0,0,1,.84-.09l37.71,13a1,1,0,0,1,.19,1.8c-5.55,3.4-20.21,13.5-21.3,19.4a2.48,2.48,0,0,0,.43,2.07c1.64,2.1,30.34,6,100.4,7.68a1,1,0,0,1,.73.35,1,1,0,0,1,.23.78l-2,15.18a1,1,0,0,1-.95.87C287.63,365,272,365.57,251.12,365.57Zm-78.89-59.72a89.28,89.28,0,0,0-16.94,14c-8.62,9.31-12.26,18.35-10.84,26.87,3,17.86,103,17.84,142.49,16.29l1.76-13.24c-18.5-.44-96.32-2.67-100.81-8.43a4.43,4.43,0,0,1-.81-3.65C188.3,331,202.45,321.3,207.53,318Z"/><path class="cls-6" d="M288.75,356.94l-.93,7s-140.56,5.7-144.36-17.09c-1.75-10.49,4.18-20.25,11.09-27.72l2.35,3.76s-14.93,23,8.71,28.29C187.79,356.15,277.81,356.87,288.75,356.94Z"/><path class="cls-10" d="M386.18,292.33c.06.15.11.29.16.44,6.66,18.34-13.61,45.72-45.07,32.83-1.14,21.6-60.13,24.38-81.45,4.85a26.42,26.42,0,0,1-3-3.25.61.61,0,0,1,0,.13c-2.58,14.52-33.58,16.48-40.7,6.42-14.29,21.07-81.42,12.63-79.34-28.92-27.79,0-55.15-31.94-38.23-57.2-14.07-15.53-19.8-38.74-6.74-54,4.36-5.12,10.82-9.35,19.77-12.12-10.39-30.52,13.36-58.44,47.26-40.9,2.83-27.67,74.41-45.64,92.48,7.14,0,0,23.44-39.67,65.22-26,8-11.65,45.54-9.62,50.15,24.43.31,0,.63-.05.94-.06,26.87-1.29,48,40.25,29.28,64.92l-.05.07a5.3,5.3,0,0,1,.91.39l0,0,.33.18a9.84,9.84,0,0,1,1.38.93,9.28,9.28,0,0,1,.86.7,38,38,0,0,1,7.09,8.84A55.71,55.71,0,0,1,415.57,250C415.63,264.76,408.56,280.8,386.18,292.33Z"/><path class="cls-3" d="M186.87,345.9a68.22,68.22,0,0,1-21.46-3.51c-19.34-6.47-30.11-19.77-29.72-36.57-15.45-.44-31.38-10.54-39-24.87-6.07-11.37-5.86-23.14.58-33.23C83.77,232.45,77.35,208.93,91,192.93c4.55-5.34,11-9.42,19.27-12.12-4.87-15.34-1.45-30.83,8.85-39.69,10-8.58,24.07-9.31,38.88-2.08,2.34-12.58,18.39-23.53,38.2-25.8,20.17-2.31,45,5,55.34,32.24,5.17-7.49,28-36.47,64.58-25,4.37-5.5,14.68-7.71,24.94-5.27,6.87,1.64,23,7.8,26.44,29.81h.05c12.3-.58,24.49,7.61,31.74,21.41,7.91,15,7.51,32.22-.94,44.18l.21.11a10.47,10.47,0,0,1,1.52,1,11.16,11.16,0,0,1,.94.76,39.6,39.6,0,0,1,7.25,9c3.08,5.08,8.25,15.51,8.31,28.38.05,12.53-5,30.08-29.15,42.84,3.17,9.25-.08,20.61-8.17,28.38-9.49,9.11-23,11.21-37.12,5.82-.89,5.52-5.39,10.07-13.11,13.22-18.79,7.69-54.14,5.37-69.87-9-.66-.6-1.29-1.23-1.88-1.88-1.79,5.13-7.18,9-15.1,10.78-9.14,2-21,.77-26.07-4.71C210.69,342.17,199.5,345.9,186.87,345.9ZM138.53,136.12a27.11,27.11,0,0,0-18.12,6.52c-9.89,8.51-13,23.62-7.94,38.5a1,1,0,0,1-.65,1.27C103.49,185,97,189,92.51,194.23,79.44,209.55,86,232.35,99.23,247a1,1,0,0,1,.09,1.23c-6.42,9.58-6.73,20.88-.89,31.82,7.48,14,23.23,23.82,38.29,23.82a1,1,0,0,1,.73.31,1,1,0,0,1,.27.74c-.39,7.73,1.6,26.67,28.32,35.61,19.55,6.54,42.07,3.2,49.2-7.3a1,1,0,0,1,.81-.44,1.08,1.08,0,0,1,.83.42c3.54,5,14.69,7.24,24.85,5,8-1.79,13.13-5.79,14.05-11a.5.5,0,0,1,0-.12.29.29,0,0,0,0-.09,1,1,0,0,1,.77-.73,1,1,0,0,1,1,.36,24.42,24.42,0,0,0,2.92,3.13c12.44,11.4,45.44,17.81,67.77,8.67,5.28-2.16,11.65-6.14,12-12.83a1,1,0,0,1,1.38-.88c13.85,5.68,27.05,3.88,36.22-4.92,7.63-7.33,10.66-18,7.53-26.64a3.22,3.22,0,0,0-.15-.41,1,1,0,0,1,.48-1.26c13.2-6.8,28.93-19.52,28.84-41.47-.06-12.37-5.05-22.44-8-27.34a37.06,37.06,0,0,0-6.89-8.6,7.1,7.1,0,0,0-.8-.65,8.38,8.38,0,0,0-1.27-.86l-.33-.18-.06,0a4.82,4.82,0,0,0-.69-.3,1,1,0,0,1-.68-.72,1,1,0,0,1,.19-.85l0-.06c8.64-11.36,9.21-28.23,1.45-43-6.89-13.1-18.34-20.9-29.89-20.34-.3,0-.6,0-.89.06a1,1,0,0,1-1.09-.87c-2.91-21.53-18.49-27.49-25.06-29-9.69-2.31-19.7-.14-23.27,5.06a1,1,0,0,1-1.14.38c-40.55-13.26-63.82,25.18-64.05,25.57a1,1,0,0,1-1.8-.19c-9.47-27.64-34-35.07-53.9-32.79-19.64,2.24-35.39,13.18-36.64,25.43a1,1,0,0,1-.52.78,1,1,0,0,1-.94,0C151.45,137.89,144.72,136.12,138.53,136.12Z"/><path class="cls-6" d="M242.75,249.45c2,11.13,21.21,10.3,21.47,0,.07-2.71-5.22.09-10.76,0C247.72,249.35,242.22,246.42,242.75,249.45Z"/><path class="cls-6" d="M182.55,224.49c4.55,3.52,13.13-2.42,21.95-7C215,212,226.25,206.58,225.56,199s-20-9.72-35-2.75S176.1,219.5,182.55,224.49Z"/><path class="cls-6" d="M322.77,223.79c-4.55,3.51-13.13-2.43-21.95-7-10.45-5.47-21.75-10.87-21.06-18.48s20-9.72,35-2.75S329.22,218.8,322.77,223.79Z"/><path class="cls-6" d="M170.52,146.08s5.32-8,18.62-8.21,21,17.95,21,17.95-10.91-13.09-25.84-9.69-8.43,3.69-8.43,3.69l-2.81-3.2Z"/><path class="cls-6" d="M305.62,171.09c-.44.07,14.43,2.53,20.25-1.63s6-25.44,6-25.44l-5.64,6.3s-5.15.52-5.65,3.35.84,6.12-2.57,9.13S309.1,170.54,305.62,171.09Z"/><path class="cls-6" d="M415.57,250c-13.39,4-33.41,4-38.26,7.86-7.45,5.94-5.63,8-15.29,6.05s-19.56-5.32-23.81-11.91-4.59-13-4.23-14.77,2.1-6.45,2.1-6.45,6.87,25.49,27.17,21.17,44.14-29.81,44.14-29.81h0A55.71,55.71,0,0,1,415.57,250Z"/><path class="cls-3" d="M245.05,175.32H245a1,1,0,0,1-.91-1.08c1.71-19.49,6.18-26.77,6.37-27.07a1,1,0,1,1,1.69,1.07c-.05.08-4.41,7.27-6.07,26.18A1,1,0,0,1,245.05,175.32Z"/><path class="cls-3" d="M299.64,172.78a12.12,12.12,0,0,1-1.29-.05,1,1,0,0,1,.16-2,25.82,25.82,0,0,0,8.52-1.05c5.91-1.8,9.88-5.51,11.82-11,4.62-13.19-12.15-23.88-12.32-24a1,1,0,1,1,1.06-1.69,39.76,39.76,0,0,1,8.46,7.49c5.21,6.21,6.83,12.73,4.69,18.85a19.19,19.19,0,0,1-13.2,12.29A28.12,28.12,0,0,1,299.64,172.78Z"/><path class="cls-3" d="M350,180.48a1,1,0,0,1-.86-.48,1,1,0,0,1,.35-1.38c18.84-11.24,16.22-32.16,16.19-32.37a1,1,0,1,1,2-.27c0,.22,2.82,22.44-17.14,34.36A1,1,0,0,1,350,180.48Z"/><path class="cls-3" d="M320.55,153.1a1,1,0,0,1-.18-2c4.89-.9,8.11-2.73,9.58-5.42a8.63,8.63,0,0,0,.35-6.73,1,1,0,1,1,1.85-.77,10.52,10.52,0,0,1-.43,8.43c-1.76,3.26-5.46,5.43-11,6.46Z"/><path class="cls-3" d="M370.33,180.79c-10.48,0-12.88-7.41-12.91-7.5a1,1,0,1,1,1.91-.58c.12.38,3,8.88,17.74,5.15a1,1,0,0,1,.49,1.94A29.45,29.45,0,0,1,370.33,180.79Z"/><path class="cls-3" d="M372.24,222.44l-.23,0a1,1,0,0,1-.74-1.2c1.29-5.57,4-9.43,8.07-11.47,7.73-3.9,17.45.22,17.86.4a1,1,0,1,1-.79,1.83c-.09,0-9.29-3.93-16.18-.45-3.5,1.77-5.86,5.18-7,10.14A1,1,0,0,1,372.24,222.44Z"/><path class="cls-3" d="M375.6,213.7a1,1,0,0,1-.64-.24c-.25-.21-5.87-4.78-15.06-1.47a1,1,0,1,1-.68-1.88c10.34-3.73,16.76,1.6,17,1.82a1,1,0,0,1,.12,1.41A1,1,0,0,1,375.6,213.7Z"/><path class="cls-3" d="M384.52,228.4a1,1,0,0,1-.81-.41c0-.05-3.43-4.67-8.7-5.27-3.39-.39-6.86.94-10.32,3.95a1,1,0,1,1-1.31-1.51c3.91-3.4,7.91-4.88,11.88-4.43,6.15.72,9.92,5.87,10.07,6.09a1,1,0,0,1-.81,1.58Z"/><path class="cls-3" d="M365.61,265c-8.33,0-22.34-2.13-30.07-15.18-8.62-14.54,5.7-27.77,5.84-27.9a1,1,0,0,1,1.35,1.48,29.38,29.38,0,0,0-5.75,7.83c-3.06,6.18-3,12.09.29,17.57,10.69,18.06,34.46,13.78,34.7,13.73a1,1,0,0,1,.38,2A39.82,39.82,0,0,1,365.61,265Z"/><path class="cls-3" d="M347.27,225.62c-1.77,0-6.31-.66-7.51-7.23a1,1,0,0,1,2-.36c1.11,6.1,5.46,5.64,5.94,5.57a1,1,0,0,1,.32,2A6,6,0,0,1,347.27,225.62Z"/><path class="cls-3" d="M370.6,273.09a1,1,0,0,1-1-1c-.27-9,4.42-15.44,12.87-17.54l.2-.05a1,1,0,0,1,1.25.64,1,1,0,0,1-.6,1.25,3.14,3.14,0,0,1-.37.1c-4.38,1.09-11.68,4.56-11.35,15.54a1,1,0,0,1-1,1Z"/><path class="cls-3" d="M370.66,295.92c-5.08,0-10.45-1-14.57-4.15a1,1,0,1,1,1.22-1.59c9.81,7.54,28.36,1.27,28.54,1.21a1,1,0,0,1,.65,1.89A54,54,0,0,1,370.66,295.92Z"/><path class="cls-3" d="M341.27,326.6a1.11,1.11,0,0,1-.43-.09c-.16-.08-16.09-7.9-16.75-27.09a1,1,0,1,1,2-.07c.63,17.95,15.47,25.28,15.62,25.35a1,1,0,0,1-.43,1.9Z"/><path class="cls-3" d="M324.61,299.06a15.54,15.54,0,0,1-10.12-4,1,1,0,0,1,1.29-1.53c10.19,8.53,19.19-.84,19.57-1.25a1,1,0,0,1,1.42,0,1,1,0,0,1,0,1.41C336.74,293.7,331.63,299.06,324.61,299.06Z"/><path class="cls-3" d="M305.29,324.3l-.22,0a1,1,0,0,1-.76-1.2c1.23-5.6,5.93-9,13.6-9.93a42.39,42.39,0,0,1,11,.29,1,1,0,0,1-.35,2c-.2,0-19.73-3.4-22.26,8.1A1,1,0,0,1,305.29,324.3Z"/><path class="cls-3" d="M256.79,328.2a1,1,0,0,1-.72-.31c-.15-.16-15.18-16.39,3-37.57a1,1,0,1,1,1.51,1.3c-17,19.78-3.64,34.28-3.06,34.89a1,1,0,0,1,0,1.41A1,1,0,0,1,256.79,328.2Z"/><path class="cls-3" d="M216.67,314.92a1,1,0,0,1-1-.86A54.23,54.23,0,0,0,209.52,297c-6.4-11.09-15.67-16.48-27.55-16a1,1,0,0,1-1-1,1,1,0,0,1,1-1c30.2-1.15,35.72,34.5,35.77,34.86a1,1,0,0,1-.85,1.13Z"/><path class="cls-3" d="M222.89,319.61a1,1,0,0,1-.82-.43,9.19,9.19,0,0,0-12.64-2.34,1,1,0,0,1-1.37-.36,1,1,0,0,1,.36-1.36c9.32-5.5,15.23,2.84,15.29,2.92a1,1,0,0,1-.25,1.39A1,1,0,0,1,222.89,319.61Z"/><path class="cls-3" d="M136.72,305.83h0a1,1,0,0,1-1-1c0-.74.81-18.05,6.57-31.09a1,1,0,0,1,1.83.81c-5.61,12.68-6.39,30.18-6.4,30.36A1,1,0,0,1,136.72,305.83Z"/><path class="cls-3" d="M149.88,275.74c-3.56,0-9.36-1.06-12.65-7.32a1,1,0,1,1,1.77-.92c4.24,8.07,13.4,6,13.49,6a1,1,0,1,1,.46,1.94A15.31,15.31,0,0,1,149.88,275.74Z"/><path class="cls-3" d="M98.5,248.63a1,1,0,0,1-.67-.26,1,1,0,0,1-.08-1.41c.43-.47,10.61-11.46,32.38-7a1,1,0,0,1,.78,1.18,1,1,0,0,1-1.18.77c-10.77-2.22-18.49-.37-23.06,1.57a22.5,22.5,0,0,0-7.43,4.79A1,1,0,0,1,98.5,248.63Z"/><path class="cls-3" d="M127.28,248.63l-.21,0a1,1,0,0,1-.77-1.19c2.11-9.85,10-10.95,10.29-11a1,1,0,0,1,.26,2h0c-.28,0-6.79,1-8.6,9.42A1,1,0,0,1,127.28,248.63Z"/><path class="cls-3" d="M162.81,195.7c-5.28,0-12.61-2.19-19.42-11.8a1,1,0,0,1,.23-1.39,1,1,0,0,1,1.4.23c4.69,6.62,10.1,10.29,16.07,10.9a15.82,15.82,0,0,0,8.11-1.22l.86,1.81-.41-.92.41.91A17.71,17.71,0,0,1,162.81,195.7Z"/><path class="cls-3" d="M126.88,223.11c-1.08,0-2.17,0-3.29-.07a1,1,0,1,1,.07-2c15,.54,25.6-2.63,31.57-9.44a22,22,0,0,0,5-16.72,1,1,0,0,1,.82-1.15,1,1,0,0,1,1.15.82,23.69,23.69,0,0,1-5.47,18.37C150.8,219.69,140.77,223.11,126.88,223.11Z"/><path class="cls-3" d="M121.19,227a1,1,0,0,1-.76-1.66,7.29,7.29,0,0,0,.81-8.69,1,1,0,0,1,1.67-1.1,9.31,9.31,0,0,1-1,11.1A1,1,0,0,1,121.19,227Z"/><path class="cls-3" d="M212.69,160.53a1,1,0,0,1-.9-.55c-.4-.81-10.13-19.65-35.71-10.35a1,1,0,1,1-.69-1.88c27.3-9.92,38.09,11.12,38.19,11.34a1,1,0,0,1-.45,1.34A1,1,0,0,1,212.69,160.53Z"/><path class="cls-3" d="M176.84,153.8a1,1,0,0,1-1-1c0-.22-.32-5.17-6.62-5.78a1,1,0,0,1,.19-2c8.08.78,8.43,7.62,8.43,7.69a1,1,0,0,1-1,1Z"/><path class="cls-3" d="M118.87,193.67a1,1,0,0,1-.75-.33c-3.71-4.14-7.34-11.13-7.49-11.42a1,1,0,1,1,1.78-.92c0,.07,3.66,7.06,7.2,11a1,1,0,0,1-.08,1.42A1,1,0,0,1,118.87,193.67Z"/><path class="cls-11" d="M227.75,221.79c1,8.33-5.19,9.72-13.49,10.75s-15.55,1.32-16.58-7a15.15,15.15,0,1,1,30.07-3.74Z"/><path class="cls-3" d="M207.68,234.07a17.64,17.64,0,0,1-4.71-.56c-3.7-1-5.76-3.62-6.29-7.86a16.18,16.18,0,0,1,3.28-12,16.13,16.13,0,0,1,22.68-2.82,16.16,16.16,0,0,1,6.11,10.78h0c1.23,9.94-7.42,11-14.37,11.88A55.23,55.23,0,0,1,207.68,234.07Zm5-24.62a15.15,15.15,0,0,0-1.77.11,14.17,14.17,0,0,0-12.29,15.84c.42,3.41,2,5.37,4.84,6.19s7,.41,10.62,0c9.42-1.17,13.48-2.84,12.63-9.64a14.17,14.17,0,0,0-14-12.46Z"/><path class="cls-8" d="M204.75,222.54a.27.27,0,0,0,0,.09,9.46,9.46,0,1,0,18.89-.13,10.09,10.09,0,0,0-.28-2.28,9.56,9.56,0,0,0-9.24-7.64A9.73,9.73,0,0,0,204.75,222.54Z"/><path class="cls-3" d="M214.19,233.54a10.73,10.73,0,0,1-10.44-10.9v-.1h0a10.76,10.76,0,0,1,10.37-11h.06A10.51,10.51,0,0,1,224.34,220a11.55,11.55,0,0,1,.3,2.5,10.74,10.74,0,0,1-10.37,11Zm-8.44-10.95s0,.1,0,.13a8.72,8.72,0,0,0,8.45,8.82h.06a8.73,8.73,0,0,0,8.39-9,9.44,9.44,0,0,0-.25-2.06,8.48,8.48,0,0,0-8.26-6.87,8.76,8.76,0,0,0-8.38,9Zm-1-.05h0Z"/><path class="cls-6" d="M204.75,222.54a38.87,38.87,0,0,0,18.61-2.32,9.56,9.56,0,0,0-9.24-7.64A9.73,9.73,0,0,0,204.75,222.54Z"/><path class="cls-3" d="M208.22,222.61a6,6,0,1,0,5.93-6.55A6.25,6.25,0,0,0,208.22,222.61Z"/><path class="cls-11" d="M204.36,216.81a3.29,3.29,0,1,0,3.09-3.48A3.29,3.29,0,0,0,204.36,216.81Z"/><path class="cls-11" d="M214.69,225.75a1.42,1.42,0,1,0,1.34-1.5A1.42,1.42,0,0,0,214.69,225.75Z"/><path class="cls-11" d="M280.37,223.05c-1.11,8.33,4.91,9.08,13.21,10.18s15.73,2.14,16.83-6.18a15.15,15.15,0,1,0-30-4Z"/><path class="cls-3" d="M301.47,235a62.27,62.27,0,0,1-7.87-.73l-.31,0c-4.2-.56-7.84-1-10.39-2.51-2.93-1.69-4.08-4.56-3.52-8.77h0a16.16,16.16,0,1,1,32,4.26c-.56,4.2-2.67,6.64-6.45,7.46A16.82,16.82,0,0,1,301.47,235Zm-20.11-11.78h0c-.58,4.37,1.05,5.91,2.54,6.77,2.21,1.27,5.66,1.73,9.66,2.26l.3,0c4,.53,7.84,1,10.67.42s4.45-2.41,4.89-5.77a14.15,14.15,0,1,0-28.06-3.72Z"/><path class="cls-8" d="M284.76,223.23v.09a9.46,9.46,0,1,0,18.89-.14,10.09,10.09,0,0,0-.27-2.28,9.55,9.55,0,0,0-9.24-7.63A9.73,9.73,0,0,0,284.76,223.23Z"/><path class="cls-3" d="M294.21,234.23a10.75,10.75,0,0,1-10.45-10.91v-.1h0c0-6,4.67-10.91,10.37-10.95h.07a10.51,10.51,0,0,1,10.16,8.41,11,11,0,0,1,.29,2.5,10.74,10.74,0,0,1-10.37,11Zm-8.45-11v.13a8.72,8.72,0,0,0,8.45,8.83h.06a8.75,8.75,0,0,0,8.38-9,9,9,0,0,0-.24-2.06,8.57,8.57,0,0,0-8.26-6.86,8.75,8.75,0,0,0-8.39,9Zm-1,0h0Z"/><path class="cls-6" d="M284.76,223.23a39,39,0,0,0,18.62-2.33,9.55,9.55,0,0,0-9.24-7.63A9.73,9.73,0,0,0,284.76,223.23Z"/><path class="cls-3" d="M288.23,223.29a6,6,0,1,0,5.93-6.55A6.25,6.25,0,0,0,288.23,223.29Z"/><path class="cls-11" d="M284.82,218.42a3.29,3.29,0,1,0,3.09-3.48A3.3,3.3,0,0,0,284.82,218.42Z"/><path class="cls-11" d="M294.71,226.43a1.42,1.42,0,1,0,1.33-1.5A1.42,1.42,0,0,0,294.71,226.43Z"/><path class="cls-10" d="M234.2,239.92s22.37,7.71,39.55-1.38"/><path class="cls-3" d="M253.85,244a67.22,67.22,0,0,1-20-3.13,1,1,0,1,1,.65-1.89c.22.07,22.16,7.45,38.76-1.33a1,1,0,0,1,.93,1.77A43.47,43.47,0,0,1,253.85,244Z"/><path class="cls-10" d="M272.8,233.23s0,5.81,6.64,9"/><path class="cls-3" d="M279.44,243.25a.94.94,0,0,1-.43-.1c-7.13-3.44-7.21-9.66-7.21-9.92a1,1,0,0,1,2,0c0,.24.13,5.26,6.07,8.13a1,1,0,0,1-.43,1.9Zm-5.64-10h0Z"/><path class="cls-10" d="M235.46,233.23a11,11,0,0,1-4.58,9.48"/><path class="cls-3" d="M230.88,243.71a1,1,0,0,1-.61-1.79c4.72-3.7,4.23-8.37,4.2-8.57a1,1,0,0,1,2-.25,12,12,0,0,1-5,10.39A1,1,0,0,1,230.88,243.71Z"/><path class="cls-12" d="M204.49,206.94c-8.82,4.61-17.39,10.55-21.94,7a12.11,12.11,0,0,1-4.11-8c-.94-6.83,2.18-15.63,12.16-20.28,14.39-6.71,32.81-5,34.8,1.91a4.62,4.62,0,0,1,.16.84C226.25,196.06,215,201.46,204.49,206.94Z"/><path class="cls-3" d="M185.91,216a6.28,6.28,0,0,1-4-1.27,13.13,13.13,0,0,1-4.49-8.64c-.92-6.68,1.87-16.26,12.73-21.33,11.66-5.43,24.84-5.23,31.33-2.27,2.61,1.19,4.29,2.85,4.85,4.81a5.76,5.76,0,0,1,.2,1c.71,7.85-9.71,13.28-19.79,18.53l-1.81,1h0c-1.48.77-3,1.58-4.4,2.38C195.16,213.18,190,216,185.91,216ZM210,182.48A45.9,45.9,0,0,0,191,186.61c-9.88,4.6-12.42,13.24-11.6,19.23a11.15,11.15,0,0,0,3.73,7.34c3.27,2.53,9.66-1,16.43-4.72,1.46-.81,2.95-1.63,4.44-2.41l1.82-1c9.49-4.94,19.31-10.06,18.72-16.56a3.93,3.93,0,0,0-.13-.65c-.5-1.75-2.32-2.9-3.76-3.55A26.94,26.94,0,0,0,210,182.48Zm-5.47,24.46h0Z"/><path class="cls-12" d="M326.63,206.58a11.49,11.49,0,0,1-3.87,6.69c-4.54,3.51-13.12-2.43-21.94-7-9.15-4.79-18.95-9.52-20.78-15.74a7,7,0,0,1-.28-2.74c.69-7.61,20-9.73,34.95-2.75C325.34,190,328.19,199.61,326.63,206.58Z"/><path class="cls-3" d="M319.42,215.32c-4.08,0-9.26-2.85-14.66-5.82-1.45-.8-2.92-1.61-4.4-2.38l-1.82-1c-8.66-4.51-17.63-9.18-19.46-15.4a8.16,8.16,0,0,1-.31-3.11c.19-2.08,1.53-3.9,3.88-5.25,8-4.6,23.08-2.7,32.49,1.68,11,5.12,14.17,15.09,12.47,22.71h0a12.4,12.4,0,0,1-4.24,7.26A6.22,6.22,0,0,1,319.42,215.32Zm-24-33.58c-4.9,0-9.12.88-11.76,2.4-1.79,1-2.76,2.27-2.89,3.7a5.9,5.9,0,0,0,.24,2.36c1.59,5.41,10.17,9.88,18.47,14.2l1.82.94c1.49.78,3,1.6,4.43,2.4,6.78,3.73,13.18,7.26,16.43,4.74a10.46,10.46,0,0,0,3.51-6.12h0c1.53-6.83-1.39-15.81-11.37-20.45A45.58,45.58,0,0,0,295.41,181.74Z"/><path class="cls-6" d="M216.06,333.75c-14.29,21.07-81.42,12.63-79.34-28.92-27.79,0-55.15-31.94-38.23-57.2-14.07-15.53-19.8-38.74-6.74-54-1.6,16.34-.26,41.64,22.46,46.34-13.08,8.8-14.93,55.35,23.9,46.93,6.91,23.94,21.56,43.45,41.95,29.71s19.24-32.17,19.24-32.17,17.62,12.46,16,28.74C204.35,316.42,199.33,327.48,216.06,333.75Z"/><path class="cls-6" d="M341.27,325.6c-1.14,21.6-60.13,24.38-81.45,4.85a27.21,27.21,0,0,1-3.06-3.12c-2.63-3.09-6.12-8.32-6.76-14.84-1.07-10.72,6.78-17.59,6.78-17.59s0,35.13,29,39.44c21.74,3.23,30.39-9.63,33.37-16.31a23.24,23.24,0,0,0,1.36-3.79,8.88,8.88,0,0,1,1.25-.31,11.17,11.17,0,0,1,6,.36c.2.08.4.16.6.26a7.74,7.74,0,0,1,2.46,1.87c3.85,4.39,22.94,4.11,32.13,1s4.87-22.63,4.87-22.63,9.18-.84,18.5-2C393,311.11,372.73,338.49,341.27,325.6Z"/><path class="cls-6" d="M396.85,211a21.89,21.89,0,0,0-13.45-1.91s13.17-21.24,9.08-32.34-26.05-22.42-26.05-22.42l1.14-8.25C394.44,144.77,415.61,186.31,396.85,211Z"/><path class="cls-6" d="M398.07,211.64a9.84,9.84,0,0,1,1.38.93A15.43,15.43,0,0,0,398.07,211.64Z"/><path class="cls-11" d="M116.58,160c2.49,7,31.16-5.13,26.56-14.7S112.92,149.7,116.58,160Z"/><path class="cls-11" d="M155.11,298.07c-1,7.68,23.71,14.05,26.82,3.74S156.44,287.34,155.11,298.07Z"/><path class="cls-11" d="M347.83,235c-2,5.35,15.6,15.22,20,5.78S351.72,224.66,347.83,235Z"/><path class="cls-11" d="M317,285.52c1.46,8.44,19.16,4.65,19.09-2.66S315.05,274.31,317,285.52Z"/><path class="cls-11" d="M255.44,166.14c5.56,8.6,41.85-11.21,35.95-28.27S244,148.51,255.44,166.14Z"/><path class="cls-11" d="M251.26,183.32c3.23,5.67,13.51-2.31,8.56-6.92A5.53,5.53,0,0,0,251.26,183.32Z"/><path class="cls-11" d="M134.16,211c3.22,6.1,19.2,2.38,16.08-6.6S131.5,205.94,134.16,211Z"/><path class="cls-11" d="M152.72,180c-1.61,6.29,12.46,10.86,15.91,3.32S155.26,170.12,152.72,180Z"/><path class="cls-11" d="M142.51,263.78c-.94,2,6.82,11.23,10.21,4.18S145.46,257.4,142.51,263.78Z"/><circle class="cls-13" cx="190.34" cy="244.68" r="11.61" transform="translate(-91.52 373.71) rotate(-76.72)"/><circle class="cls-13" cx="316.86" cy="248.08" r="11.61" transform="translate(-82.61 296.72) rotate(-45)"/><path class="cls-6" d="M225.56,188.45c.69,7.61-10.61,13-21.07,18.49-8.82,4.61-17.39,10.55-21.94,7a12.11,12.11,0,0,1-4.11-8c10.81-8.16,26-15.63,47-18.37A4.62,4.62,0,0,1,225.56,188.45Z"/><path class="cls-6" d="M326.63,206.58a11.49,11.49,0,0,1-3.87,6.69c-4.54,3.51-13.12-2.43-21.94-7-9.15-4.79-18.95-9.52-20.78-15.74A204.43,204.43,0,0,1,326.63,206.58Z"/><path class="cls-8" d="M304.45,339.37s13.62,52.52,5.61,50.34a10.44,10.44,0,0,1-1.18-.43c-7.68-3.42-15.76-19.07-15.76-19.07l-10.83-1.08-1.93-22.9,18.1-5.15Z"/><path class="cls-3" d="M310.52,390.77a2.55,2.55,0,0,1-.72-.1,8.32,8.32,0,0,1-1.33-.48c-7.22-3.22-14.52-16.3-16-19l-10.3-1a1,1,0,0,1-.89-.91l-1.94-22.9a1,1,0,0,1,.73-1l24.09-6.86a1,1,0,0,1,.77.09,1,1,0,0,1,.47.62c2,7.66,11.64,46.12,6.73,51A2.25,2.25,0,0,1,310.52,390.77Zm-27.3-22.55,10,1a1,1,0,0,1,.79.54c.08.15,8,15.38,15.27,18.62a8.1,8.1,0,0,0,1.05.37c.27.07.34,0,.42-.07,1.66-1.64,1.2-16.14-7-48.06L281.42,347Z"/><path class="cls-9" d="M304.45,339.37s13.62,52.52,5.61,50.34a10.44,10.44,0,0,1-1.18-.43l-10.42-48.2Z"/><path class="cls-3" d="M310.52,390.77a2.55,2.55,0,0,1-.72-.1,8.32,8.32,0,0,1-1.33-.48,1,1,0,0,1-.57-.7l-10.42-48.2a1,1,0,0,1,.71-1.18l6-1.7a1,1,0,0,1,.77.09,1,1,0,0,1,.47.62c2,7.66,11.64,46.12,6.73,51A2.25,2.25,0,0,1,310.52,390.77Zm-.78-2.22a5.8,5.8,0,0,0,.59.19c.27.07.34,0,.42-.07,1.66-1.64,1.2-16.14-7-48.06l-4.1,1.17Z"/></g></g></svg>