<svg id="Layer_1" data-name="Layer 1" xmlns="http://www.w3.org/2000/svg" viewBox="0 0 2300 2000"><defs><style>.cls-1{fill:#ccebea;}.cls-2{fill:#f75553;}.cls-3{fill:#febac7;}.cls-4{fill:#f4a6b9;}.cls-5{opacity:0.3;}.cls-6{fill:#fff;}.cls-7{fill:#fecc86;}.cls-8{fill:#133671;}.cls-9{fill:#fe9f73;}.cls-10{fill:#f07162;}.cls-11{fill:#fdc9bc;}</style></defs><path class="cls-1" d="M1929.05,1558c-345.36,370.52-860.32,383.77-1211.88,213.56C564.69,1697.68,190.92,1569.64,166.5,1154,134.57,610.38,478.67,314.7,647.17,217.24c231.3-133.79,512.9-126.51,694.3,34.35,74.6,66.15,233.65,99.6,317.06,103.06,207.06,8.58,407.54,144.38,476.15,463C2185.68,1054.55,2114.76,1358.72,1929.05,1558Z"/><path class="cls-2" d="M634.09,1131.62l-1.25-.16c-106.75-13.06-234.2-37.5-235.13-79.76-.9-41.05,118.86-70.5,219.48-88,140-24.31,327.34-40.48,527.62-45.53l27.94-.71-26.53,8.78-16.23,5.4C940.1,995.19,764.38,1066,635.21,1131.05Zm483-204.37C927.76,933,751.66,948.77,618.61,971.89c-133.72,23.22-213.2,53-212.62,79.63.61,27.44,85.29,54.18,226.61,71.57C759.68,1059.19,931.32,989.82,1117.09,927.25Z"/><path class="cls-2" d="M1696.42,946.64l-1.24-.15c-143.56-17.57-332.87-24.82-533.06-20.42q-8.56.18-17.1.4l-27.94.71,26.54-8.78c190.2-62.95,372-111.06,512-135.48,100.62-17.56,223.28-30.32,236.31,8.61,13.41,40.09-98.28,106.17-194.34,154.55Zm-421.21-30.11c157.42,0,303.42,7.43,419.73,21.58C1822.06,874,1892.73,820.2,1884,794.16c-8.46-25.26-93.32-26.42-227-3.08C1524,814.3,1352.9,859,1172.77,917.55,1207.31,916.87,1241.53,916.53,1275.21,916.53Z"/><path class="cls-3" d="M1338.36,812.51c-108.2-42.22-128.16,12.58-128.16,12.58-57.77,3.59-56.81,58.39-56.81,58.39v700.73c5.17,67.37,83.07,46.71,83.07,46.71,4.21,93.43,99.8,81.75,99.8,81.75,184.87,70.07,237.4-95.23,237.4-95.23,187-134.75,50.42-300,50.42-300,32.56-177.88-99.8-243.46-99.8-243.46,30.47-117.68-98.74-174.28-98.74-174.28S1446.55,854.73,1338.36,812.51Z"/><path class="cls-4" d="M733.13,1617.44s52.52,165.31,237.4,95.23c0,0,95.59,11.68,99.79-81.75,0,0,77.9,20.66,83.07-46.71V883.48s1-54.8-56.81-58.4c0,0-20-54.8-128.16-12.58s-87.18,87.15-87.18,87.15S752,956.25,782.5,1073.93c0,0-132.35,65.58-99.79,243.46C682.71,1317.39,546.15,1482.69,733.13,1617.44Z"/><g class="cls-5"><path class="cls-6" d="M1238.92,845a4.42,4.42,0,0,0-5.1,3.6,120.32,120.32,0,0,0,2.83,47.35c6.23,22.91,23,52.21,67.38,61.69a161.78,161.78,0,0,0,33.8,3.81,112.34,112.34,0,0,0,28.79-3.54c2.6,2.33,10.3,10.07,15.22,23.7,7.94,22,5.08,49.42-8.29,79.29s-35.77,46-66.54,47.8a113.12,113.12,0,0,1-43.41-6.48,4.42,4.42,0,1,0-3.28,8.2,120.41,120.41,0,0,0,41,7.28q2.89,0,5.9-.16c23.71-1.32,55.86-11.58,74.4-53,18.25-40.77,14.6-69.54,8.33-86.49a70.73,70.73,0,0,0-13.87-23.16,81.54,81.54,0,0,0,14.29-7.13c16.86-10.69,23.1-23.73,23.36-24.28a4.42,4.42,0,0,0-8-3.76c0,.11-5.65,11.59-20.57,20.87-19.85,12.36-47.26,15.28-79.27,8.44s-52.45-25.38-60.63-55.09a113.54,113.54,0,0,1-2.73-43.81A4.42,4.42,0,0,0,1238.92,845Z"/></g><g class="cls-5"><path class="cls-6" d="M1311.75,1269.46c-16.67-25.32-39-28.63-54.76-26.94a79.86,79.86,0,0,0-30,9.69,4.42,4.42,0,0,0,4.56,7.57,72,72,0,0,1,26.64-8.5c19.28-2,34.81,5.79,46.17,23,26.21,39.79,8.62,62.48,6.25,65.24a85,85,0,0,0-10.55,6.86,107.89,107.89,0,0,0-27.87,32.08,4.42,4.42,0,0,0,7.82,4.12,100.64,100.64,0,0,1,25.62-29.34c21.78-16.42,46.1-18.41,72.29-5.91s43.89,29.34,51.18,48.73a53.28,53.28,0,0,1,3.44,23.94c-6.89,19.92-7.88,46.15,11.35,75.67,14.84,22.79,30.34,36.33,44.18,44.33.19,3.49.2,14.41-5.94,27.55-9.89,21.2-31.26,38.61-61.81,50.35s-57.8,7.37-80.88-13.06a113.5,113.5,0,0,1-26.19-35.21,4.42,4.42,0,1,0-8.12,3.49,120.36,120.36,0,0,0,28.22,38.12c12.38,11,30.74,21.86,55.11,21.86a97.29,97.29,0,0,0,35-7c41.7-16,59.4-39,66.91-55.43a70.88,70.88,0,0,0,6.52-26.2,81.3,81.3,0,0,0,15.15,5,74.57,74.57,0,0,0,16.07,1.79c10.55,0,17.22-2.38,17.62-2.52a4.42,4.42,0,0,0-3-8.31c-.12,0-12.18,4.23-29.3.29-22.79-5.25-44.28-22.52-62.15-49.94-14.23-21.85-18-43.74-11.32-65.28a4.38,4.38,0,0,0,1-1.9c0-.11.16-.75.31-1.84a86.9,86.9,0,0,1,6-12.8,113.31,113.31,0,0,1,29-33,4.42,4.42,0,1,0-5.11-7.21,120.62,120.62,0,0,0-30.71,34.38,67.36,67.36,0,0,0-2.74-9.69c-5.57-15.21-19.78-37-55.87-54.19-22.87-10.91-42.32-10.51-57.85-5.55a49.15,49.15,0,0,0,2.49-8.59C1328.68,1313.43,1328,1294.16,1311.75,1269.46Z"/></g><g class="cls-5"><path class="cls-6" d="M1414.59,1123.85a63.4,63.4,0,0,0-23.72,7.66,3.5,3.5,0,0,0,3.61,6,57,57,0,0,1,21.07-6.73c15.24-1.55,27.52,4.58,36.51,18.22,21.69,32.94,5.44,51.06,4.76,51.8a3.49,3.49,0,0,0,5,4.82c.23-.24,5.55-5.91,7.58-16.34,1.83-9.35,1.3-24.59-11.56-44.12a51.55,51.55,0,0,0-12.49-13.44,57.51,57.51,0,0,1,.94-20.82c3.65-14.88,13.54-24.39,29.4-28.29,38.3-9.39,49.93,12,50.4,12.88a3.49,3.49,0,0,0,6.23-3.15c-.15-.29-3.71-7.21-12.85-12.62-8.2-4.85-22.73-9.47-45.44-3.89-23.28,5.71-31.66,21.45-34.58,33.66a63.37,63.37,0,0,0-1.54,17.86A44.81,44.81,0,0,0,1414.59,1123.85Z"/></g><g class="cls-5"><path class="cls-6" d="M817.6,1540.83c-17.12,3.94-29.19-.24-29.31-.29a4.42,4.42,0,0,0-3,8.31c.39.14,7.06,2.52,17.62,2.52a74.64,74.64,0,0,0,16.07-1.79,81.78,81.78,0,0,0,15.15-5,70.62,70.62,0,0,0,6.51,26.2c7.51,16.43,25.22,39.4,66.91,55.43a97.33,97.33,0,0,0,35,7c24.38,0,42.74-10.83,55.11-21.86a120.36,120.36,0,0,0,28.22-38.12,4.41,4.41,0,1,0-8.11-3.49,113.44,113.44,0,0,1-26.2,35.21c-23.07,20.43-50.29,24.82-80.88,13.06s-51.92-29.15-61.81-50.35c-6.13-13.14-6.13-24.06-5.93-27.55,13.83-8,29.33-21.54,44.17-44.33,19.23-29.52,18.24-55.75,11.35-75.67a53.19,53.19,0,0,1,3.45-23.94c7.29-19.39,25-36.24,51.18-48.73s50.51-10.51,72.28,5.91a100.45,100.45,0,0,1,25.62,29.34,4.42,4.42,0,1,0,7.82-4.12,107.89,107.89,0,0,0-27.87-32.08,84.86,84.86,0,0,0-10.54-6.86c-2.38-2.76-20-25.45,6.24-65.24,11.36-17.25,26.9-25,46.17-23a72.16,72.16,0,0,1,26.65,8.5,4.42,4.42,0,0,0,4.56-7.57,79.86,79.86,0,0,0-30-9.69c-15.79-1.69-38.1,1.62-54.77,26.94-16.26,24.7-16.92,44-14.62,55.79a50,50,0,0,0,2.49,8.59c-15.52-5-35-5.36-57.85,5.55-36.09,17.22-50.3,39-55.86,54.19a68.79,68.79,0,0,0-2.75,9.69A120.62,120.62,0,0,0,860,1368.89a4.42,4.42,0,0,0-5.11,7.21,113.31,113.31,0,0,1,29,33,87,87,0,0,1,6,12.8c.14,1.09.28,1.73.3,1.84a4.38,4.38,0,0,0,.95,1.9c6.68,21.54,2.91,43.43-11.32,65.28C861.88,1518.31,840.39,1535.58,817.6,1540.83Z"/></g><g class="cls-5"><path class="cls-6" d="M891.55,1109.48c-2.93-12.21-11.31-28-34.58-33.66-22.71-5.58-37.25-1-45.44,3.89-9.14,5.41-12.71,12.33-12.86,12.62a3.5,3.5,0,0,0,6.24,3.15c.47-.9,12.09-22.27,50.39-12.88,15.87,3.9,25.76,13.41,29.4,28.29a57.51,57.51,0,0,1,.94,20.82,51.72,51.72,0,0,0-12.49,13.44c-12.86,19.53-13.38,34.77-11.56,44.12,2,10.43,7.36,16.1,7.58,16.34a3.49,3.49,0,1,0,5.06-4.82c-.69-.74-16.93-18.86,4.76-51.8,9-13.64,21.26-19.77,36.5-18.22a56.88,56.88,0,0,1,21.07,6.73,3.5,3.5,0,0,0,3.61-6,63.31,63.31,0,0,0-23.72-7.66,44.82,44.82,0,0,0-23.37,3.49A62.94,62.94,0,0,0,891.55,1109.48Z"/></g><g class="cls-5"><path class="cls-6" d="M1250.71,1457c28.59-7,37.24,8.58,37.57,9.21a4.42,4.42,0,0,0,7.89-4c-.47-.93-11.86-22.57-47.56-13.81-19,4.68-25.92,17.59-28.32,27.6a50.37,50.37,0,0,0-1.32,11.84,37.44,37.44,0,0,0-16.73-1.86,51.36,51.36,0,0,0-19.26,6.24,4.42,4.42,0,0,0,4.55,7.57c1.09-.66,26.91-15.69,42.83,8.48,16.18,24.58,4.39,38,3.91,38.48a4.42,4.42,0,0,0,6.4,6.1c.72-.75,17.29-18.73-2.93-49.44a42.39,42.39,0,0,0-9.63-10.55C1227.27,1486.45,1226.05,1463.09,1250.71,1457Z"/></g><g class="cls-5"><path class="cls-6" d="M1576.94,1431.93c-25.35,15-38.13,2.51-38.63,2a4.42,4.42,0,0,0-6.41,6.08c.47.49,8,8.12,21.95,8.12,7.4,0,16.62-2.14,27.58-8.6a42.46,42.46,0,0,0,11-9.1c6.51-.51,29.9-.58,34.72,24.36,5.59,28.89-10.41,36.76-11.05,37.06a4.42,4.42,0,0,0,1.79,8.46,4.37,4.37,0,0,0,1.79-.38c1-.42,23.13-10.73,16.15-46.82-3.73-19.26-16.29-26.76-26.17-29.65a50.07,50.07,0,0,0-11.76-1.9,37.46,37.46,0,0,0,2.68-16.62,51.34,51.34,0,0,0-5.27-19.55,4.42,4.42,0,1,0-7.78,4.18,42.61,42.61,0,0,1,4.23,15.87C1592.42,1416.83,1587.43,1425.74,1576.94,1431.93Z"/></g><g class="cls-5"><path class="cls-6" d="M1007.19,949c-32,6.84-59.42,3.92-79.27-8.44-14.92-9.28-20.52-20.76-20.57-20.87a4.42,4.42,0,0,0-8,3.76c.26.55,6.5,13.59,23.36,24.28A81.54,81.54,0,0,0,937,954.9a70.73,70.73,0,0,0-13.87,23.16c-6.27,17-9.92,45.72,8.33,86.49,18.54,41.45,50.69,51.71,74.4,53q3,.17,5.9.16a120.41,120.41,0,0,0,41-7.28,4.42,4.42,0,1,0-3.28-8.2,113.12,113.12,0,0,1-43.41,6.48c-30.76-1.8-53.15-17.88-66.54-47.8s-16.23-57.29-8.29-79.29c4.92-13.63,12.62-21.37,15.22-23.7a112.34,112.34,0,0,0,28.79,3.54,161.78,161.78,0,0,0,33.8-3.81c44.4-9.48,61.15-38.78,67.39-61.69a120.54,120.54,0,0,0,2.83-47.35,4.42,4.42,0,0,0-8.71,1.5,113.54,113.54,0,0,1-2.73,43.81C1059.64,923.66,1039.24,942.2,1007.19,949Z"/></g><g class="cls-5"><path class="cls-6" d="M1125.54,1499.85a4.42,4.42,0,0,0,4.56-7.57,51.53,51.53,0,0,0-19.27-6.24,37.45,37.45,0,0,0-16.73,1.86,50.37,50.37,0,0,0-1.32-11.84c-2.4-10-9.27-22.92-28.32-27.6-35.7-8.76-47.09,12.88-47.56,13.81a4.42,4.42,0,0,0,7.89,4c.33-.63,9-16.22,37.57-9.21,24.66,6,23.44,29.41,22.6,35.88a42.58,42.58,0,0,0-9.63,10.55c-20.22,30.71-3.64,48.69-2.93,49.44a4.42,4.42,0,0,0,6.4-6.1c-.48-.52-12.27-13.9,3.91-38.48C1098.63,1484.16,1124.45,1499.19,1125.54,1499.85Z"/></g><g class="cls-5"><path class="cls-6" d="M677.24,1453.12c-7,36.09,15.19,46.4,16.14,46.82a4.37,4.37,0,0,0,1.79.38,4.42,4.42,0,0,0,1.8-8.46c-.65-.3-16.65-8.17-11.06-37.06,4.82-24.94,28.21-24.87,34.72-24.36a42.63,42.63,0,0,0,11,9.1c11,6.46,20.18,8.6,27.58,8.6,14,0,21.48-7.63,21.95-8.12a4.42,4.42,0,0,0-6.41-6.08c-.5.5-13.28,12.94-38.63-2-10.49-6.19-15.48-15.1-14.83-26.48a42.61,42.61,0,0,1,4.23-15.87,4.42,4.42,0,1,0-7.78-4.18,51.34,51.34,0,0,0-5.27,19.55,37.33,37.33,0,0,0,2.69,16.62,49.91,49.91,0,0,0-11.76,1.9C693.52,1426.36,681,1433.86,677.24,1453.12Z"/></g><path class="cls-2" d="M1156.27,1152.24l26.54-8.77,16.23-5.4c189.88-63.53,365.6-134.34,494.78-199.39l1.12-.57,1.25.15c106.75,13.06,234.2,37.5,235.12,79.77h0c.9,41-118.85,70.5-219.48,88-139.95,24.31-327.33,40.48-527.62,45.53Zm540.15-205.6c-127.08,63.9-298.72,133.27-484.49,195.84,189.34-5.79,365.43-21.52,498.48-44.64,133.72-23.23,213.2-53,212.62-79.63h0C1922.43,990.76,1837.74,964,1696.42,946.64Z"/><path class="cls-2" d="M517.63,1303.72c-42.46,0-74.2-6.76-80.48-25.52-13.41-40.09,98.27-106.17,194.33-154.55l1.12-.56,1.25.15c143.56,17.56,332.87,24.82,533.05,20.42q8.58-.18,17.1-.4l27.93-.71-26.52,8.78c-190.21,62.94-372,111.06-512,135.48C621.33,1295.91,563.28,1303.72,517.63,1303.72Zm116.46-172.1C507,1195.74,436.3,1249.53,445,1275.57c8.45,25.26,93.31,26.41,227,3.08,133-23.22,304.08-67.93,484.23-126.48C960.27,1156.07,775.29,1148.8,634.09,1131.62Z"/><polygon class="cls-7" points="436.19 999.4 436.71 1036.62 467.67 1057.28 432.44 1069.29 422.36 1105.12 400.05 1075.32 362.86 1076.8 384.31 1046.38 371.41 1011.46 406.97 1022.46 436.19 999.4"/><polygon class="cls-7" points="1697.9 1057.51 1698.37 1090.46 1725.77 1108.75 1694.58 1119.38 1685.66 1151.09 1665.91 1124.71 1632.99 1126.02 1651.98 1099.09 1640.56 1068.19 1672.04 1077.92 1697.9 1057.51"/><polygon class="cls-8" points="1616.37 766.09 1608.89 789.02 1623.55 808.18 1599.42 808.16 1585.73 828.03 1578.3 805.08 1555.17 798.19 1574.7 784.03 1574.11 759.91 1593.61 774.11 1616.37 766.09"/><polygon class="cls-8" points="788.55 1235.07 781.07 1258.01 795.73 1277.17 771.61 1277.15 757.91 1297.02 750.48 1274.06 727.35 1267.18 746.88 1253.02 746.29 1228.9 765.79 1243.09 788.55 1235.07"/><polygon class="cls-8" points="277.38 1212.52 273.56 1224.23 281.05 1234.02 268.72 1234.01 261.73 1244.15 257.93 1232.43 246.12 1228.91 256.1 1221.68 255.79 1209.36 265.75 1216.61 277.38 1212.52"/><polygon class="cls-8" points="1388.09 1128.24 1384.27 1139.95 1391.76 1149.74 1379.43 1149.73 1372.44 1159.87 1368.64 1148.15 1356.83 1144.63 1366.81 1137.4 1366.5 1125.08 1376.46 1132.33 1388.09 1128.24"/><polygon class="cls-7" points="1962.57 1145.63 1958.76 1157.35 1966.24 1167.14 1953.92 1167.13 1946.93 1177.27 1943.13 1165.55 1931.32 1162.03 1941.29 1154.8 1940.99 1142.48 1950.95 1149.73 1962.57 1145.63"/><polygon class="cls-7" points="940.65 758.13 834.87 588.36 813.78 651.99 707.49 540.77 821.52 731.79 847.39 674.22 940.65 758.13"/><polygon class="cls-7" points="1326.91 739.09 1462.85 592.36 1395.91 588.76 1475.24 456.95 1320.96 617.23 1383.32 627.03 1326.91 739.09"/><polygon class="cls-8" points="1128.06 668.18 1186.38 411.81 1107.82 451.71 1111.5 249.53 1041.21 533.38 1118.64 503.56 1128.06 668.18"/><path class="cls-9" d="M2153,1582.9c.28,1.32.54,2.68.79,4.07,2.46,13.87,3.29,30.61-3.42,41.41l-5.66,6.22,0,0-2.39,2.6v0l-138.15,151.61h0c-29.74,32.62-83.44,13.49-107.57,2.39l-.15-.08q-5.94-3-12.14-6.13l0,0c-50.85-25.5-113.33-54.63-152.49-65-49.73-13.22-129.4-59.52-182-92.84l-3.74-2.39c-4.22-2.68-8.24-5.28-12-7.74l-3.74-2.45c-16.69-10.91-28.46-19.13-32.29-22.17-5.91-4.71-23.84-16.24-43.64-28.62-21.55-13.48-45.33-28-58.23-35.81l-3.81-2.32-.6-.36-5.21-3.15c-18.6-28.6,23.79-72.05,71.89-66.34S1604.15,1510,1604.15,1510s-269.36-321.93-290.87-346.79c-27.54-31.83-16.72-71.13,21.86-75.6,23.48-2.72,150.93,120.54,150.93,120.54l116.29,113.52,1.9,1.87c-.38-63.73,66.57-75.08,66.57-75.08,27.74-33.57,77.62-40.47,77.62-40.47s9.37-14.59,64.86-31.07,137.49,150.64,160.36,180.14C1992,1380.75,2107.74,1526.11,2153,1582.9Z"/><path d="M1547.94,1588.57a2.13,2.13,0,0,1-.38,1.2c-5.93,8.61-10.48,18.92-13.6,27.24-1.28-.82-2.52-1.64-3.74-2.44,3.19-8.37,7.77-18.56,13.76-27.26a2.17,2.17,0,0,1,4,1.26Z"/><path d="M1562.53,1601.82a2.19,2.19,0,0,1-.39,1.19,125.58,125.58,0,0,0-12.4,24.13l-3.74-2.39a126.86,126.86,0,0,1,12.56-24.2,2.19,2.19,0,0,1,3-.56A2.23,2.23,0,0,1,1562.53,1601.82Z"/><path class="cls-10" d="M1456.85,1542c.85,8.25-1,16.69-2.56,21.79-21.55-13.47-45.33-28-58.23-35.8l-3.81-2.32c1.37-3.24,2.92-6.53,4.63-9.84,3-5.71,10.26-8.18,16.88-5.89.33.1.64.22,1,.35L1450.1,1525S1455.5,1528.91,1456.85,1542Z"/><path class="cls-11" d="M1413.82,1509.92h-.06c-4.7-.49-10.73,3.39-12.81,7.38-1.87,3.61-3.49,7.18-4.89,10.67l-3.81-2.32-.6-.36c1.29-3.11,2.75-6.26,4.41-9.45,2.61-5,10.68-8.87,16.44-6.47Z"/><path class="cls-10" d="M1342.46,1098.56a8.62,8.62,0,0,0-11.84.06l-22.37,20c-3.74,3.35-4.19,8.61-1.14,11.92h0l.32.31,28.13,27.11.28.27,0,0c3,2.54,7.86,2,11.16-1.13l19.71-19c3.15-3,3.73-7.71,1.38-10.69h0l-.25-.28-25.11-28.25-.28-.32Z"/><path class="cls-11" d="M1342.46,1098.56a8.62,8.62,0,0,0-11.84.06l-22.37,20c-3.74,3.35-4.19,8.61-1.14,11.92h0l.32.31,2.58,2.49v0c-3-3.26-2.55-8.48,1.16-11.82l22.16-20c3.53-3.18,8.68-3.17,11.71-.12h0l-2.3-2.59-.28-.32Z"/><path d="M1867.32,1720a2.22,2.22,0,0,0,1.63,1.46c26.5,5.74,66.7-10.1,68.4-10.78a2.2,2.2,0,1,0-1.63-4.09c-.4.16-40.65,16-65.84,10.56a2.21,2.21,0,0,0-2.62,1.69A2.27,2.27,0,0,0,1867.32,1720Z"/><path d="M1845.7,1698.62a2.22,2.22,0,0,0,1.17,1.31c24.65,11.33,67.32,4.53,69.12,4.23a2.2,2.2,0,1,0-.71-4.34c-.42.07-43.15,6.88-66.57-3.89a2.2,2.2,0,0,0-3,2.69Z"/><path d="M1496.73,1593.9c-5-4-19.67-13.62-43.46-28.5-21.79-13.63-45.82-28.27-58.21-35.79l-3.81-2.32-.62-.38-5.19-3.14-.37-.22-.24-.37c-6.89-10.6-6.27-24,1.7-36.86,11.79-19,40.32-36.2,72-32.43,40.34,4.79,113.84,38.74,138.37,50.5-39.25-46.9-265.6-317.34-285.09-339.88-14.62-16.89-19.52-36.82-13.1-53.31,5.5-14.15,18.69-23.43,36.18-25.45l.45,3.81c-16,1.86-28.08,10.26-33,23-5.89,15.14-1.25,33.61,12.42,49.41,21.27,24.58,288.2,343.59,290.9,346.81l5.88,7-8.21-4.08c-1-.48-98-48.45-145.2-54.06-30.11-3.57-57.15,12.71-68.31,30.65-7.16,11.53-7.86,23-2,32.37l4.84,2.93.57.34,3.84,2.34c12.39,7.52,36.43,22.18,58.25,35.82,23.91,14.95,38.65,24.62,43.82,28.74Z"/><polygon class="cls-10" points="1604.58 1322.79 1638.25 1353.54 1606.43 1306.41 1604.58 1322.79"/><polygon class="cls-10" points="1671.86 1250.28 1723.55 1300.43 1678.73 1240.5 1671.44 1248.14 1671.86 1250.28"/><polygon class="cls-10" points="1748.52 1209.77 1798.47 1256.42 1756.27 1202.34 1748.52 1209.77"/><path d="M2152.06,1578.66c.32,1.35.63,2.77.93,4.24.28,1.32.54,2.68.79,4.07-43.53-54.64-163.09-204.77-181.62-228.69-5.09-6.55-12.91-19.57-22.82-36.06-17.28-28.79-41-68.21-65.52-98.52-28-34.59-51.3-49.77-69.16-45.12l-.8.22c-32.49,9.65-49,18.67-57,24.31-5.2,3.68-6.78,5.92-6.83,6l-.47.71-.86.14h0c-1.15.16-41.6,6.24-69,31.91a84.28,84.28,0,0,0-7.43,7.88l-.45.55-.71.12a98.18,98.18,0,0,0-32.81,13.43c-17,11-27.28,25.85-30.8,44.24a80.16,80.16,0,0,0-1.36,15.51h-3.84c0-.63,0-1.26,0-1.88.47-32.62,18.66-51.24,34-61.18a101.26,101.26,0,0,1,33.44-13.78c26.37-31.41,70.9-39.45,77.6-40.5,2.71-3.27,16.17-16.52,65.36-31.12.31-.1.64-.19,1-.27,44.63-11.62,103.59,86.56,138.92,145.38,9.84,16.38,17.6,29.32,22.55,35.69C1993.09,1379,2105.21,1519.83,2152.06,1578.66Z"/></svg>