<svg id="Layer_1" data-name="Layer 1" xmlns="http://www.w3.org/2000/svg" viewBox="0 0 1200 1200"><defs><style>.cls-1{fill:#0fa6a6;}.cls-2{fill:#6fcfa1;stroke:#6fcfa1;}.cls-2,.cls-3{stroke-miterlimit:10;}.cls-3{fill:#afe8d9;stroke:#afe8d9;}.cls-4{fill:#fff;}.cls-5{fill:#222221;}</style></defs><g id="Graphic_Element" data-name="Graphic Element"><path class="cls-1" d="M699.53,968.1c-22.22-9.82-75-197.06-75-197.06l46-11.22s37.63,3.36,48.41-7.55,72.54-86.18,72.54-86.18L944,917.61S814.5,1018.92,699.53,968.1Z"/><path class="cls-2" d="M284.37,789.33l210.85-433.2,35.5-41.27,5,16.72s34.07-40.14,46.24-40.57,14.94,4.47,13.94,23.37S620,319.63,620,319.63s6.78-17.58,12.32-1.88-9.57,41.78-9.57,41.78l51-26.07,2.37,30.17L617,437.87,457,904.15S321.84,891.26,284.37,789.33Z"/><path class="cls-3" d="M795.31,249,623.59,428l-105,187.89s-29.95,37.37-8.65,37.78,72.47-29.76,72.47-29.76L529.4,729.13l14.39,9.76,44.87-50-24.87,66.64,20.47,3.55L611.55,738l4.4,27.45,20.75,1.39,23.7-12.41,17.47,4.08,64.6-51.63,186-301L959.14,291S848.79,214.34,795.31,249Z"/><path class="cls-4" d="M210.54,409.73s185.07,86.95,206,108.16,141.77,104,141.77,104,93,34.57,101,36,17.31-5,17.31-5L655,610.76l31.14,13.84s1.1-12,13.29-21.25c17.83-13.48,8.39-40.05,8.39-40.05l-66.54-73.45s36.15,24.86,50.81,23.36,6.37-20-2-31.06S369.22,281.92,369.22,281.92,219.44,351.79,210.54,409.73Z"/><path class="cls-5" d="M783,249.91q-19.12,14.28-37.22,29.85-17.92,15.44-34.73,32.1t-32.55,34.59q-15.67,17.85-30.06,36.78t-27.32,38.59q-1.65,2.52-3.28,5.05c-1.75,2.71,2.58,5.22,4.32,2.52q12.74-19.78,26.84-38.66t29.36-36.53q15.38-17.82,32-34.55t34.28-32.26q17.61-15.47,36.27-29.67l4.64-3.49a2.58,2.58,0,0,0,.9-3.42,2.51,2.51,0,0,0-3.42-.9Z"/><path class="cls-5" d="M518.81,604.62a28.88,28.88,0,0,1,1.49-2.73c1.69-2.76-2.59-5.22-4.32-2.53-5.46,8.5-11.38,16.65-16,25.66-4.39,8.59-9.37,20-5.46,29.63a15.88,15.88,0,0,0,9.27,9.09c3.73,1.24,7.92.61,11.61-.44,10.25-2.93,19.61-9.23,28.22-15.31,5-3.56,9.92-7.3,14.75-11.11,3.15-2.49,6.92-5.59,9.72-7.75L564.33,627c-.79,15.41-11.45,27.87-18.89,40.64-8.52,14.64-16.51,29.81-22.52,45.68-2.45,6.47-5.55,13.78-5,20.87.5,6.65,4.86,11.67,11.69,12.2,7.08.56,13.55-3.29,18.53-8,5.91-5.53,10.67-12.34,15.7-18.65L602.74,671l-3.93-3c-6.39,10.07-10.24,21.43-16,31.82-6,10.84-14.47,20.37-22.06,30.12-3.85,4.94-7.83,9.86-11.27,15.09-3,4.47-5.13,10-3.54,15.35,1.72,5.81,8.2,10,13.88,11.38,11.67,2.74,23.05-4.54,31.69-11.55,11.4-9.28,20.92-20.79,29.84-32.4,7.87-10.25,14.94-21,22.57-31.47,1.67-2.28-2.07-5.17-3.92-3-9.39,10.81-18.43,22-26,34.14a126.86,126.86,0,0,0-9.63,18c-2.22,5.3-3.88,11.18-3.29,17,1.35,13.43,15,18.67,26.8,14.86,12-3.89,21.59-14.13,28.84-24.07,8.62-11.82,14.66-25.26,20.59-38.56,1.29-2.9-2.51-5.27-4.32-2.53-9.54,14.5-19.27,29.62-22.06,47.08a2.55,2.55,0,0,0,2.41,3.17c4,0,7.46,2,11.2,3.24a20.62,20.62,0,0,0,10.69.37c7.22-1.39,14-4.89,20-9,13.16-9.06,23.83-21.28,34-33.43a519.29,519.29,0,0,0,34.1-44.9c11.44-17.05,21.7-34.84,33-52s23.07-34.35,34-51.93,21.83-35.19,32.37-53,20.77-35.82,30.41-54.15c9.41-17.9,18.45-36,27.61-54.06,9-17.68,17.65-35.57,24.67-54.13,7.26-19.18,12.06-39.19,18.29-58.71q2.4-7.49,4.94-14.93l-4.91-.66c0,.57-.09,1.14-.13,1.71-.23,3.21,4.77,3.19,5,0,0-.57.08-1.14.13-1.71.21-2.95-4-3.2-4.92-.67-6.64,19.42-11.83,39.25-18,58.79-6,18.9-14.12,37-22.85,54.8-8.64,17.59-17.79,34.93-26.6,52.44-9.22,18.34-19.09,36.34-29.36,54.12-20.36,35.29-41.72,70.15-64.48,103.93-5.79,8.59-11.59,17.17-17.17,25.89-5.41,8.45-10.51,17.09-15.87,25.57a501.39,501.39,0,0,1-34.45,48.81c-9.88,12.17-20,24.52-31.55,35.11a84.88,84.88,0,0,1-18.57,13.38,42.86,42.86,0,0,1-10.15,3.69,17.46,17.46,0,0,1-10.87-.87c-3.5-1.38-6.78-2.75-10.62-2.73l2.42,3.17c2.72-17.07,12.23-31.71,21.55-45.89L673,712.07c-9.13,20.5-19.22,43.95-38.85,56.6-5,3.23-11.06,5.66-17.13,4.67-5.43-.89-9.66-4.47-10.75-9.94-1-5.11.51-10.59,2.38-15.32a109.62,109.62,0,0,1,8.75-16.65c7.56-12.38,16.67-23.7,26.17-34.64l-3.93-3c-14.34,19.58-27.31,40.17-45,57-7.57,7.2-17.52,15.87-28.51,16.49A17.15,17.15,0,0,1,553.62,763c-3.91-3.44-3.85-8.07-1.58-12.52,2.67-5.25,6.77-9.95,10.35-14.59,8.08-10.47,17.24-20.61,23.89-32.08,6.26-10.77,10.16-22.74,16.85-33.29,1.49-2.35-2.13-5.28-3.92-3L567,707.84c-5.33,6.68-10.59,13.42-16,20-4.07,5-8.78,10.47-15.05,12.63-3.22,1.1-7.39,1.59-10.28-.61-2.16-1.65-2.78-4.43-2.79-7,0-6.79,3.12-13.76,5.54-20,5.87-15,13.55-29.54,21.76-43.44,7.92-13.42,18.35-26.28,19.17-42.5.09-1.75-2.26-3.32-3.76-2.16-14.58,11.26-28.71,24-45.7,31.53-6.35,2.83-14.59,5.49-19.43-1.18-5.38-7.42-.53-18.64,2.95-25.79,4.74-9.73,11.09-18.42,16.91-27.49L516,599.36c-.54.89-1,1.79-1.49,2.73-1.38,2.89,2.93,5.43,4.32,2.53Z"/><path class="cls-5" d="M368,284.08c7.27,5.06,14.32,10.43,21.72,15.29,7.61,5,15.73,9.13,23.7,13.53,16.49,9.1,32.93,18.33,49.11,28,31.32,18.66,61.83,38.58,93.45,56.75,30,17.22,60.31,33.95,89,53.33a457.71,457.71,0,0,1,42,31.78,65.11,65.11,0,0,1,14.9,19.19c1.35,2.6,3.41,6.7,2.28,9.52a3.64,3.64,0,0,1-2.6,1.72c-3.38.81-6.6-.23-9.63-1.7-15.25-7.4-29.79-16.32-45.91-21.8a100.74,100.74,0,0,0-12.16-3.32,2.52,2.52,0,0,0-2.43,4.18c5.83,6.48,14.11,9.68,20.63,15.29,7.25,6.23,14.45,12.55,21.52,19,11.55,10.5,22.15,21.83,29.49,35.71,3.1,5.87,6,12.41,6.55,19.11.35,4.18-.4,11.71-5.54,12.9-4.65,1.07-10.1-3.1-13.58-5.62-4.66-3.38-8.84-7.34-13.22-11.07-7.18-6.11-15.48-11.07-23.2-16.47q-15.06-10.51-30-21.16l-2.52,4.32c16.63,8,33.84,16.08,48,28.13,9.68,8.22,18.81,18.16,24.8,29.41,2.6,4.89,5,10.87,3.94,16.51-.46,2.37-1.54,4.94-3.88,6s-5.21.54-7.61-.11c-5.88-1.6-11.21-4.84-16.42-7.91-8.25-4.87-16.5-9.77-24.63-14.84-19.38-12.07-38.27-24.92-56.43-38.75l-2.52,4.31c18.06,13.69,39.32,22.44,55.82,38.27,10.71,10.27,23,20.2,30,33.55,2.5,4.75,4.87,11.81.75,16.4-3.79,4.23-11.23,3.62-16.26,3-13.51-1.7-27-7.09-39.12-13.11-24-11.87-47.7-24.17-71.71-35.93-11-5.41-21.8-10.92-32-17.87-9.79-6.69-19.07-14.09-28.41-21.39-19.93-15.58-41-29.29-62.33-42.83C401.92,511.66,381,497.14,359.12,484c-22-13.25-45.09-24.58-66.86-38.24-10.58-6.64-21.51-12.21-32.65-17.84-10.27-5.18-20-11.2-31.31-13.74a81.34,81.34,0,0,0-16.16-1.83c-3.22-.07-3.22,4.93,0,5a72.64,72.64,0,0,1,33.07,8.56c11.12,5.9,22.57,11.25,33.54,17.42,5.67,3.2,11.08,6.86,16.65,10.24s11.38,6.75,17.14,10c11.4,6.43,23,12.48,34.34,19,22.66,13.06,44.14,27.92,66.15,42s44.3,27.79,65,43.81c9.51,7.36,18.85,14.94,28.63,21.94a217,217,0,0,0,31.69,18.8c24.64,12,49,24.49,73.49,36.75C625,652.5,639,658.54,653.64,661c6.33,1,13.56,1.7,19.5-1.28s8-9.43,7.06-15.6c-1.15-7.59-5.91-14.34-10.6-20.19A173.73,173.73,0,0,0,652.47,606c-6.41-6-12.72-12.08-19.88-17.23-9.31-6.72-19.42-12.2-29.18-18.21-4.86-3-9.62-6.15-14.18-9.6-2.57-1.95-5.05,2.39-2.52,4.31,17.41,13.27,35.5,25.63,54,37.26,8.78,5.52,17.69,10.84,26.62,16.1,5.63,3.32,11.4,6.79,17.74,8.57,5.75,1.62,12.27,1.36,15.85-4.09,3.45-5.26,2.83-12.27.94-18-4.43-13.32-14.72-24.87-24.77-34.33-15.28-14.38-34.45-23.6-53.16-32.62a2.5,2.5,0,0,0-2.52,4.32q14,9.93,28,19.76l14.47,10.08c3.11,2.15,6.37,4.17,9.27,6.61,4.67,3.92,9.11,8.1,14,11.74,4.43,3.29,10,7.06,15.75,6.93s9.82-5.31,11.08-10.69c1.59-6.75-.25-14-2.73-20.26-5.67-14.39-15.18-26.8-26.06-37.63-8-8-16.76-15.28-25.27-22.78a100.66,100.66,0,0,0-12.62-9.82c-4.44-2.82-8.94-5.52-12.49-9.46l-2.43,4.18c17.62,3.62,33.35,12.49,49.15,20.69,6.45,3.35,13.22,7.81,20.81,6.22a8.21,8.21,0,0,0,6.92-7.72c.23-4.18-1.8-8.42-3.76-12a81.05,81.05,0,0,0-8.09-11.77,65.2,65.2,0,0,0-8.78-8.88q-10.37-8.81-21.3-16.93c-28.6-21.37-59.53-39.27-90.49-57-15.69-9-31.4-17.88-46.87-27.21-16.4-9.9-32.51-20.27-48.83-30.28-16.64-10.21-33.53-20-50.54-29.54q-12.84-7.23-25.79-14.27a218.81,218.81,0,0,1-23.33-14.89c-3.68-2.64-7.35-5.3-11.06-7.89-2.65-1.84-5.15,2.5-2.53,4.32Z"/><path class="cls-5" d="M275.39,775.5c6.09-19.18,13.13-38,20.94-56.6s16.35-36.65,25.48-54.52c9.36-18.34,19.33-36.36,29.71-54.14,10.61-18.18,21.66-36.12,33-53.89,2.32-3.65,4.82-7.23,7-11,1.32-2.31,2.51-4.7,3.76-7,1.56-2.94,3.17-5.87,4.94-8.7a29.07,29.07,0,0,1,5-6.46l.56-.5c-.43.37.18-.12.29-.19s.41-.24.62-.36-.49.16.16-.05c3-1,1.75-5.79-1.33-4.82a13,13,0,0,0-5.88,4.61,65.33,65.33,0,0,0-5.47,8.2c-2.91,5.05-5.32,10.38-8.47,15.29-11.53,18-22.83,36.09-33.72,54.46-10.68,18-21,36.27-30.65,54.84-9.41,18.06-18.26,36.41-26.36,55.1s-15.51,37.78-21.92,57.17c-.8,2.41-1.59,4.84-2.36,7.26-1,3.08,3.85,4.39,4.82,1.33Z"/><path class="cls-5" d="M485.32,356.84c0-1.88,1.85-4.11,3.14-5.77a37.31,37.31,0,0,0,3.55-5c1.17-2.13,2.4-4.22,3.66-6.29q2.71-4.47,5.63-8.81c2.14-3.18,4.63-6.67,6.79-9.43a92.2,92.2,0,0,1,7.49-8.55q1.8-1.79,3.77-3.4s.62-.48.17-.14l.5-.37.84-.6c.64-.43,1.3-.84,2-1.21l.81-.41.48-.22c-.06,0-.53.2-.12.05a17.46,17.46,0,0,1,1.87-.56l.45-.08c-.06,0-.62,0-.21,0s.59,0,.88,0,1,.14.19,0a7.83,7.83,0,0,1,.84.18c.43.12.64.26.27.07.25.12.49.24.72.38s.81.63.24.14c.27.23.54.47.78.72a7.57,7.57,0,0,1,1.3,1.9,11.91,11.91,0,0,1,.88,2.72,15.49,15.49,0,0,1,.31,3.1,30.66,30.66,0,0,1-.22,4.07,48.84,48.84,0,0,1-1.72,7.8,71.63,71.63,0,0,1-5.38,13.21c-1.5,2.84,2.81,5.37,4.32,2.52C537.38,328,544,312,556.2,300.12c3.59-3.51,7.31-6.91,11.23-10.05,4.27-3.42,9.44-7.07,14.52-8.69a18.38,18.38,0,0,1,1.8-.49l.83-.16c.56-.11-.07,0,.49-.06a15.7,15.7,0,0,1,1.68,0c.14,0,.79.08.53,0s.53.11.71.16.47.14.7.22c.57.18-.1-.08.28.11s.5.27.74.42.76.58.32.21a10.65,10.65,0,0,1,1,.94c.43.43-.13-.23.12.12s.3.46.44.69.22.38.31.57.37.86.14.26c.19.49.35,1,.49,1.49s.21.94.3,1.41l.06.42c0-.09-.05-.51,0,0,0,.3.06.59.08.89a29.53,29.53,0,0,1,0,3.52c-.08,1.29-.23,2.66-.37,3.55a90.65,90.65,0,0,1-4.6,16.8c-1.85,5.13-3.68,9.45-5.9,14.31-2.65,5.79-5.5,11.48-8.42,17.14-2.18,4.22-4.62,8.38-6.54,12.73-1.56,3.54-2.41,7.32-3.78,10.93a14.65,14.65,0,0,1-2.12,4l3.92.51a5,5,0,0,1-.39-.62c.23.4,0,.12,0-.16s-.08-.67-.05-.17c0-.26,0-.52,0-.78s0-.28,0-.41c0,.1-.1.51,0,0,.06-.25.11-.51.18-.76a14.79,14.79,0,0,1,.55-1.64,39,39,0,0,1,4.22-7.05c1.55-2.15,2.83-3.72,4.47-5.84,1.9-2.45,3.51-5.1,5.23-7.68,8.52-12.77,17.86-24.95,29.39-35.16q4.39-3.89,9.11-7.37c3.08-2.27,6.31-4.76,9.84-6.21a13.31,13.31,0,0,1,2.05-.68c.29-.08.59-.14.88-.2.56-.11,0-.05.53-.07l.77,0c.18,0,1,.08.37,0,.23,0,.46.08.68.14s1,.35.38.09a7,7,0,0,1,1.09.63c-.4-.29,0,0,.12.13s.38.39.55.6c-.32-.38,0,0,.11.18s.24.38.34.58.24.47.35.71c-.21-.48.06.18.12.36a14.47,14.47,0,0,1,.4,1.47c.07.29.12.59.17.89,0,.08.07.48,0,0,0,.16,0,.32,0,.48a26.09,26.09,0,0,1,.08,3.75,32.62,32.62,0,0,1-1.39,7.82c-2.41,8.18-7,15.63-11.21,23-4.73,8.19-8.92,16.66-13.55,24.9-2.29,4.09-4.73,8.07-7.08,12.12-1.53,2.63-2.84,5.52-4.88,7.82a14.64,14.64,0,0,1-1.25,1.25,5.66,5.66,0,0,1-.94.58,1.8,1.8,0,0,1-.64.21l3.17,2.41a18.78,18.78,0,0,1,1.58-6.85,40,40,0,0,1,4.41-7.43,93.54,93.54,0,0,1,13.19-13.94c4.6-4.14,9.41-8,14.19-11.94s9.59-8.25,14.75-11.93c6.13-4.36,12.88-8.34,20.36-9.76a23.72,23.72,0,0,1,5.12-.42q.56,0,1.11.06c.08,0,.78.09.38,0s.23.05.33.07l.62.17c.11,0,.66.23.28.08s.13.06.23.12l.43.25c.41.22.18.14.06,0,.2.21.43.41.64.62.37.37,0-.06,0,0s.21.31.3.47l.23.43c.25.45,0,0,0,0,.11.36.24.71.33,1.08,0,.18.07.36.11.54s.07.55,0,.06c0,.43.08.85.1,1.28a20.72,20.72,0,0,1-.11,2.61c0,.23-.05.46-.07.69.06-.52,0,0,0,.25-.08.52-.18,1-.28,1.56a51.77,51.77,0,0,1-1.8,6.36c-.39,1.13-.82,2.26-1.27,3.38s-.69,1.69-1.25,2.93a106.85,106.85,0,0,1-6.78,12.66c-1.06,1.69-2.17,3.36-3.37,5l-.39.52.11-.15a3,3,0,0,1-.22.28c-.26.33-.52.66-.79,1A20.86,20.86,0,0,1,660,369c-.18.18-.38.36-.57.53s-.21.16-.29.25c-.27.28.55-.4.11-.09a2.57,2.57,0,0,0-.9,3.42,2.51,2.51,0,0,0,3.42.89c2.82-2,4.9-5,6.82-7.85a100.67,100.67,0,0,0,7.27-12.62,79.75,79.75,0,0,0,5.57-14.28c1-3.93,1.89-8.41.75-12.41s-4.33-6.24-8.37-6.61c-7.91-.72-15.91,2.58-22.61,6.47s-12.91,9-18.87,14.06c-4.52,3.87-9.22,7.53-13.74,11.39a128.24,128.24,0,0,0-15,14.61c-4,4.76-7.83,10.21-9.19,16.38a21.5,21.5,0,0,0-.52,4.29,2.53,2.53,0,0,0,3.16,2.42c3.53-.91,5.91-4.1,7.75-7,2.07-3.31,4-6.76,5.94-10.13,5.17-8.77,9.71-17.88,14.65-26.78,4.71-8.46,9.95-16.64,13.44-25.72,2.2-5.74,3.48-12,2.55-18.18-.77-5.07-4-9.58-9.53-9.67-3.31-.05-6.58,1.37-9.39,3a91.81,91.81,0,0,0-11,7.74c-13.09,10.24-23.75,22.89-33.18,36.5-2.41,3.49-4.68,7.06-7,10.57-.21.31-.43.61-.65.91a4.69,4.69,0,0,0-.31.41c.15-.2-.35.44-.45.57-.89,1.14-1.79,2.28-2.67,3.44a59.8,59.8,0,0,0-5.11,7.54c-1.32,2.38-2.62,5.2-2.49,8a6.64,6.64,0,0,0,1.18,3.66c.86,1.15,2.81,1.88,3.93.51,2.56-3.17,3.76-7.05,5-10.88a48.5,48.5,0,0,1,1.8-5.25c1-2.23,2.21-4.37,3.33-6.53,3.64-7,7.28-14,10.62-21.15,4.77-10.2,9.32-20.85,11.52-31.93,1-5.05,1.77-10.8.06-15.78a11.37,11.37,0,0,0-11.39-8c-6,.25-11.61,3.57-16.41,6.89A122,122,0,0,0,555.41,294,92.06,92.06,0,0,0,541,311.16c-4.8,7.42-8.68,15.36-12.7,23.22q-1.51,3-3.07,5.92l4.31,2.52A79.51,79.51,0,0,0,535,329.69c1.56-4.9,2.77-10.19,2.48-15.37-.24-4.42-1.71-9-5.45-11.66a9.58,9.58,0,0,0-8.26-1.18,23.93,23.93,0,0,0-8.48,5,64.53,64.53,0,0,0-8.06,8.22,173,173,0,0,0-14.48,20.26c-1.68,2.69-3.31,5.4-4.84,8.17a39.59,39.59,0,0,1-3.44,5c-2,2.54-4.17,5.36-4.17,8.73s5,3.23,5,0Z"/><path class="cls-5" d="M517.18,729.4c-14.94,18-24.38,39.62-32.84,61.2-4.26,10.86-8.26,21.81-12.62,32.62-2.07,5.12-4.22,10.2-6.54,15.22-2.86,6.19-5.25,12.56-7.64,18.95-1.32,3.52-2.65,7.06-4.14,10.52s-3.23,6.75-4.88,10.12a44.25,44.25,0,0,0-3.34,8.81c-.61,2.38-1.14,5.4-2.8,7.18-2.2,2.34,1.33,5.89,3.53,3.53,3.62-3.85,3.51-9.42,5.53-14,1.32-3,2.91-5.88,4.34-8.83,1.52-3.14,2.87-6.37,4.15-9.61,2.48-6.26,4.66-12.63,7.24-18.85,2.28-5.51,4.89-10.87,7.19-16.37,9-21.43,16.1-43.61,26.23-64.54,5.54-11.45,12-22.57,20.13-32.37a2.58,2.58,0,0,0,0-3.54,2.53,2.53,0,0,0-3.54,0Z"/><path class="cls-5" d="M682,980.63c-2.09-14.08-6.25-27.73-10.29-41.35-3.94-13.28-7.34-26.69-10.82-40.09-1.76-6.77-3.57-13.53-5.55-20.24s-4.28-13.16-6.45-19.74c-4.25-12.89-7.57-26.08-11.81-39-4.7-14.26-11.68-27.68-15-42.4-.71-3.14-5.53-1.81-4.82,1.33A128.64,128.64,0,0,0,623.16,798c2.48,6.32,5.23,12.51,7.48,18.92,4.47,12.74,7.8,25.84,11.83,38.73,2,6.57,4.43,13,6.47,19.59s4,13.41,5.75,20.17c3.56,13.44,6.81,26.95,10.71,40.3,4.46,15.25,9.39,30.46,11.73,46.22a2.51,2.51,0,0,0,3.07,1.75,2.56,2.56,0,0,0,1.75-3.08Z"/><path class="cls-5" d="M920.62,908.45,891,858.91l-29.5-49.33Q846.67,784.8,831.86,760q-7.38-12.33-14.75-24.66c-4.66-7.79-9.16-15.69-14.23-23.22-9.33-13.9-20.08-27-27.72-41.94-.92-1.8-1.78-3.62-2.59-5.48a2.52,2.52,0,0,0-3.42-.89,2.56,2.56,0,0,0-.9,3.42c6.72,15.4,17.31,28.71,26.87,42.39,5,7.14,9.48,14.55,14,22l14.75,24.67,29.63,49.54,29.63,49.55,29.5,49.33L916.3,911c1.65,2.76,6,.24,4.32-2.53Z"/><path class="cls-5" d="M396.14,302.37a85.57,85.57,0,0,0,11.75,8.34,34.37,34.37,0,0,1,5.63,3.5,16.92,16.92,0,0,0,2.86,2.14c1,.54,2,.94,3,1.5a26.8,26.8,0,0,1,4.43,3.89,15.59,15.59,0,0,0,5.56,3.53c1.15.38,2.43.4,3.54.88a14,14,0,0,1,2.5,1.6,34.14,34.14,0,0,0,6.05,3.32,25.25,25.25,0,0,1,5.69,3.35c1.8,1.48,3.33,3.26,5.24,4.6a28.61,28.61,0,0,0,2.54,1.54c.45.26.9.52,1.34.81.15.1.29.22.44.31l.31.26c-.21-.36-.25-.41-.14-.16-.09,1.06,1.61,2.23,2.36,2.62a31.72,31.72,0,0,0,3.58,1.28c4.46,1.62,8.88,3.2,13.25,5.08,2.14.92,4.44,1.6,6.52,2.63a19.62,19.62,0,0,1,4.54,3.23c3.08,2.81,6.5,7,10.9,7.46a4.44,4.44,0,0,1,2.24.4,11.32,11.32,0,0,1,1.9,2,20.9,20.9,0,0,0,5.08,4c3.84,2.25,7.91,3.93,11.57,6.5,4,2.84,7.83,5.63,12.43,7.49s9.15,2.92,13.43,5.19c2.08,1.11,4.11,2.32,6.19,3.41s4.37,2,6.52,3.12a65.79,65.79,0,0,1,12.28,7.49c3.55,2.92,6.63,6.43,10.53,8.91,1.93,1.22,4.15,1.87,6.05,3.11.93.61,1.75,1.36,2.71,1.93s2.11,1.11,3.18,1.63c3.91,1.87,7,4.7,10.37,7.28a23.55,23.55,0,0,0,5.55,3.18c2.12.84,4.05,1.93,6.09,2.93a25.23,25.23,0,0,1,3,1.51,28.06,28.06,0,0,0,2.41,1.61,32.75,32.75,0,0,0,5.44,2,8.66,8.66,0,0,1,4.29,2.68,2.51,2.51,0,0,0,3.53,0,2.55,2.55,0,0,0,0-3.54,12.39,12.39,0,0,0-5.18-3.51c-1.62-.62-3.35-.95-4.94-1.63-1.85-.79-3.35-2.2-5.2-3-2.21-1-4.25-2.3-6.5-3.21a24.51,24.51,0,0,1-5.33-2.82c-1.6-1.16-3.07-2.48-4.62-3.7a31.89,31.89,0,0,0-5.59-3.67,40.7,40.7,0,0,1-6.1-3.54c-1.86-1.34-4.06-2-6-3.14a31,31,0,0,1-5.2-4.06A73.6,73.6,0,0,0,567,395.83c-4.21-2.59-8.66-4.54-13-6.78s-8.26-4.81-12.8-6.41-9.27-2.89-13.43-5.51c-3.89-2.44-7.38-5.48-11.47-7.62-3.64-1.9-7.78-3.42-10.57-6.56-1.45-1.63-2.94-3.31-5.21-3.68a10.55,10.55,0,0,1-2.82-.4,12.79,12.79,0,0,1-2.64-1.79c-3.11-2.61-5.79-5.79-9.4-7.74a67.8,67.8,0,0,0-6.43-2.64c-2.27-.95-4.5-2-6.79-2.9s-4.55-1.54-6.8-2.39c-1-.39-2.05-.77-3.1-1.09-.23-.07-.45-.16-.67-.22s-.82-.21-.33,0c.21.08.14.31,0-.07a3.73,3.73,0,0,0-.78-1.37c-1.42-1.62-3.57-2.46-5.35-3.61s-3.21-2.94-4.89-4.3a27.9,27.9,0,0,0-6-3.74,37.32,37.32,0,0,1-5.95-3.1,16.3,16.3,0,0,0-6.15-3,10.08,10.08,0,0,1-5.09-2.66,46.24,46.24,0,0,0-4.74-4.22c-1.8-1.24-3.87-1.84-5.54-3.3a33.26,33.26,0,0,0-5.88-3.85c-2-1.16-4-2.41-6-3.76s-3.74-2.74-5.52-4.23a2.56,2.56,0,0,0-3.54,0,2.54,2.54,0,0,0,0,3.54Z"/><path class="cls-5" d="M403.1,519.14c2.51-.5,3.27-2.63,3-4.92-.28-2-2.94-2.18-4.18-1.1a10.64,10.64,0,0,0-2.81,5.17c-.59,2-1.05,4-1.47,6.08a29,29,0,0,1-2.12,7.07c-1.12,2.27-2.48,4.41-3.75,6.59-2.52,4.35-4.13,9.14-6.66,13.48a74.36,74.36,0,0,1-8.29,10.77A118.16,118.16,0,0,0,368.2,573c-2.69,4-4.32,8.37-6.29,12.72s-4.71,8.24-7.18,12.32c-1.21,2-2.44,4-3.82,5.9s-3,3.43-4.34,5.27a50.88,50.88,0,0,1-3.85,5.25,31.42,31.42,0,0,0-4.29,5.52A140,140,0,0,0,331,633.4c-2.27,4.91-4.5,9.85-6.73,14.79-2.13,4.71-4,9.71-6.74,14.09-1.33,2.11-2.81,4.12-4.14,6.23A53.86,53.86,0,0,0,310,675a108,108,0,0,1-6.66,13.2c-2.65,4.19-3.84,9.11-6,13.53-2.38,4.78-5.07,9.39-7.76,14s-5.19,9-7.36,13.69-4.59,9.7-4.6,14.83a20,20,0,0,1,0,3.19,28.75,28.75,0,0,1-1.19,3.83c-.77,2.46-1.46,4.94-2,7.44a55.4,55.4,0,0,1-1.78,7.21,22.63,22.63,0,0,0-1.63,5.68,8.85,8.85,0,0,1-.27,1.72c0,.05-.14.47,0,.11-.08.2-.14.13-.06.14s-.13,0,0,0c-.11-.07.74-.24-.06-.12a2.5,2.5,0,1,0,1.32,4.82,4.73,4.73,0,0,0,3.66-3.65,15.49,15.49,0,0,0,.4-2.53c0-.1.13-1.06.05-.58a9.3,9.3,0,0,1,.32-1.26,58.15,58.15,0,0,0,2.17-6.66c.5-2.62,1.09-5.21,1.81-7.78s1.79-4.9,2.21-7.41-.07-4.84.54-7.23a67.23,67.23,0,0,1,5.89-14c4.91-9.38,11.15-18.15,15-28a69.16,69.16,0,0,1,2.74-6.61c1.13-2.17,2.56-4.17,3.68-6.36,2.28-4.43,3.95-9.18,6.41-13.52s5.61-8.1,7.66-12.65q3.31-7.38,6.65-14.74c2.22-4.88,4.32-9.84,6.91-14.53,1.25-2.27,2.57-4.49,3.91-6.7a28.45,28.45,0,0,1,3.93-5.49,41.47,41.47,0,0,0,4.35-5.7c1.25-1.81,2.81-3.35,4.15-5.08,2.91-3.75,5.12-8,7.7-11.92a85.17,85.17,0,0,0,6.67-13.21,49,49,0,0,1,7.09-11.39c2.86-3.52,6-6.86,8.79-10.4a61.76,61.76,0,0,0,4.2-5.72,54.51,54.51,0,0,0,3.55-6.93c1-2.29,2-4.58,3.27-6.76s2.62-4.33,3.79-6.57c2.28-4.37,2.94-9.09,4.14-13.81.38-1.49.74-3.31,1.9-4.32l-4.18-1.11a.71.71,0,0,1,.43-.86c.56-.41.6-.53.11-.37a2.5,2.5,0,0,0,1.32,4.82Z"/><path class="cls-5" d="M522.62,729.46v-4.18h-5c.3,2.51-1,4.93-2,7.15-1.33,2.92-2.91,5.69-4.32,8.57a193.79,193.79,0,0,1-9.38,17,37.52,37.52,0,0,1-6.28,7,27.42,27.42,0,0,0-5.47,7.54c-1.51,2.93-3.12,5.76-4.47,8.77s-2.61,5.93-3.92,8.89c-1.4,3.16-2.78,6.33-4,9.56s-2.13,6.27-3.2,9.41S472,815.71,471,819c-.94,3.06-1.49,6.23-2.28,9.33a23.46,23.46,0,0,1-1.46,4.48,23.93,23.93,0,0,0-1.85,4.44c-.81,3-1.36,6.16-2,9.23a47.25,47.25,0,0,1-2.8,9.56c-1.25,2.81-2.75,5.49-4.25,8.16A78.28,78.28,0,0,0,449,880.65a46,46,0,0,1-2.29,6.62c-.24.52-.5,1-.79,1.53s-.63,1-.67,1a6,6,0,0,1-.41.47c-.07.07-.61.57-.44.44s-.33.21-.31.2a3.55,3.55,0,0,1-.39.2c.27-.1.26-.11,0,0-3.05,1-1.74,5.82,1.33,4.82,4.38-1.42,6.3-6.3,7.66-10.29.66-1.95,1.2-3.94,1.8-5.92a44,44,0,0,1,3.06-7.21c3-5.78,6.66-11.26,8.84-17.42a89,89,0,0,0,2.48-10c.7-3,1-6.19,2.38-9a41.3,41.3,0,0,0,3.08-9.53,73.28,73.28,0,0,1,2.79-9.75c2.41-6.5,4.34-13.17,7-19.57,2.58-6.11,5.12-12.36,8.21-18.23.76-1.45,1.59-2.85,2.34-4.31a21.45,21.45,0,0,1,2.29-3.86c2.07-2.56,4.85-4.48,6.93-7.05,2.3-2.84,3.89-6.1,5.74-9.23s3.77-6.43,5.38-9.8,3.49-6.69,5-10.13c1.32-2.89,3-6.1,2.58-9.37a2.57,2.57,0,0,0-2.5-2.5,2.53,2.53,0,0,0-2.5,2.5c0,1.39,0,2.79,0,4.18,0,3.22,5,3.22,5,0Z"/><path class="cls-5" d="M495.72,656.55a14.6,14.6,0,0,0,12.48,5.27,47.5,47.5,0,0,0,7.91.14,12.69,12.69,0,0,0,6.63-3.27c.74-.62,1.46-1.29,2.25-1.85a5.07,5.07,0,0,1,1.45-.85c.3-.06.8.1,1.16.08a6.91,6.91,0,0,0,3.79-1.84,11.12,11.12,0,0,1,3.21-1.7c2.69-1,5.47-1.63,8-3,1.13-.63,2.22-1.36,3.37-2a29.25,29.25,0,0,1,3.64-1.43,13.52,13.52,0,0,0,5.95-3.93,41.15,41.15,0,0,0,3.19-4.76,14.51,14.51,0,0,1,3-3.9,4.08,4.08,0,0,1,1.78-.84,4,4,0,0,1,1-.08,4.43,4.43,0,0,0,1.26,0c-.78.36-1.52-1-1.85-1.4.05.06.11.67,0,.07.07.42.12.85.17,1.27a12.4,12.4,0,0,1-.2,3.89c-.6,2.76-2.13,5.11-3.53,7.53s-2.28,5-3.94,7.1a45.61,45.61,0,0,0-4.61,7c-1.32,2.53-2.7,5-4.21,7.39s-2.37,4.73-3.58,7.13a32.18,32.18,0,0,1-4.29,6.07c-1.87,2.19-3.71,4.41-5.41,6.73a53.91,53.91,0,0,0-4.68,7.55c-1.37,2.71-2.8,5.5-3.89,8.33-1,2.54-1.38,5.24-2.18,7.82s-1.88,5-2.88,7.45c-1.92,4.72-3.67,9.85-2.44,15a17.19,17.19,0,0,0,3.89,7,34.29,34.29,0,0,0,5.17,5.26,12.32,12.32,0,0,0,7.43,3.06,7.64,7.64,0,0,0,6.79-3.82,15.38,15.38,0,0,1,1.51-2.32,41.88,41.88,0,0,1,3.1-3.15c2.06-2,3.73-4.24,5.66-6.33,1.74-1.9,3.84-3.41,5.55-5.34a66.54,66.54,0,0,0,4.6-6.09c3.47-5,6.79-10.11,10.15-15.2.81-1.22,1.58-2.52,2.48-3.68a22.44,22.44,0,0,1,2.8-2.8,61.45,61.45,0,0,0,5.53-5.88c2-2.34,4.13-4.59,6-7.07a49.81,49.81,0,0,1,5.38-6.13,25.92,25.92,0,0,0,5-6c1.56-2.82-2.76-5.34-4.32-2.52a24.29,24.29,0,0,1-4.74,5.53,53.66,53.66,0,0,0-5.45,6.41c-1.79,2.39-3.87,4.53-5.81,6.79a60.74,60.74,0,0,1-5.5,5.73,33.44,33.44,0,0,0-5.23,6.5c-1.68,2.54-3.33,5.09-5,7.63-2.94,4.47-5.81,9.22-9.36,13.24-1.71,1.94-3.8,3.45-5.55,5.34s-3.39,4.15-5.34,6a28,28,0,0,0-5.21,5.93,4.32,4.32,0,0,1-1.4,1.86,3.84,3.84,0,0,1-3.13.06c-2.07-.72-3.77-2.43-5.25-4a21.94,21.94,0,0,1-4.28-5.59c-2-4.28-.06-9.25,1.56-13.31.94-2.37,2-4.7,2.82-7.11s1.3-5.16,2.11-7.7a59.81,59.81,0,0,1,3.51-7.74,52.62,52.62,0,0,1,4.45-7.42c3-4.28,7-7.94,9.67-12.51,1.36-2.35,2.19-4.94,3.6-7.27s2.89-4.68,4.17-7.14a39.68,39.68,0,0,1,4.11-6.83,40.74,40.74,0,0,0,4.31-7.13c1.3-2.51,2.87-4.83,3.93-7.47a16.76,16.76,0,0,0,1.15-8.19c-.25-2-.52-4.31-3.15-4.53a10.72,10.72,0,0,0-5.56.94c-3.5,1.7-5.29,5.45-7.28,8.57a9,9,0,0,1-3.55,3.62c-2.19,1.17-4.66,1.66-6.83,2.9-1.13.64-2.22,1.36-3.38,2a25.6,25.6,0,0,1-3.93,1.43c-1.32.42-2.63.86-3.91,1.41a16.88,16.88,0,0,0-3.45,2.15,3.81,3.81,0,0,1-.73.5c-.52.15-1.24-.09-1.81,0a8.65,8.65,0,0,0-3.27,1.62c-1.73,1.26-3.31,3.17-5.33,4s-4.6.37-6.7.23-4.38.09-6.43-.61a12.89,12.89,0,0,1-4.47-3.32c-2.27-2.29-5.8,1.24-3.54,3.54Z"/><path class="cls-5" d="M548.88,754.5l.94.2L548.07,753a20,20,0,0,1,.52,3.19,12.86,12.86,0,0,0,.81,2.83,11.93,11.93,0,0,0,3.63,5.24,18.36,18.36,0,0,0,12.05,3.92c1.93-.16,3.94-1,5.71-1.21a10.56,10.56,0,0,0,5.13-1.63,17.92,17.92,0,0,1,5.48-2.94c1.93-.58,3.91-1,5.84-1.51a15.79,15.79,0,0,0,6.07-3,32.38,32.38,0,0,0,3.78-4.4c1.44-1.73,3.1-3.27,4.55-5s2.77-3.66,4.26-5.41c2.84-3.33,6.27-6.07,9.48-9a41.36,41.36,0,0,0,4.58-4.78c1.33-1.69,2.36-3.57,3.59-5.33a10.4,10.4,0,0,1,2.16-2.38c.85-.67,1.84-1.12,2.65-1.85a5.85,5.85,0,0,0,1.86-3.13c.22-1.07.06-2.19.27-3.24.41-2,2.14-4.07,3.43-5.6,1.65-2,3.5-3.74,5.31-5.55l-3.54-3.53-1.92,1.92c-2.28,2.28,1.26,5.81,3.54,3.53l1.92-1.92c2.28-2.28-1.26-5.81-3.54-3.53-3,3-6.14,6-8.34,9.7a12.14,12.14,0,0,0-1.92,5.94c0,.65.05,1.17-.34,1.64a11.55,11.55,0,0,1-2.11,1.44c-3.3,2.44-4.68,6.24-7.29,9.26-2.79,3.21-6.15,5.86-9.27,8.74a48.1,48.1,0,0,0-4.33,4.47c-1.38,1.66-2.59,3.45-4,5.1s-3,3.18-4.43,4.85a46.78,46.78,0,0,1-3.5,4.19c-2.67,2.51-7.13,2.62-10.48,3.69a19.19,19.19,0,0,0-5.89,3A6.31,6.31,0,0,1,572,761.7c-.19.06-.74.16-.73.16l-1.16.14c-2,.27-4,1.21-6,1.16a14.7,14.7,0,0,1-5.67-1.43,7.91,7.91,0,0,1-4.1-3.81,11.38,11.38,0,0,1-.88-2.72,21.7,21.7,0,0,0-.57-3.58,2.48,2.48,0,0,0-1.75-1.74l-.93-.2a2.57,2.57,0,0,0-3.08,1.75,2.52,2.52,0,0,0,1.75,3.07Z"/><path class="cls-5" d="M305,460.05c2.89,1.67,5,4.3,7.93,6,2.73,1.57,4.7,4,7.27,5.79a25.24,25.24,0,0,0,4.13,2.14c1.65.74,3.22,1.65,4.81,2.51a42.12,42.12,0,0,0,9.25,3.87c3.46.92,6.94,1.74,10.35,2.84a50.64,50.64,0,0,1,4.93,1.75c1.43.62,2.48,1.73,3.84,2.46A30.82,30.82,0,0,0,362,489a27.67,27.67,0,0,1,4.82,2.38,54.63,54.63,0,0,1,8.28,5.71c2.47,2.14,4.8,4.43,7.36,6.46,2.9,2.3,6.09,4.16,9.17,6.2,6.32,4.19,12.59,8.41,19,12.49,3.14,2,6.17,4.17,9.19,6.35s6.11,4.18,9,6.42,5.39,4.71,8.23,6.88,6,4,8.94,6.07,5.16,4.64,8,6.67a26.07,26.07,0,0,0,3.64,1.78c1.62.82,3.16,1.78,4.8,2.58a73.1,73.1,0,0,1,9,4.76c2.44,1.62,3.79,4.06,5.83,6.07,2.3,2.26,5.35,3.05,7.92,4.87s4.21,4.63,6.41,6.79a11.07,11.07,0,0,0,3.74,2.62,11,11,0,0,1,3.84,2.08,27.31,27.31,0,0,0,7.63,5.33c3,1.29,6.18,2.18,9.28,3.27,3.37,1.2,6,3.08,9.11,4.86s6.19,3.17,9.29,4.69c3.38,1.66,7.17,2.24,10.53,3.91,3.07,1.51,5.67,3.77,8.76,5.28s6.09,3.54,9.1,5.36,6.3,3.25,9.47,4.89,6.26,3.45,9.49,5c6.6,3.14,13.68,5.15,20.24,8.38,6.24,3.07,11.73,7.88,18.4,10,3,1,6.14.89,9.09,2a87.21,87.21,0,0,0,9.7,3.43c3.21.79,5.12,3.13,7.87,4.77,3.15,1.87,6.53,1.84,10,2.54,1.66.33,3.24,1,4.9,1.31a29.93,29.93,0,0,0,5.26.58c3.21.1,3.21-4.9,0-5-3.54-.1-6.65-1.42-10.09-1.92s-6.39-.79-9.22-3a29.9,29.9,0,0,0-3.71-2.75,18.45,18.45,0,0,0-4.86-1.64c-3.42-.79-6.41-2.53-9.73-3.57-2.92-.92-6-.79-8.9-1.95a59.77,59.77,0,0,1-9-5.07,111.68,111.68,0,0,0-19.44-9.25,100.15,100.15,0,0,1-10-4.25c-3.18-1.63-6.27-3.43-9.48-5a96.31,96.31,0,0,1-9.07-4.87c-3.1-1.93-6.28-3.59-9.47-5.35-3-1.63-5.43-3.82-8.58-5.1-3.4-1.39-6.92-2.18-10.21-3.88s-6.51-3-9.48-5a38,38,0,0,0-8.9-4.39,90.52,90.52,0,0,1-9.19-3.29c-2.82-1.34-4.68-3.74-7.21-5.52-1.26-.88-2.7-1.1-4-1.8a13,13,0,0,1-3.31-3.19c-2.11-2.44-4.09-4.86-6.95-6.46-2.69-1.52-5.06-2.45-7-4.91a24.74,24.74,0,0,0-6.69-6c-2.85-1.71-5.89-3.07-8.87-4.55-1.47-.74-2.86-1.69-4.37-2.36a14.18,14.18,0,0,1-3.82-2.17,92,92,0,0,0-8.18-6.68,104.26,104.26,0,0,1-8.63-6c-2.83-2.35-5.5-4.88-8.51-7s-5.88-4.14-8.8-6.24c-6.11-4.4-12.55-8.25-18.79-12.46-3.14-2.12-6.26-4.27-9.43-6.36a87.44,87.44,0,0,1-8.68-6c-2.49-2.1-4.81-4.4-7.34-6.45a61.18,61.18,0,0,0-8.48-5.68,36.27,36.27,0,0,0-4.65-2.26c-1.51-.6-3.19-.84-4.59-1.71a29.82,29.82,0,0,0-3.31-2.16,51.7,51.7,0,0,0-5.53-2.06c-3.29-1.08-6.65-2-10-2.79a39.81,39.81,0,0,1-9.54-3.9c-2.71-1.47-5.92-2.54-8.41-4.36-1.24-.9-2.3-2.05-3.46-3.05a28.26,28.26,0,0,0-4.33-3c-2.68-1.6-4.68-4.11-7.41-5.68s-5.3,2.7-2.52,4.32Z"/><path class="cls-5" d="M643.33,498.52a43,43,0,0,1,5.89,3.38c1.93,1.39,3.75,2.93,5.62,4.41s4,3,6,4.44a36.22,36.22,0,0,1,5.44,4.1,62.58,62.58,0,0,0,4.59,4.48c1.77,1.46,3.62,2.82,5.35,4.32a20.83,20.83,0,0,1,4.16,4.68,65.13,65.13,0,0,0,3.85,5.87c2.62,3.38,5.59,6.49,8,10a32.75,32.75,0,0,1,3.25,5.73,39.44,39.44,0,0,0,2.84,6,104.93,104.93,0,0,0,9,11.31,21.07,21.07,0,0,1,4.75,10.52,34.84,34.84,0,0,1,.16,6.54,12.23,12.23,0,0,1-1.55,6c-1.9,3.11-6.12,4.34-9.56,4.32-3.22,0-3.22,5,0,5a18.19,18.19,0,0,0,11.26-3.72c3.63-2.91,4.76-7.71,4.87-12.15a30.56,30.56,0,0,0-2.1-13.05,26.07,26.07,0,0,0-3.46-5.93c-1.5-1.92-3.26-3.62-4.76-5.54s-3-3.8-4.25-5.79a48.09,48.09,0,0,1-3.11-6.57c-2-4.32-5-8-8.08-11.61-1.43-1.71-2.91-3.4-4.21-5.21s-2.36-4.08-3.79-6c-2.94-3.89-7.19-6.31-10.69-9.61-2-1.88-3.65-3.93-5.89-5.53s-4.89-3.3-7.25-5.07-4.53-3.64-6.84-5.4a45.37,45.37,0,0,0-7-4.22c-2.86-1.45-5.39,2.86-2.52,4.32Z"/><path class="cls-5" d="M614.51,432c3.27.87,5.56-1.75,7.07-4.27.66-1.11,1.22-2.28,1.89-3.38q.19-.32.42-.63c.17-.24-.09.13-.11.14l.43-.44c.77-.77,1.58-1.5,2.38-2.24a63.38,63.38,0,0,0,8.7-10.15,35.86,35.86,0,0,0,3.22-5.44,20.65,20.65,0,0,1,3.45-4.81,50.41,50.41,0,0,0,4.14-5.08,57,57,0,0,1,3.47-5c2.69-3.2,5.71-6.09,8.27-9.4s4.87-7,7.47-10.32,5.65-6.17,8.2-9.5,4.37-7,6.5-10.58a52.8,52.8,0,0,1,7.75-9.62,54.58,54.58,0,0,0,4.17-4.95c.63-.84,1.24-1.69,1.83-2.54a13,13,0,0,1,1.56-2.24c.64-.59,1.59-.37,2.33-.77a9.16,9.16,0,0,0,2.39-2.09c1.21-1.45,2.1-3.25,3.59-4.44s3.4-2.31,5-3.62,3.22-2.81,4.77-4.27c3.26-3.08,6.61-6,10.07-8.83,6.85-5.63,13.76-11.16,19.53-17.94,1.4-1.65,2.72-3.35,4.23-4.9s3-2.89,4.52-4.32,3.06-3.07,4.74-4.45a61.05,61.05,0,0,1,5.11-3.61c3.73-2.46,7.27-5.18,10.91-7.78,3.84-2.75,7.74-5.44,11.59-8.19q2.82-2,5.58-4.07L786,249.47c0,.23-.08.45-.11.68a2.58,2.58,0,0,0,1.74,3.08,2.53,2.53,0,0,0,3.08-1.75c0-.23.07-.45.11-.68a2.57,2.57,0,0,0-.9-2.63,2.45,2.45,0,0,0-2.77-.2c-6.79,5.09-13.86,9.78-20.69,14.81-3.19,2.35-6.45,4.54-9.72,6.79a76.12,76.12,0,0,0-8.85,7.58,98,98,0,0,0-8,8.42,87.5,87.5,0,0,1-7.86,8.25c-6.09,5.59-12.87,10.38-18.94,16-3.12,2.89-6.1,6-9.55,8.54-1.69,1.21-3.46,2.17-4.8,3.82-1.16,1.43-2.06,3.25-3.61,4.33l1.27-.35a7.23,7.23,0,0,0-5.8,3.48,67.26,67.26,0,0,1-4.07,5.57c-2.94,3.55-6.37,6.54-9,10.36s-4.3,7.8-6.86,11.45-5.84,6.64-8.61,10.12-5.31,7.52-8.13,11.17-6.06,6.54-8.81,10c-1.48,1.89-2.61,4-4.08,5.9-1.33,1.72-2.88,3.26-4.27,4.94a31.62,31.62,0,0,0-3.58,6,45.7,45.7,0,0,1-3.94,5.75,41.59,41.59,0,0,1-5.06,5.71,29.45,29.45,0,0,0-4.78,4.82c-.88,1.31-1.52,2.77-2.35,4.11a6.61,6.61,0,0,1-1.11,1.45c0,.05-.42.34-.18.16s-.22.12-.28.14c.5-.2.14-.07,0-.06.16,0,.83.06.33-.07-3.11-.83-4.43,4-1.32,4.82Z"/><path class="cls-5" d="M526,351.52c0-2.8,1.52-5.3,2.29-7.94a81.74,81.74,0,0,1,2.69-8.83c2.19-5.27,6.09-9.57,9.86-13.76,1.89-2.09,3.78-4.07,5.85-6a27.41,27.41,0,0,0,5.26-7.36c.67-1.25,1.4-2.47,2-3.75a23.88,23.88,0,0,1,2.24-4.13,29.84,29.84,0,0,1,2.51-2.52c1-1,1.75-2.19,2.63-3.27a39.83,39.83,0,0,1,11.42-9.53,44.55,44.55,0,0,1,6.91-3.28c2-.71,3.41-.43,5.67.33s4.55,1.51,6.29,3,2.52,4.2,2.76,6.57c.13,1.37.15,2.73.15,4.1a32.31,32.31,0,0,1-.09,4.51,22.5,22.5,0,0,1-2.6,7.28c-.81,1.51-1.69,3-2.41,4.55a36,36,0,0,0-1.6,4.62c-1,3.08-3.21,5.31-4.66,8.13-1.58,3.07-2.88,6.33-4.23,9.51-.57,1.37-.91,2.8-1.44,4.18a9.49,9.49,0,0,0-1,5.16c.18,1.33,1.9,2.06,3.07,1.74a2.56,2.56,0,0,0,1.75-3.07,4.63,4.63,0,0,1,.48-1.31c.27-.67.57-1.31.79-2,.47-1.39.91-2.73,1.5-4.07a87.54,87.54,0,0,1,4-8.76c.69-1.2,1.57-2.28,2.35-3.43a16.48,16.48,0,0,0,2.07-4.36,31.36,31.36,0,0,1,1.42-4.23c.68-1.41,1.48-2.77,2.21-4.15a28,28,0,0,0,3.1-8.44,39.24,39.24,0,0,0,.18-9.38,18,18,0,0,0-2.43-8.5,14.68,14.68,0,0,0-7.07-5.28,23.49,23.49,0,0,0-7.76-2.18c-2.54-.12-4.89,1-7.15,2a49.29,49.29,0,0,0-13.91,9.11,64.13,64.13,0,0,0-5.28,6.13c-.91,1.15-2.12,2-3.08,3.13a19,19,0,0,0-2.55,4.12,86.54,86.54,0,0,1-4.47,8.26c-1.55,2.45-4,4.07-5.95,6.19-4.56,5.05-9.53,10.11-12.55,16.28a58.92,58.92,0,0,0-3.53,10.42c-1,3.41-2.72,6.54-2.73,10.15,0,3.22,5,3.22,5,0Z"/><path class="cls-5" d="M657.93,743c0,5.38-.74,10.9.09,16.25.61,3.89,3,6.32,6.92,6.64s8.52.86,12.42-.33a35.17,35.17,0,0,0,6.36-3.15c2.37-1.3,4.84-2.19,7.29-3.3A34.34,34.34,0,0,0,703.07,750c1.39-1.69,2.63-3.5,3.93-5.27a75.06,75.06,0,0,1,5.24-6c3.49-3.83,6.76-7.87,10.48-11.48,3.56-3.45,7.8-5.93,11.52-9.19,1.55-1.36,3.45-2.33,4.92-3.78a27.34,27.34,0,0,0,4.07-6.2c2.29-4.11,4.34-8.38,7.06-12.23,1.33-1.88,3-3.46,4.28-5.38,1.39-2.09,2.4-4.12,4.18-5.95a41.19,41.19,0,0,0,4.19-5.21c1.59-2.3,3.34-4.33,5.11-6.48,3.05-3.67,4.07-8.4,7.55-11.83a13.85,13.85,0,0,0,3.62-5.38,24.66,24.66,0,0,1,2.8-5.83,19.72,19.72,0,0,0,2.31-5.62,38.92,38.92,0,0,1,3-7c2.36-4.37,5.22-8.43,7.89-12.6a35.31,35.31,0,0,0,3.31-5.91c.84-2.12,1-4.36,1.6-6.53,1.47-5,4.88-9.89,7.83-14.09s6.69-7.61,9.43-11.87a61.9,61.9,0,0,1,3.77-5.93c1.61-2,3.35-3.77,4.78-5.89,2.83-4.2,5.28-8.59,8.26-12.7,3.15-4.33,6.45-8.57,9.59-12.92,3-4.16,5.49-8.62,8.37-12.85,2.74-4,6.16-7.61,9.08-11.51,3.41-4.56,6.79-9.14,9.94-13.89,2.55-3.85,6.07-7.07,8.1-11.26,1-2,1.42-4.14,2.27-6.17,1-2.36,2-4.73,3-7.1s2.61-4,4.21-5.85a53.63,53.63,0,0,0,4.57-6.34c1.3-2,2.39-4.2,3.76-6.2,1.55-2.26,3.28-4.38,4.81-6.66a33.6,33.6,0,0,0,3.25-6.13,62.68,62.68,0,0,1,3.92-7.32,29.59,29.59,0,0,0,2.65-6.4,24.32,24.32,0,0,1,2.92-6c2.72-4.38,4.53-9.24,7.23-13.65a166.16,166.16,0,0,0,13.32-27.71c1.91-5,3.61-10.21,5.08-15.39s2.28-10.59,3.63-15.85,1.55-10.77,2.61-16.1,2-10.65,3.48-15.86c1.56-5.42,3.65-10.69,5.35-16.08.74-2.32,1.78-4.43,2.68-6.68s1.17-4.8,2-7.12c1.78-4.76,5.42-9.24,8.76-13,2.13-2.4-1.39-6-3.54-3.54a62.92,62.92,0,0,0-8.8,12.44,25.28,25.28,0,0,0-2.14,6.16,48.37,48.37,0,0,1-2.72,7.16c-2,4.85-3.4,10.05-5.07,15a119.48,119.48,0,0,0-3.9,15.27c-1,5.29-2,10.52-2.64,15.87a53.65,53.65,0,0,1-1.63,7.65c-.7,2.56-1,5.19-1.54,7.78a141.5,141.5,0,0,1-10.35,29.83c-2.13,4.61-3.95,9.39-6.56,13.76s-5,8.57-7.21,13.09c-2,4.06-4.61,7.54-5.91,11.91a26,26,0,0,1-2.9,6.26,57.27,57.27,0,0,0-3.62,7.22c-2,4.5-5.28,8.12-8,12.17-2.86,4.3-5.21,8.66-8.63,12.59-3.18,3.64-4.72,8.13-6.63,12.52-.88,2-1.31,4.23-2.3,6.21a32.35,32.35,0,0,1-4.13,5.87c-3.19,3.89-5.84,8.17-8.79,12.25s-6.12,8.35-9.45,12.32a111.56,111.56,0,0,0-8.3,11.94c-2.73,4.27-5.75,8.34-8.78,12.39S829,560,826.23,564.37c-2.67,4.16-5,8.21-8.27,11.94s-5.21,8.19-8.45,11.89a82.45,82.45,0,0,0-8.94,12.07c-2.53,4.2-4.93,8.48-5.82,13.34-.84,4.58-3.72,8.29-6.23,12.11a89,89,0,0,0-7.09,12.12,49.38,49.38,0,0,0-2.33,6.43c-.61,2.08-2,3.45-3,5.31s-1.19,4.22-2.36,6c-1.28,1.95-3.3,3.36-4.64,5.32a39.2,39.2,0,0,0-3.18,5.88c-1.09,2.37-2.91,4-4.5,6-1.45,1.84-2.67,3.84-4.08,5.7s-3.36,3.43-4.73,5.41c-1.21,1.75-2,3.68-3.43,5.33a56.08,56.08,0,0,0-4.29,5.63c-2.55,4-4.57,8.24-6.95,12.31a13.63,13.63,0,0,1-4.06,4.82c-1.9,1.31-3.52,2.89-5.32,4.33s-4,2.69-5.87,4.2a54,54,0,0,0-5.2,4.83c-3.65,3.8-7,7.89-10.6,11.73-3.27,3.47-5.6,7.71-8.92,11.11-3.73,3.82-8.14,5.87-12.93,8-4.33,1.9-7.89,5-12.78,5.06-2,0-4-.14-6.07-.25s-2.87-.27-3.26-2.4c-.91-5,0-10.48,0-15.56,0-3.22-5-3.22-5,0Z"/><path class="cls-5" d="M967.09,288.39c3.21,0,3.22-5,0-5s-3.23,5,0,5Z"/><path class="cls-5" d="M620,777.59a20.37,20.37,0,0,0-.41-2.44l-4.57,1.93c.8,1.26.64,2.88,1.07,4.27a28.18,28.18,0,0,0,2.39,4.87,82.44,82.44,0,0,1,3.8,9.52,40.33,40.33,0,0,1,1.62,5,29.23,29.23,0,0,1,1.07,4.94,12.45,12.45,0,0,0,1,5c.65,1.33,1.5,2.31,1.61,3.82a9.32,9.32,0,0,0,1.44,4.69c.45.69,1,1.33,1.38,2a30.74,30.74,0,0,1,1.33,2.92c1.46,3.32,2.75,6.67,4.06,10s3,6.43,4.27,9.74,1.31,6.84,2,10.33a90.37,90.37,0,0,0,2.71,10c1.15,3.44,2.61,6.73,4,10.09,1.3,3.18,2.15,6.52,3.18,9.79,1.17,3.67,2.54,7.28,3.65,11a30,30,0,0,1,1.07,4.76c.23,1.86.25,3.74.59,5.58.64,3.38,2.38,6.47,3.27,9.79a35.84,35.84,0,0,1,1.2,4.55,22.56,22.56,0,0,0,.86,4.68c.57,1.57,1.42,3,2.1,4.52.76,1.7,1.36,3.46,2,5.21.71,1.94,1.59,3.84,2.2,5.82s.92,3.73,1.66,5.52c.61,1.48,1.61,2.85,1.9,4.44.36,2,.31,4.13.53,6.17a114.12,114.12,0,0,0,1.88,11.49c.81,3.8,2.37,7.36,3,11.22.38,2.51,4.26,2.26,4.82,0l.15-.58c.78-3.13-4-4.46-4.82-1.33l-.15.59h4.82c-.52-3.45-1.84-6.61-2.66-10s-1.22-6.63-1.79-9.94c-.59-3.46-.09-7.33-1.43-10.63-.56-1.36-1.37-2.6-1.84-4-.62-1.84-.94-3.78-1.64-5.59-1.29-3.36-2.48-6.78-3.89-10.09-.61-1.41-1.43-2.75-2-4.18a27.14,27.14,0,0,1-.89-4.89,51.73,51.73,0,0,0-3-9.64,22.13,22.13,0,0,1-1.48-4.7c-.29-1.86-.32-3.76-.59-5.62a59.13,59.13,0,0,0-3-10.46c-1.2-3.51-2.27-7-3.39-10.59-1-3.31-2.49-6.44-3.76-9.66A91.81,91.81,0,0,1,648,857.32c-.43-1.61-.81-3.24-1.14-4.87s-.47-3.56-.72-5.34c-.53-3.64-2.24-7-3.77-10.32s-2.64-6.64-4-9.94-2.7-6.87-4.76-9.89a4.54,4.54,0,0,1-1-2.09,20.61,20.61,0,0,0-.33-2.72c-.43-1.63-1.73-2.89-2.13-4.5a20.43,20.43,0,0,1-.23-2.93,21.13,21.13,0,0,0-.7-3.25,47.43,47.43,0,0,0-1.45-5.38c-1.43-3.73-2.64-7.56-4.35-11.17-.78-1.63-2-3.17-2.5-4.9s-.48-3.74-1.57-5.47a2.51,2.51,0,0,0-4.57,1.93,8.76,8.76,0,0,1,.23,1.11,2.58,2.58,0,0,0,2.5,2.5,2.51,2.51,0,0,0,2.5-2.5Z"/><path class="cls-5" d="M770.69,665.6a32.1,32.1,0,0,1,5,8.2c1.49,3.17,2.31,6.69,4.22,9.64,2,3.14,4.66,5.86,6.62,9a93.34,93.34,0,0,1,5.07,10.4c3.19,6.92,8,13,10.94,20,1.38,3.28,3.48,6.08,5.06,9.25a24.34,24.34,0,0,1,1.55,4.86c.5,1.9,1,3.8,1.63,5.67a56.88,56.88,0,0,0,4.69,11,90.29,90.29,0,0,0,6.23,9.18c2.26,3,4.57,6,6.63,9.14,2.18,3.32,4.08,6.82,6.18,10.19,1.07,1.73,2.28,3.4,3.29,5.17a27.31,27.31,0,0,1,2.12,5c1.18,3.53,2.16,7.18,4.24,10.31,1,1.46,2.07,2.81,3.06,4.25s1.93,3.25,2.95,4.84c2.09,3.24,4.5,6.27,6.88,9.3,5.05,6.44,10,12.93,14.68,19.68a45.31,45.31,0,0,0,7,8.6,21.82,21.82,0,0,1,3.7,3.74c1,1.45,1.67,3.09,2.72,4.5a10.13,10.13,0,0,0,1.67,1.73c.43.35.8.58.91,1,.86,3.1,5.69,1.78,4.82-1.32-.47-1.68-1.58-2.6-2.8-3.71s-1.81-2.8-2.66-4.18c-2-3.23-5.22-5.26-7.64-8.13s-4.38-6.18-6.59-9.24c-2.44-3.4-5-6.74-7.53-10.06s-5-6.31-7.39-9.51c-1.16-1.53-2.3-3.1-3.35-4.72s-1.82-3.16-2.84-4.68c-2-3-4.22-5.54-5.44-8.93-1.3-3.61-2.21-7.39-4.09-10.76-1-1.77-2.2-3.43-3.28-5.16s-2.17-3.55-3.23-5.34a113.53,113.53,0,0,0-6.31-9.66c-4.48-6.07-9.35-12-12.21-19a89.59,89.59,0,0,1-3.52-11.26,35.28,35.28,0,0,0-4.56-9.65c-1.92-3.17-3.14-6.69-5-9.92s-4-6.43-5.79-9.74c-1.91-3.46-3.39-7.14-5.09-10.71a51.37,51.37,0,0,0-6.23-9.79,45,45,0,0,1-3.16-4.38,31.32,31.32,0,0,1-2.12-5.08,57.27,57.27,0,0,0-4.54-9.23,26.53,26.53,0,0,0-3-4c-2.18-2.37-5.71,1.18-3.53,3.54Z"/><path class="cls-5" d="M650.1,609.05c.55,2,2,2.58,3.41,3.75a30.1,30.1,0,0,1,3.84,4.29c2.42,2.92,5.15,5.54,7.49,8.54a37,37,0,0,1,5.65,9.48,20.4,20.4,0,0,1,1.25,5.15,17.38,17.38,0,0,0,1.75,6,5,5,0,0,1,.38,1c0,.11,0,.22.08.34.13.53,0-.4,0,0,.06.63.1,1.25.11,1.88,0,.36,0,.73,0,1.1,0,.14,0,.27,0,.41,0,.45.13-.51,0,.23-.05.19-.12.74-.14.57s-.16.12,0-.06,1-.56.64-.48a2.53,2.53,0,0,0-1.75,3.07,2.56,2.56,0,0,0,3.08,1.75c3.22-.68,3.37-5.08,3.21-7.65a12.15,12.15,0,0,0-1.21-4.69,17.1,17.1,0,0,1-1.31-5.48c-1.16-8.29-7.23-15.55-12.72-21.49-1.62-1.74-3.12-3.54-4.66-5.34a19.59,19.59,0,0,0-2.4-2.42,15.11,15.11,0,0,0-1.47-1c-.18-.12-.35-.31-.33-.22-.86-3.09-5.69-1.78-4.82,1.33Z"/><path class="cls-5" d="M494.56,647c3.81.52,6.19,4.31,9.87,5.37,3.42,1,7.52-.6,10.52-2.19a11.33,11.33,0,0,0,4-3.22,11.86,11.86,0,0,0,2-5.83c.4-4.2-.85-8.49-2.52-12.29a33.06,33.06,0,0,0-2.87-5.66c-1.68-2.39-4-4.33-6.06-6.39-2.28-2.27-5.82,1.26-3.53,3.54,1.61,1.61,3.32,3.14,4.84,4.84a18.79,18.79,0,0,1,2.46,4.43,24.2,24.2,0,0,1,2.72,9.23,9.57,9.57,0,0,1-.62,4.44,4.3,4.3,0,0,1-2.34,2.29,17.25,17.25,0,0,1-4,1.67c-.39.11-.79.21-1.2.29s-.54.09-.59.1l-.89,0c-.11,0-.5-.07,0,0a4.7,4.7,0,0,1-.51-.12c-1.68-.49-3.12-1.85-4.51-2.87a11.92,11.92,0,0,0-5.36-2.5,2.57,2.57,0,0,0-3.07,1.74,2.52,2.52,0,0,0,1.74,3.08Z"/><path class="cls-5" d="M524.54,725.07a14.49,14.49,0,0,1,8.26-7.21,16.77,16.77,0,0,1,10.61.32,11,11,0,0,1,4,2.94,21.68,21.68,0,0,1,1.74,2.3c.28.41.58.81.85,1.22s.35.35.3.76a8,8,0,0,1-.69,1.48c-.44.83-.93,1.62-1.35,2.46a39.87,39.87,0,0,0-1.72,4.36,17.61,17.61,0,0,1-2.13,4.55s-.29.37-.06.08a6.15,6.15,0,0,1-.49.53,3.38,3.38,0,0,1-.35.31c.28-.21,0,0-.16.07s-.55.23-.13.08a3.56,3.56,0,0,1-.56.15c-.4.08.55,0-.19,0-.27,0-.53,0-.8-.06a2.51,2.51,0,0,0-2.5,2.5,2.56,2.56,0,0,0,2.5,2.5c4.7.58,7.36-3.53,8.9-7.31.35-.85.66-1.71,1-2.58l.44-1.23.18-.46.17-.45c-.08.2-.09.22,0,.06.83-1.89,2.13-3.57,2.75-5.56.87-2.82-.85-5-2.43-7.2a19.19,19.19,0,0,0-5.22-5.06c-4.08-2.53-9.42-2.85-14-2-5.74,1-10.31,4.94-13.1,9.94-1.56,2.82,2.75,5.34,4.32,2.53Z"/><path class="cls-5" d="M552,754.36c0,.49,0,0,.1-.18-.14.3.18-.3.22-.38a15,15,0,0,1,1.23-1.83,10.17,10.17,0,0,1,2.23-2.35c1.17-.71,2.88-.47,4.19-.66a14.24,14.24,0,0,0,4.52-1.89c2.39-1.27,5.41.59,7.45,1.91,2.56,1.67,4.45,4,4.48,7.13a7.76,7.76,0,0,1-.12,2.23,6.77,6.77,0,0,1-.85,1.47c-.32.49-.68,1-1,1.46s-.55.55-.78.86.28,0,.08,0c-3.15.67-1.82,5.49,1.33,4.82,1.75-.37,3-2.18,4-3.53a10.88,10.88,0,0,0,2.28-4.72,13.17,13.17,0,0,0-4-11.86,20.71,20.71,0,0,0-5.31-3.57,13.6,13.6,0,0,0-6.24-1.67c-2.22.1-3.71,1.41-5.66,2.21-1.74.71-3.77.24-5.55.92a11.33,11.33,0,0,0-4.68,3.95c-1.33,1.69-2.62,3.47-2.82,5.68a2.52,2.52,0,0,0,2.5,2.5,2.55,2.55,0,0,0,2.5-2.5Z"/><path class="cls-5" d="M609.75,762.28c0,.33.1-.41.14-.52a3.41,3.41,0,0,1,.26-.5,7.25,7.25,0,0,1,1.32-1.41,18.29,18.29,0,0,1,3.73-2.19,28,28,0,0,1,9.21-2.85,13.08,13.08,0,0,1,5.29.79,22.94,22.94,0,0,1,2.39,1c.34.16.67.33,1,.52l.32.2c.24.15-.17-.18.15.11a3.19,3.19,0,0,1,.31.33s-.2-.28-.05,0c.24.41.09.09.2.46a9.17,9.17,0,0,1,.36,2.44,7.47,7.47,0,0,1-1.11,4.6c.34-.5-.06.07-.21.25s-.48.57-.73.84c-.55.61-1.12,1.2-1.7,1.78a21.68,21.68,0,0,1-1.68,1.5c.26-.2-.42.27-.52.34a2,2,0,0,0-.25.14c.18-.19.27-.12.58-.14-3.2.19-3.22,5.19,0,5,1.82-.11,3.26-1.34,4.55-2.51a33.14,33.14,0,0,0,3.43-3.58,13,13,0,0,0,1.67-13.09,7.82,7.82,0,0,0-4.06-3.6,23.14,23.14,0,0,0-7.42-2.31c-4.53-.51-9,1.24-13.15,3s-8.61,4.52-9,9.42a2.5,2.5,0,0,0,5,0Z"/><path class="cls-5" d="M663.59,758.88l-.06.75c-.19,2.41,3.63,3.49,4.66,1.26.79-1.7,1.48-3.44,2.14-5.2.41-1.07.79-2.33,1.52-2.83a10.24,10.24,0,0,1,3.15-1.13,24.48,24.48,0,0,0,4.14-1.61A10.15,10.15,0,0,1,682,749a5.44,5.44,0,0,1,3.33,1.19c1.79,1.27,2.2,3.11,2,5.35a2.51,2.51,0,0,0,2.5,2.5,2.55,2.55,0,0,0,2.5-2.5,10.19,10.19,0,0,0-3.48-8.91,11.74,11.74,0,0,0-4.87-2.44,8.75,8.75,0,0,0-5.6.79,32.58,32.58,0,0,1-4.43,1.89,20.81,20.81,0,0,0-4.29,1.51c-3.6,2-4.23,6.6-5.81,10l4.65,1.26.06-.74a2.5,2.5,0,0,0-5,0Z"/><path class="cls-5" d="M673.35,642.18a16.66,16.66,0,0,0-5.08,2,9.91,9.91,0,0,1-3.94,1.51,13.76,13.76,0,0,1-3.76-.57c-.63-.13-1.24-.3-1.86-.46s-.16,0,.18.2c-.13-.08-.21-.33,0,0-.07-.14-.18-.26-.25-.4-1.31-2.4-1.6-5.81-3.24-8.37-1-1.54-2.6-3.45-2.73-5.35-.09-1.29,1.36-2.15,2.19-3,1.21-1.28,2.15-3.21,3.72-4.08,1.78-1,4.45-.33,6.4-.31,3.22,0,3.22-5,0-5-2.49,0-5.17-.49-7.57.37-2.19.79-3.59,2.43-5,4.19-1.27,1.6-3.07,2.87-4,4.7-1.32,2.48-.57,5.23.62,7.6a33.36,33.36,0,0,0,1.85,3.1c.25.39.52.77.75,1.18,0,0,.28.6.16.31s.13.37.15.43c.6,1.73,1,3.53,1.69,5.23s1.66,3.28,3.59,3.94a29.91,29.91,0,0,0,4.48,1,11.42,11.42,0,0,0,7.1-.89c2-.89,3.73-2.15,5.92-2.49a2.53,2.53,0,0,0,1.74-3.08,2.56,2.56,0,0,0-3.07-1.75Z"/><path class="cls-5" d="M697.78,610.41a13,13,0,0,0-4.13,1c-1.47.47-3,.17-4.55.17-.64,0-1.28,0-1.92,0l-.35,0s.41.09.14,0-.69-.24-.26,0c-.14-.07-.48-.36-.2-.11a7.07,7.07,0,0,1-.65-.69,10.45,10.45,0,0,1-1.11-1.81,23.94,23.94,0,0,1-1.35-4.23c-.38-1.36-.84-2.67-1.34-4a19,19,0,0,1-1.2-3.83,10.63,10.63,0,0,1,0-1.14,1.68,1.68,0,0,1,.62-1.15,5.09,5.09,0,0,1,3.43-.88c1.65,0,3.29.19,5,.2,3.21,0,3.22-5,0-5-3.5,0-7.35-.83-10.53,1.08-3.43,2-4,5.94-3,9.52.43,1.53,1.1,3,1.61,4.49.61,1.76.95,3.59,1.58,5.34,1.17,3.27,3.29,6.82,7.06,7.18a22.08,22.08,0,0,0,2.3,0c1.11,0,2.21.12,3.31.08a9.81,9.81,0,0,0,3.3-.63,6.35,6.35,0,0,1,2.26-.58c3.21,0,3.22-5,0-5Z"/><path class="cls-5" d="M711.35,576.47a21.37,21.37,0,0,0-6.72.53,14.83,14.83,0,0,1-4.35.64c-1.41,0-1.95-.4-2.54-1.84a40.3,40.3,0,0,1-1.35-4.75,30.9,30.9,0,0,1-.63-5.51c-.18-2-1.26-3.87-1.2-5.83,0-.73-.06.08.05-.55.1-.29.1-.34,0-.12.15-.25.16-.28,0-.09a5.12,5.12,0,0,1,1.11-.49,10.32,10.32,0,0,1,4.3-.76,2.51,2.51,0,0,0,2.5-2.5,2.56,2.56,0,0,0-2.5-2.5,12,12,0,0,0-4.56.62,9.69,9.69,0,0,0-4.3,2c-2.81,2.75-1.17,6.66-.5,9.88.38,1.8.22,3.72.53,5.54a48.71,48.71,0,0,0,1.27,5c1,3.57,3.1,6.73,7.13,6.86a17.16,17.16,0,0,0,5.49-.54,12.49,12.49,0,0,1,2.61-.66c1.21-.09,2.43,0,3.64,0,3.22,0,3.23-5,0-5Z"/><path class="cls-5" d="M694.38,488.2a8.11,8.11,0,0,0-4.4.78,7.4,7.4,0,0,0-2.77,3.73,11.56,11.56,0,0,0,0,9.63c1.43,3,3.87,5.44,6,7.88,2.33,2.64,5.33,4.95,9.07,4.48a2.58,2.58,0,0,0,2.5-2.5,2.51,2.51,0,0,0-2.5-2.5c-2.38.3-3.79-1.05-5.43-2.9a43,43,0,0,1-4.73-5.87,11.57,11.57,0,0,1-.72-1.35,5.59,5.59,0,0,1-.26-.82c-.18-.73,0,.32-.06-.4a9.36,9.36,0,0,1,.55-3.27c.09-.27.18-.55.29-.81-.16.37.15-.29.18-.35a5.72,5.72,0,0,1,.41-.67c-.3.39.08-.09.17-.13-.25.19-.27.22,0,.07-.29.12-.34.14-.16.08l.28-.07c-.29,0-.34,0-.14,0a14.44,14.44,0,0,1,1.74,0c3.22.07,3.22-4.93,0-5Z"/><path class="cls-5" d="M512.67,310.64a5.16,5.16,0,0,0-3.81,3.46,11.93,11.93,0,0,0-.29,4c.05,2.5-.05,5.54,2.55,6.87a8.91,8.91,0,0,0,4.06.72c1.86,0,3.64.38,5.45-.25a8.48,8.48,0,0,0,4.12-3.13c.86-1.14,1.56-2.3,2.39-3.31a44.79,44.79,0,0,0,6.45-10.39,2.58,2.58,0,0,0-.89-3.42,2.52,2.52,0,0,0-3.42.9,41,41,0,0,1-4.14,7.4c-.87,1.21-1.86,2.31-2.75,3.5-.36.47-.7,1-1,1.46-.14.22-.28.43-.43.64l-.21.31c-.44.62.16-.16-.12.16a6,6,0,0,1-.48.52,2.84,2.84,0,0,1-.26.24c.09-.07.32-.2-.08,0a2.79,2.79,0,0,1-1.18.47,8.8,8.8,0,0,1-2-.09c-.67,0-1.34,0-2-.06l-.67,0c-.48,0,.37.11-.18,0-.09,0-.62-.17-.22,0s.11.06,0,0c-.35-.23.35.32.13.12s.16.22.07.09c-.25-.34,0,.17,0,.07a3.1,3.1,0,0,0-.13-.57c.11.53,0,0,0-.24-.06-1.19-.08-2.41-.06-3.59,0-.12,0-.23,0-.35s.08-.67,0-.34.11-.37.16-.49c0,.07-.19.32,0,.14s-.27.23-.26.21.33-.15.12-.1l.45-.12c3.12-.76,1.8-5.59-1.33-4.82Z"/><path class="cls-5" d="M576.46,280.23a7.67,7.67,0,0,1-1.37,4,25.09,25.09,0,0,0-2.41,5.3c-.62,2-1,4.05-1.83,6a10.56,10.56,0,0,0-1.16,5.64c.81,5.84,7.16,8.46,12.35,8.93a13.82,13.82,0,0,0,8.37-1.62c2.73-1.68.23-6-2.53-4.32l-.55.32c-.4.22.24-.06-.21.1a10.68,10.68,0,0,1-1.47.41l-.53.1-.55,0a14.13,14.13,0,0,1-1.72,0,13,13,0,0,1-5.68-1.54,5.85,5.85,0,0,1-1.88-1.55,3.22,3.22,0,0,1-.69-1.83c0-1.61,1-3.14,1.54-4.64.58-1.77,1-3.58,1.57-5.34a28.07,28.07,0,0,1,2.28-4.47,11.69,11.69,0,0,0,1.47-5.48c.07-3.22-4.93-3.22-5,0Z"/><path class="cls-5" d="M632.81,297.06c-6.76-1.28-10.4,6.33-12.77,11.35-1.38,2.92-2.71,5.69-3.13,8.94-.48,3.64.35,7.56,4.24,8.79a17.48,17.48,0,0,0,4.84.51l1.11,0,.35,0c.7.05-.45-.12.18,0a1.5,1.5,0,0,0,.29.06c.43,0,.12.16,0,0,.23.31-.08-.08-.12-.13s-.4-.87-.3-.45c.79,3.12,5.61,1.8,4.82-1.33-.72-2.87-3.85-3.13-6.3-3.18-.61,0-1.22,0-1.83,0a4.93,4.93,0,0,1-1.34-.19,3.33,3.33,0,0,1-.45-.13s.32.16.07,0-.64-.47-.3-.16c-.27-.24,0,.15-.14-.2a7.67,7.67,0,0,1-.21-.84c-.36-2.57.73-5.37,1.83-7.62s2.11-4.56,3.43-6.7a12.31,12.31,0,0,1,2.56-3.18c.26-.23,0-.07.49-.35a4.92,4.92,0,0,0,.53-.28c-.26.09.78-.15.47-.12s.92.12.38,0a2.57,2.57,0,0,0,3.08-1.74,2.53,2.53,0,0,0-1.75-3.08Z"/><path class="cls-5" d="M667.69,324.22c-2.76,1.06-5.09,3.92-6.29,6.56a80.75,80.75,0,0,0-3.69,9.87,33.64,33.64,0,0,0-1.39,8c-.14,2.87.42,6.47,3.6,7.47,1.52.49,3-.15,4.48.13a17,17,0,0,1,2.33.9,6.84,6.84,0,0,0,3.42.22,2.53,2.53,0,0,0,1.75-3.08,2.56,2.56,0,0,0-3.08-1.74c-.43.06-1.07-.35-1.48-.52a9.13,9.13,0,0,0-2.94-.81,16.26,16.26,0,0,0-2.2.15c-.12,0-.64.1-.54.05-.3-.05-.38-.08-.22-.06.22.24.25.24.1,0l-.09-.18c.11.28.13.28,0,0,0-.11-.16-.78-.14-.62a16,16,0,0,1,0-1.63,22.32,22.32,0,0,1,.5-4,58.65,58.65,0,0,1,2.74-8.58,21.63,21.63,0,0,1,2.1-4.71,11,11,0,0,1,1.23-1.49,7.57,7.57,0,0,1,.76-.74s.76-.49.38-.34a2.57,2.57,0,0,0,1.74-3.08,2.51,2.51,0,0,0-3.07-1.74Z"/><path class="cls-5" d="M636.91,703.44c-.21-1.71,1.33-2.51,2.42-3.65,1.57-1.64,2.49-3.84,4.13-5.39.78-.73,1.73-1.27,2.56-1.93a14.85,14.85,0,0,0,2-2.08c1.52-1.82,3.09-3.53,4.76-5.22s3.36-3.47,4.94-5.3c1.29-1.5,2.41-3.18,3.79-4.6,2.51-2.58,6-4.81,7-8.51.79-3.12-4-4.45-4.82-1.33-.32,1.27-1.59,2.48-2.67,3.51a42.17,42.17,0,0,0-3.78,3.66c-3.06,3.72-6.17,7.26-9.57,10.66-1.62,1.62-2.88,3.6-4.56,5.15-.78.73-1.73,1.27-2.56,1.94a12.75,12.75,0,0,0-2.36,2.66c-.61.85-1.14,1.77-1.8,2.58s-1.46,1.46-2.18,2.2a6.86,6.86,0,0,0-2.29,5.65,2.57,2.57,0,0,0,2.5,2.5,2.52,2.52,0,0,0,2.5-2.5Z"/><path class="cls-5" d="M598.35,674.48c0,.19,0-.05.14-.19a10.4,10.4,0,0,1,1.06-1,14.51,14.51,0,0,0,2.4-2.67c1.69-2.44,2.69-5.25,4.56-7.58s4-4.44,5.68-7c1.45-2.22,2.65-4.62,4.75-6.32a2.53,2.53,0,0,0,0-3.54,2.56,2.56,0,0,0-3.54,0c-2.36,1.91-3.8,4.67-5.43,7.18-1.79,2.76-4.24,5-6.19,7.66-1.79,2.42-2.67,5.66-4.78,7.81a24.37,24.37,0,0,0-2.64,2.64,5.14,5.14,0,0,0-.84,4.3c.69,3.15,5.51,1.81,4.83-1.33Z"/><path class="cls-5" d="M676.17,716c2.19-2.89,3.58-6.3,5.78-9.17,1-1.33,2.14-2.57,3.14-3.93a39.7,39.7,0,0,0,2.68-4.6c1.81-3.3,3.84-6.57,4.31-10.37a6.15,6.15,0,0,1,.45-2c.08-.14.57-.65.86-1a5.44,5.44,0,0,0,1.14-4.8,2.52,2.52,0,0,0-3.08-1.74,2.55,2.55,0,0,0-1.74,3.07s-.11.22,0,.13a10.41,10.41,0,0,0-1.25,1.48c-1,1.4-1.08,3-1.33,4.64-.5,3.31-2.76,6.28-4.27,9.19s-3.59,5.17-5.49,7.78c-2,2.8-3.4,6-5.51,8.8a2.52,2.52,0,0,0,.9,3.42,2.56,2.56,0,0,0,3.42-.9Z"/><path class="cls-5" d="M623.09,536.86c.27,0,.06.07-.11-.1s-.32-.31-.47-.46a12.81,12.81,0,0,0-1.55-1.39,13.53,13.53,0,0,1-1.59-1.09,15.67,15.67,0,0,1-1.33-1.6c-2-2.57-5.09-3.62-7.66-5.54s-5.4-2.89-7.78-4.83-4.85-4.23-7.94-5.4c-2.63-1-4.51,3.4-1.93,4.57,5,2.29,8.74,6.5,13.34,9.45,4.85,3.09,10,5.34,14.12,9.52,2.25,2.31,5.79-1.22,3.54-3.53-4.28-4.39-9.66-6.93-14.8-10.1-4.77-2.94-8.52-7.31-13.68-9.66l-1.92,4.57c2.79,1.05,4.92,3.58,7.28,5.32a35.53,35.53,0,0,0,4.08,2.41c1.49.81,2.8,1.81,4.21,2.73s2.75,1.45,4,2.35a21.29,21.29,0,0,1,2.79,3.12c1,1,2.27,1.64,3.29,2.63a5.91,5.91,0,0,0,4.11,2c3.22,0,3.23-5,0-5Z"/><path class="cls-5" d="M588,560.62c-.59,0,0,0,0,0a4.19,4.19,0,0,1-.42-.1c-.3-.08-.27-.1,0,0-.18-.08-.35-.17-.51-.26a8.1,8.1,0,0,1-.85-.53c-.06,0-.52-.36-.26-.17s-.2-.17-.25-.21a42.78,42.78,0,0,1-3.29-3.17,33.72,33.72,0,0,0-8.63-6.14,2.52,2.52,0,0,0-3.22.65,2.49,2.49,0,0,0,.19,3.28l.75.69a2.5,2.5,0,1,0,3.53-3.54l-.74-.69-3,3.93a38.17,38.17,0,0,1,4.91,2.94l.32.24c.21.16.41.33.61.5s.56.49.83.74c.52.49,1,1,1.5,1.51,2.29,2.35,5,5.18,8.54,5.28a2.51,2.51,0,0,0,2.5-2.5,2.55,2.55,0,0,0-2.5-2.5Z"/><path class="cls-5" d="M563,366.7c-.29,1.6-1.47,3-2.06,4.68a21.3,21.3,0,0,0-.7,2.75c-.11.48-.21,1-.35,1.44a4,4,0,0,1-.33.89c0,.08-.22.34-.06.13a3.07,3.07,0,0,1-.34.38c-.26.28-.54.55-.81.82a10,10,0,0,0-1.62,2,5.58,5.58,0,0,0-.75,2.79c0,.27,0,.54,0,.81s.11-.27.22-.46a.74.74,0,0,1,.48-.49c.37-.18.38-.21,0-.08l3.16,2.41c0-.54,0-.1-.07.05.16-.29.12-.14-.08,0L556,383.32c0-.26-.11.32,0,0s-.11.23-.16.3a2.18,2.18,0,0,1-.61.53l3.42.9c.3.63.07.16,0,0-.06-.45-.05.38,0,.07a9.14,9.14,0,0,0,0-1c0,.36,0,.2,0-.06l.12-.54q.15-.62.36-1.23c.14-.42.3-.83.46-1.25s0,0,.08-.19.16-.38.25-.56c.35-.78.74-1.54,1.14-2.29,1.88-3.47,4.49-6.45,4.47-10.62,0-3.21-5-3.22-5,0a6.41,6.41,0,0,1-.46,2.45,21.82,21.82,0,0,1-1.57,2.68,44,44,0,0,0-2.38,4.17c-1.62,3.24-3.52,7.38-1.87,10.95a2.51,2.51,0,0,0,3.42.89,6.09,6.09,0,0,0,3.08-6.52,2.51,2.51,0,0,0-3.67-1.49,5.24,5.24,0,0,0-2.33,4.25,2.53,2.53,0,0,0,3.17,2.42,3.8,3.8,0,0,0,2.74-2.43,6.72,6.72,0,0,0,.2-2.28c0-.14,0-.14,0,0s0,.17,0-.08c-.17.17,0,.07.06-.09.28-.56-.17.12.22-.33.11-.13.23-.26.35-.38a20.2,20.2,0,0,0,2-2.17c1.24-1.73,1.37-3.94,1.92-5.93.5-1.79,1.95-3.44,2.31-5.46a2.56,2.56,0,0,0-1.74-3.08A2.53,2.53,0,0,0,563,366.7Z"/><path class="cls-5" d="M599.09,382.07c0-.39-.13.3,0,.09a6.32,6.32,0,0,1-.47.79,12.25,12.25,0,0,1-1,1.17,26.69,26.69,0,0,0-2.61,3,38.46,38.46,0,0,0-3.86,7.66c-.73,1.85-1.29,3.76-2,5.61a15.56,15.56,0,0,1-1.14,2.28c-.12.19-.24.39-.38.57.33-.42-.11.09-.16.13-.38.31.4-.12-.07.06s.5-.14,0,0c-3.12.77-1.8,5.59,1.33,4.82,2.21-.55,3.56-2.7,4.45-4.64,1-2.23,1.75-4.57,2.59-6.88l.24-.61c.07-.18,0-.13-.07.13l.15-.32,1.05-2.14a29.4,29.4,0,0,1,2.27-4.2c1.88-2.47,4.45-4.17,4.73-7.52a2.53,2.53,0,0,0-2.5-2.5,2.56,2.56,0,0,0-2.5,2.5Z"/></g></svg>