<svg id="Layer_1" data-name="Layer 1" xmlns="http://www.w3.org/2000/svg" xmlns:xlink="http://www.w3.org/1999/xlink" viewBox="0 0 2700 1700"><defs><style>.cls-1{mask:url(#mask);filter:url(#luminosity-noclip-9);}.cls-10,.cls-12,.cls-14,.cls-16,.cls-2,.cls-21,.cls-23,.cls-26,.cls-28,.cls-30,.cls-37,.cls-39,.cls-4{stroke:#fff;}.cls-10,.cls-12,.cls-14,.cls-16,.cls-2,.cls-21,.cls-23,.cls-26,.cls-28,.cls-30,.cls-37,.cls-39,.cls-4,.cls-63,.cls-64,.cls-69,.cls-70{stroke-miterlimit:10;}.cls-10,.cls-12,.cls-14,.cls-16,.cls-2,.cls-4,.cls-6,.cls-8{mix-blend-mode:multiply;}.cls-2{fill:url(#linear-gradient);}.cls-3{mask:url(#mask-2);filter:url(#luminosity-noclip-14);}.cls-4{fill:url(#linear-gradient-2);}.cls-5{mask:url(#mask-3);filter:url(#luminosity-noclip-15);}.cls-6{fill:url(#linear-gradient-3);}.cls-7{mask:url(#mask-4);filter:url(#luminosity-noclip-16);}.cls-8{fill:url(#linear-gradient-4);}.cls-11,.cls-9{mask:url(#mask-5);}.cls-9{filter:url(#luminosity-noclip-10);}.cls-10{fill:url(#linear-gradient-5);}.cls-11{filter:url(#luminosity-noclip-11);}.cls-12{fill:url(#linear-gradient-6);}.cls-13{mask:url(#mask-7);filter:url(#luminosity-noclip-12);}.cls-14{fill:url(#linear-gradient-7);}.cls-15{mask:url(#mask-8);filter:url(#luminosity-noclip-13);}.cls-16{fill:url(#linear-gradient-8);}.cls-17{fill:url(#radial-gradient);}.cls-18{fill:url(#radial-gradient-2);}.cls-19,.cls-31{fill:#fff;}.cls-19{opacity:0.3;}.cls-20{fill:url(#linear-gradient-9);}.cls-21{fill:url(#radial-gradient-3);}.cls-22{mask:url(#mask-9);}.cls-23{fill:url(#linear-gradient-10);}.cls-24{fill:url(#radial-gradient-4);}.cls-25{mask:url(#mask-10);}.cls-26{fill:url(#linear-gradient-11);}.cls-27{mask:url(#mask-11);}.cls-28{fill:url(#linear-gradient-12);}.cls-29{mask:url(#mask-12);}.cls-30{fill:url(#linear-gradient-13);}.cls-32{opacity:0.43;}.cls-33{fill:url(#linear-gradient-14);}.cls-34{fill:url(#linear-gradient-15);}.cls-35{fill:url(#linear-gradient-16);}.cls-36{mask:url(#mask-13);}.cls-37{fill:url(#linear-gradient-17);}.cls-38{mask:url(#mask-14);}.cls-39{fill:url(#linear-gradient-18);}.cls-40{fill:url(#linear-gradient-19);}.cls-41{fill:url(#linear-gradient-20);}.cls-42{fill:url(#linear-gradient-21);}.cls-43{fill:url(#linear-gradient-22);}.cls-44{mask:url(#mask-15);}.cls-45{fill:url(#linear-gradient-23);}.cls-46{mask:url(#mask-16);}.cls-47{fill:url(#linear-gradient-24);}.cls-48{fill:url(#linear-gradient-25);}.cls-49{fill:url(#linear-gradient-26);}.cls-50{fill:url(#linear-gradient-27);}.cls-51{fill:url(#linear-gradient-28);}.cls-52{opacity:0.09;fill:url(#linear-gradient-29);}.cls-53{fill:url(#linear-gradient-30);}.cls-54{fill:url(#linear-gradient-31);}.cls-55{fill:url(#linear-gradient-32);}.cls-56{fill:#1c191b;}.cls-57{fill:url(#linear-gradient-33);}.cls-58{fill:url(#linear-gradient-34);}.cls-59{fill:url(#linear-gradient-35);}.cls-60{fill:url(#linear-gradient-36);}.cls-61{fill:url(#linear-gradient-37);}.cls-62{fill:url(#linear-gradient-38);}.cls-63,.cls-64,.cls-69,.cls-70{stroke:#8496af;}.cls-63{fill:url(#linear-gradient-39);}.cls-64{fill:url(#linear-gradient-40);}.cls-65{opacity:0.05;fill:url(#linear-gradient-41);}.cls-66{fill:url(#linear-gradient-42);}.cls-67{fill:url(#linear-gradient-43);}.cls-68{fill:url(#linear-gradient-44);}.cls-69{fill:url(#linear-gradient-45);}.cls-70{fill:url(#linear-gradient-46);}.cls-71{fill:url(#linear-gradient-47);}.cls-72{fill:url(#linear-gradient-48);}.cls-73{fill:url(#linear-gradient-49);}.cls-74{opacity:0.08;}.cls-75{fill:url(#linear-gradient-50);}.cls-76{fill:url(#linear-gradient-51);}.cls-77{fill:url(#linear-gradient-52);}.cls-78{fill:url(#linear-gradient-53);}.cls-79{fill:url(#linear-gradient-54);}.cls-80{fill:url(#linear-gradient-55);}.cls-81{fill:url(#linear-gradient-56);}.cls-82{opacity:0.4;fill:url(#linear-gradient-57);}.cls-83{fill:url(#linear-gradient-58);}.cls-84{fill:url(#linear-gradient-59);}.cls-85{fill:url(#linear-gradient-60);}.cls-86{fill:url(#linear-gradient-61);}.cls-87,.cls-88{opacity:0.22;}.cls-87{fill:url(#radial-gradient-5);}.cls-88{fill:url(#radial-gradient-6);}.cls-89,.cls-90{opacity:0.46;}.cls-89{fill:url(#radial-gradient-7);}.cls-90{fill:url(#radial-gradient-8);}.cls-91{filter:url(#luminosity-noclip-8);}.cls-92{filter:url(#luminosity-noclip-7);}.cls-93{filter:url(#luminosity-noclip-5);}.cls-94{filter:url(#luminosity-noclip-4);}.cls-95{filter:url(#luminosity-noclip-3);}.cls-96{filter:url(#luminosity-noclip-2);}.cls-97{filter:url(#luminosity-noclip);}</style><filter id="luminosity-noclip" x="558.77" y="-9042" width="530.4" height="32766" filterUnits="userSpaceOnUse" color-interpolation-filters="sRGB"><feFlood flood-color="#fff" result="bg"/><feBlend in="SourceGraphic" in2="bg"/></filter><mask id="mask" x="558.77" y="-9042" width="530.4" height="32766" maskUnits="userSpaceOnUse"><g class="cls-97"/></mask><linearGradient id="linear-gradient" x1="319.48" y1="507.28" x2="2124.06" y2="2259.04" gradientUnits="userSpaceOnUse"><stop offset="0"/><stop offset="1" stop-color="#e6e6e6"/></linearGradient><filter id="luminosity-noclip-2" x="475.21" y="-9042" width="169.29" height="32766" filterUnits="userSpaceOnUse" color-interpolation-filters="sRGB"><feFlood flood-color="#fff" result="bg"/><feBlend in="SourceGraphic" in2="bg"/></filter><mask id="mask-2" x="475.21" y="-9042" width="169.29" height="32766" maskUnits="userSpaceOnUse"><g class="cls-96"/></mask><linearGradient id="linear-gradient-2" x1="795.39" y1="1613.22" x2="1002.3" y2="1613.22" gradientTransform="matrix(1, 0, 0, -1, -348.41, 2688.02)" xlink:href="#linear-gradient"/><filter id="luminosity-noclip-3" x="641.6" y="-9042" width="62.75" height="32766" filterUnits="userSpaceOnUse" color-interpolation-filters="sRGB"><feFlood flood-color="#fff" result="bg"/><feBlend in="SourceGraphic" in2="bg"/></filter><mask id="mask-3" x="641.6" y="-9042" width="62.75" height="32766" maskUnits="userSpaceOnUse"><g class="cls-95"/></mask><linearGradient id="linear-gradient-3" x1="884.56" y1="1848.74" x2="685.71" y2="1848.74" gradientTransform="matrix(-1, 0, 0, 1, 1467.08, -538.92)" xlink:href="#linear-gradient"/><filter id="luminosity-noclip-4" x="513.52" y="-9042" width="128.35" height="32766" filterUnits="userSpaceOnUse" color-interpolation-filters="sRGB"><feFlood flood-color="#fff" result="bg"/><feBlend in="SourceGraphic" in2="bg"/></filter><mask id="mask-4" x="513.52" y="-9042" width="128.35" height="32766" maskUnits="userSpaceOnUse"><g class="cls-94"/></mask><linearGradient id="linear-gradient-4" x1="1001.15" y1="1848.74" x2="621.26" y2="1848.74" gradientTransform="matrix(-1, 0, 0, 1, 1467.08, -538.92)" xlink:href="#linear-gradient"/><filter id="luminosity-noclip-5" x="552.57" y="-9042" width="7.94" height="32766" filterUnits="userSpaceOnUse" color-interpolation-filters="sRGB"><feFlood flood-color="#fff" result="bg"/><feBlend in="SourceGraphic" in2="bg"/></filter><mask id="mask-5" x="552.57" y="-9042" width="7.94" height="32766" maskUnits="userSpaceOnUse"><g class="cls-93"/></mask><linearGradient id="linear-gradient-5" x1="553.07" y1="677.66" x2="560.01" y2="677.66" xlink:href="#linear-gradient"/><linearGradient id="linear-gradient-6" x1="553.07" y1="807.03" x2="560.01" y2="807.03" xlink:href="#linear-gradient"/><filter id="luminosity-noclip-7" x="1087.59" y="-9042" width="7.94" height="32766" filterUnits="userSpaceOnUse" color-interpolation-filters="sRGB"><feFlood flood-color="#fff" result="bg"/><feBlend in="SourceGraphic" in2="bg"/></filter><mask id="mask-7" x="1087.59" y="-9042" width="7.94" height="32766" maskUnits="userSpaceOnUse"><g class="cls-92"/></mask><linearGradient id="linear-gradient-7" x1="1088.09" y1="807.2" x2="1095.03" y2="807.2" xlink:href="#linear-gradient"/><filter id="luminosity-noclip-8" x="415.16" y="-9042" width="289.69" height="32766" filterUnits="userSpaceOnUse" color-interpolation-filters="sRGB"><feFlood flood-color="#fff" result="bg"/><feBlend in="SourceGraphic" in2="bg"/></filter><mask id="mask-8" x="415.16" y="-9042" width="289.69" height="32766" maskUnits="userSpaceOnUse"><g class="cls-91"/></mask><linearGradient id="linear-gradient-8" x1="714.81" y1="1848.45" x2="1069.52" y2="1848.45" gradientTransform="matrix(-1, 0, 0, 1, 1467.08, -538.92)" xlink:href="#linear-gradient"/><radialGradient id="radial-gradient" cx="-325.29" cy="-479.61" r="3612.11" gradientUnits="userSpaceOnUse"><stop offset="0" stop-color="#f9f9f9"/><stop offset="0.41" stop-color="#49bcbb"/><stop offset="1" stop-color="#31439a"/></radialGradient><radialGradient id="radial-gradient-2" cx="1340.38" cy="362.54" r="1102.34" gradientTransform="matrix(0.97, 0.24, -0.24, 0.97, 330.21, -421.87)" xlink:href="#radial-gradient"/><linearGradient id="linear-gradient-9" x1="2733.99" y1="881.24" x2="1389.91" y2="1323.31" gradientTransform="matrix(0.97, 0.24, -0.24, 0.97, 330.21, -421.87)" gradientUnits="userSpaceOnUse"><stop offset="0" stop-color="#fbf7c0"/><stop offset="0.54" stop-color="#fdc780"/><stop offset="1" stop-color="#ee6362"/></linearGradient><radialGradient id="radial-gradient-3" cx="-182.02" cy="-665.91" r="3189.1" xlink:href="#radial-gradient"/><filter id="luminosity-noclip-9" x="558.77" y="480.5" width="530.4" height="1033.03" filterUnits="userSpaceOnUse" color-interpolation-filters="sRGB"><feFlood flood-color="#fff" result="bg"/><feBlend in="SourceGraphic" in2="bg"/></filter><mask id="mask-9" x="558.77" y="480.5" width="530.4" height="1033.03" maskUnits="userSpaceOnUse"><g class="cls-1"><rect class="cls-2" x="559.3" y="481" width="529.4" height="1032.03" rx="87.5"/></g></mask><linearGradient id="linear-gradient-10" x1="319.48" y1="507.28" x2="2124.06" y2="2259.04" gradientUnits="userSpaceOnUse"><stop offset="0" stop-color="#fff"/><stop offset="1" stop-color="#fff"/></linearGradient><radialGradient id="radial-gradient-4" cx="-598.46" cy="-602.48" r="3292.79" xlink:href="#radial-gradient"/><filter id="luminosity-noclip-10" x="552.57" y="619.15" width="7.94" height="117.02" filterUnits="userSpaceOnUse" color-interpolation-filters="sRGB"><feFlood flood-color="#fff" result="bg"/><feBlend in="SourceGraphic" in2="bg"/></filter><mask id="mask-10" x="552.57" y="619.15" width="7.94" height="117.02" maskUnits="userSpaceOnUse"><g class="cls-9"><rect class="cls-10" x="553.1" y="619.7" width="6.9" height="116.02"/></g></mask><linearGradient id="linear-gradient-11" x1="553.07" y1="677.66" x2="560.01" y2="677.66" xlink:href="#linear-gradient-10"/><filter id="luminosity-noclip-11" x="552.57" y="765.88" width="7.94" height="82.29" filterUnits="userSpaceOnUse" color-interpolation-filters="sRGB"><feFlood flood-color="#fff" result="bg"/><feBlend in="SourceGraphic" in2="bg"/></filter><mask id="mask-11" x="552.57" y="765.88" width="7.94" height="82.29" maskUnits="userSpaceOnUse"><g class="cls-11"><rect class="cls-12" x="553.1" y="766.4" width="6.9" height="81.29"/></g></mask><linearGradient id="linear-gradient-12" x1="553.07" y1="807.03" x2="560.01" y2="807.03" xlink:href="#linear-gradient-10"/><filter id="luminosity-noclip-12" x="1087.59" y="766.06" width="7.94" height="82.29" filterUnits="userSpaceOnUse" color-interpolation-filters="sRGB"><feFlood flood-color="#fff" result="bg"/><feBlend in="SourceGraphic" in2="bg"/></filter><mask id="mask-12" x="1087.59" y="766.06" width="7.94" height="82.29" maskUnits="userSpaceOnUse"><g class="cls-13"><rect class="cls-14" x="1088.1" y="766.6" width="6.9" height="81.29"/></g></mask><linearGradient id="linear-gradient-13" x1="1088.09" y1="807.2" x2="1095.03" y2="807.2" xlink:href="#linear-gradient-10"/><linearGradient id="linear-gradient-14" x1="1204.99" y1="1455.67" x2="1135.17" y2="1509.5" gradientTransform="matrix(-0.94, 0.34, 0.34, 0.94, 1158.07, -303.44)" gradientUnits="userSpaceOnUse"><stop offset="0" stop-color="#fff4de"/><stop offset="1" stop-color="#d26666"/></linearGradient><linearGradient id="linear-gradient-15" x1="1216.79" y1="1259.96" x2="1230.89" y2="1275.44" gradientTransform="matrix(-0.88, 0.47, 0.47, 0.88, 1055.57, -204.1)" xlink:href="#linear-gradient-14"/><linearGradient id="linear-gradient-16" x1="1163.13" y1="1466.18" x2="1150.65" y2="1516.88" xlink:href="#linear-gradient-14"/><filter id="luminosity-noclip-13" x="415.16" y="1095.24" width="289.69" height="429.68" filterUnits="userSpaceOnUse" color-interpolation-filters="sRGB"><feFlood flood-color="#fff" result="bg"/><feBlend in="SourceGraphic" in2="bg"/></filter><mask id="mask-13" x="415.16" y="1095.24" width="289.69" height="429.68" maskUnits="userSpaceOnUse"><g class="cls-15"><path class="cls-16" d="M415.7,1123.4l.2,373.6a27.4,27.4,0,0,0,27.5,27.4H676.9a27.5,27.5,0,0,0,27.5-27.5l-.3-373.6a27.5,27.5,0,0,0-21.8-26.9,26,26,0,0,0-5.6-.6l-233.6.2A27.4,27.4,0,0,0,415.7,1123.4Z"/></g></mask><linearGradient id="linear-gradient-17" x1="714.81" y1="1848.45" x2="1069.52" y2="1848.45" gradientTransform="matrix(-1, 0, 0, 1, 1467.08, -538.92)" xlink:href="#linear-gradient-10"/><filter id="luminosity-noclip-14" x="475.21" y="1052.74" width="169.29" height="44.21" filterUnits="userSpaceOnUse" color-interpolation-filters="sRGB"><feFlood flood-color="#fff" result="bg"/><feBlend in="SourceGraphic" in2="bg"/></filter><mask id="mask-14" x="475.21" y="1052.74" width="169.29" height="44.21" maskUnits="userSpaceOnUse"><g class="cls-3"><rect class="cls-4" x="475.7" y="1053.3" width="168.3" height="43.11" transform="translate(1120.4 2149.3) rotate(180)"/></g></mask><linearGradient id="linear-gradient-18" x1="795.39" y1="1613.22" x2="1002.3" y2="1613.22" gradientTransform="matrix(1, 0, 0, -1, -348.41, 2688.02)" xlink:href="#linear-gradient-10"/><linearGradient id="linear-gradient-19" x1="461.46" y1="1039.6" x2="658.21" y2="1039.6" gradientTransform="translate(1119 2079.6) rotate(-180)" gradientUnits="userSpaceOnUse"><stop offset="0" stop-color="#231e5d"/><stop offset="1" stop-color="#2c327e"/></linearGradient><linearGradient id="linear-gradient-20" x1="784.15" y1="1195.62" x2="409.08" y2="1460.18" gradientTransform="translate(1119.2 2721.7) rotate(-180)" xlink:href="#linear-gradient-9"/><linearGradient id="linear-gradient-21" x1="395.66" y1="1397.73" x2="705.99" y2="1087.41" gradientTransform="translate(19.3 -7.1) rotate(0.8)" xlink:href="#linear-gradient-9"/><linearGradient id="linear-gradient-22" x1="443.23" y1="1445.3" x2="753.55" y2="1134.97" gradientTransform="matrix(1, 0, 0, 1, 0, 0)" xlink:href="#linear-gradient-9"/><filter id="luminosity-noclip-15" x="641.6" y="1096.32" width="62.75" height="427.97" filterUnits="userSpaceOnUse" color-interpolation-filters="sRGB"><feFlood flood-color="#fff" result="bg"/><feBlend in="SourceGraphic" in2="bg"/></filter><mask id="mask-15" x="641.6" y="1096.32" width="62.75" height="427.97" maskUnits="userSpaceOnUse"><g class="cls-5"><path class="cls-6" d="M641.6,1096.3l.3,428h35a27.5,27.5,0,0,0,27.5-27.5l-.3-373.6a27.5,27.5,0,0,0-21.8-26.9Z"/></g></mask><linearGradient id="linear-gradient-23" x1="884.56" y1="1848.74" x2="685.71" y2="1848.74" gradientTransform="matrix(-1, 0, 0, 1, 1467.08, -538.92)" xlink:href="#linear-gradient-10"/><filter id="luminosity-noclip-16" x="513.52" y="1096.34" width="128.35" height="428.03" filterUnits="userSpaceOnUse" color-interpolation-filters="sRGB"><feFlood flood-color="#fff" result="bg"/><feBlend in="SourceGraphic" in2="bg"/></filter><mask id="mask-16" x="513.52" y="1096.34" width="128.35" height="428.03" maskUnits="userSpaceOnUse"><g class="cls-7"><polygon class="cls-8" points="513.8 1524.4 641.9 1524.3 641.8 1399.4 641.6 1096.3 513.5 1096.4 513.8 1524.4"/></g></mask><linearGradient id="linear-gradient-24" x1="1001.15" y1="1848.74" x2="621.26" y2="1848.74" gradientTransform="matrix(-1, 0, 0, 1, 1467.08, -538.92)" xlink:href="#linear-gradient-10"/><linearGradient id="linear-gradient-25" x1="461.46" y1="1023.12" x2="658.19" y2="1023.12" gradientTransform="translate(1119 2046.6) rotate(-180)" xlink:href="#linear-gradient-19"/><linearGradient id="linear-gradient-26" x1="1133.72" y1="1080.98" x2="1344.36" y2="1080.98" gradientUnits="userSpaceOnUse"><stop offset="0" stop-color="#60a69e"/><stop offset="1" stop-color="#4f8688"/></linearGradient><linearGradient id="linear-gradient-27" x1="1143.73" y1="778.08" x2="1334.35" y2="778.08" gradientUnits="userSpaceOnUse"><stop offset="0" stop-color="#fde55c"/><stop offset="1" stop-color="#ed3624"/></linearGradient><linearGradient id="linear-gradient-28" x1="1280.68" y1="648.42" x2="1215.52" y2="646.48" gradientUnits="userSpaceOnUse"><stop offset="0" stop-color="#dd637f"/><stop offset="0.58" stop-color="#f493a8"/><stop offset="1" stop-color="#ffd998"/></linearGradient><linearGradient id="linear-gradient-29" x1="1286.19" y1="617.43" x2="1416.31" y2="554.06" gradientUnits="userSpaceOnUse"><stop offset="0" stop-color="#0a2535"/><stop offset="1" stop-color="#133b51"/></linearGradient><linearGradient id="linear-gradient-30" x1="1262.54" y1="593.41" x2="1215.95" y2="595.08" xlink:href="#linear-gradient-28"/><linearGradient id="linear-gradient-31" x1="1257.23" y1="593" x2="1262.12" y2="593" xlink:href="#linear-gradient-28"/><linearGradient id="linear-gradient-32" x1="1241.61" y1="605.69" x2="1209.72" y2="590.17" xlink:href="#linear-gradient-28"/><linearGradient id="linear-gradient-33" x1="1171.32" y1="639.53" x2="1350.03" y2="765.19" xlink:href="#linear-gradient-27"/><linearGradient id="linear-gradient-34" x1="1181.65" y1="624.85" x2="1360.36" y2="750.51" xlink:href="#linear-gradient-27"/><linearGradient id="linear-gradient-35" x1="1144.93" y1="741.38" x2="1228.67" y2="780.76" xlink:href="#linear-gradient-27"/><linearGradient id="linear-gradient-36" x1="1169.59" y1="901.31" x2="1308.59" y2="901.31" gradientUnits="userSpaceOnUse"><stop offset="0" stop-color="#d66827"/><stop offset="1" stop-color="#c32727"/></linearGradient><linearGradient id="linear-gradient-37" x1="1161.2" y1="1216.61" x2="1246.5" y2="1216.61" gradientTransform="matrix(1, 0, 0, 1, 0, 0)" xlink:href="#linear-gradient-19"/><linearGradient id="linear-gradient-38" x1="1231.06" y1="1216.61" x2="1316.36" y2="1216.61" gradientTransform="matrix(1, 0, 0, 1, 0, 0)" xlink:href="#linear-gradient-19"/><linearGradient id="linear-gradient-39" x1="1096.28" y1="919.38" x2="1211.19" y2="919.38" gradientUnits="userSpaceOnUse"><stop offset="0" stop-color="#cee0db"/><stop offset="1" stop-color="#f3f4f5"/></linearGradient><linearGradient id="linear-gradient-40" x1="1266.88" y1="919.38" x2="1381.79" y2="919.38" xlink:href="#linear-gradient-39"/><linearGradient id="linear-gradient-41" x1="1223.02" y1="796.61" x2="1453.17" y2="684.54" xlink:href="#linear-gradient-29"/><linearGradient id="linear-gradient-42" x1="1201.38" y1="1534.07" x2="1358.39" y2="1457.62" gradientTransform="matrix(1, 0, 0, 1, 0, 0)" xlink:href="#linear-gradient-19"/><linearGradient id="linear-gradient-43" x1="713.24" y1="1534.07" x2="870.25" y2="1457.62" gradientTransform="matrix(-1, 0, 0, 1, 1989.33, 0)" xlink:href="#linear-gradient-19"/><linearGradient id="linear-gradient-44" x1="1329.8" y1="809.94" x2="1265.31" y2="804.13" xlink:href="#linear-gradient-28"/><linearGradient id="linear-gradient-45" x1="1212.06" y1="847.91" x2="1160.45" y2="682.52" xlink:href="#linear-gradient-39"/><linearGradient id="linear-gradient-46" x1="1298.7" y1="862.57" x2="1251.92" y2="712.66" xlink:href="#linear-gradient-39"/><linearGradient id="linear-gradient-47" x1="1224.51" y1="795.15" x2="1152.22" y2="788.64" xlink:href="#linear-gradient-28"/><linearGradient id="linear-gradient-48" x1="1128.98" y1="1255.58" x2="1582.2" y2="1258.88" gradientTransform="matrix(1, 0, 0, 1, 0, 0)" xlink:href="#linear-gradient-19"/><linearGradient id="linear-gradient-49" x1="-5038.62" y1="1492.28" x2="-4672.09" y2="1258.94" gradientTransform="matrix(-1, 0, 0, 1, -3123.3, 0)" xlink:href="#linear-gradient-19"/><linearGradient id="linear-gradient-50" x1="1617.57" y1="934.5" x2="1558.11" y2="934.5" gradientUnits="userSpaceOnUse"><stop offset="0" stop-color="#ffedb3"/><stop offset="1" stop-color="#f66"/></linearGradient><linearGradient id="linear-gradient-51" x1="1334.62" y1="802.58" x2="1649.76" y2="1001.77" gradientTransform="matrix(1, 0, 0, 1, 0, 0)" xlink:href="#linear-gradient-19"/><linearGradient id="linear-gradient-52" x1="1455.88" y1="734.25" x2="1532.63" y2="748.43" xlink:href="#linear-gradient-50"/><linearGradient id="linear-gradient-53" x1="1472.64" y1="688.91" x2="1549.8" y2="693.08" xlink:href="#linear-gradient-50"/><linearGradient id="linear-gradient-54" x1="1473.78" y1="683.76" x2="1562.3" y2="750.82" gradientTransform="matrix(1, 0, 0, 1, 0, 0)" xlink:href="#linear-gradient-19"/><linearGradient id="linear-gradient-55" x1="1434.14" y1="1532.6" x2="1506.75" y2="1532.6" gradientUnits="userSpaceOnUse"><stop offset="0" stop-color="#d7e2e1"/><stop offset="1" stop-color="#fff"/></linearGradient><linearGradient id="linear-gradient-56" x1="-4727.67" y1="1532.6" x2="-4655.06" y2="1532.6" gradientTransform="matrix(-1, 0, 0, 1, -3142.62, 0)" xlink:href="#linear-gradient-55"/><linearGradient id="linear-gradient-57" x1="1528.23" y1="826.83" x2="1544.7" y2="826.83" xlink:href="#linear-gradient-55"/><linearGradient id="linear-gradient-58" x1="2011.71" y1="-1697.87" x2="2011.71" y2="-1697.87" gradientTransform="matrix(-0.95, -0.31, -0.31, 0.95, 2952.84, 2987.84)" xlink:href="#linear-gradient-19"/><linearGradient id="linear-gradient-59" x1="2006.58" y1="-1736.91" x2="1943.73" y2="-1773.07" gradientTransform="matrix(-0.95, -0.31, -0.31, 0.95, 2952.84, 2987.84)" xlink:href="#linear-gradient-19"/><linearGradient id="linear-gradient-60" x1="1311.25" y1="892.59" x2="1557.68" y2="949.4" xlink:href="#linear-gradient-50"/><linearGradient id="linear-gradient-61" x1="1579.55" y1="928.92" x2="1521.91" y2="927.1" xlink:href="#linear-gradient-50"/><radialGradient id="radial-gradient-5" cx="1295.82" cy="626.92" r="2607.6" xlink:href="#radial-gradient"/><radialGradient id="radial-gradient-6" cx="2036.78" cy="903.75" r="1303.8" xlink:href="#radial-gradient"/><radialGradient id="radial-gradient-7" cx="-72.77" cy="55.83" r="3803.38" xlink:href="#radial-gradient"/><radialGradient id="radial-gradient-8" cx="-235.24" cy="701.54" r="1901.69" xlink:href="#radial-gradient"/></defs><rect class="cls-17" width="2700" height="1700"/><path class="cls-18" d="M2003.6,887.2l-647.7,555.1c-16.4-82.4,27.1-214.3,133.2-331.3l2.3-2.5a693.3,693.3,0,0,1,104.5-92.9c13-9.5,26.3-18.2,39.7-26.4l2.3-1.3c50.1-30.1,101.8-51.2,149.9-66l2.3-.7C1907.7,885.4,2003.6,887.2,2003.6,887.2Z"/><path class="cls-19" d="M1791.2,1069.2l-2.3,2-1.1-149.3,2.3-.7Z"/><path class="cls-19" d="M1639.6,1199.2l-2.3,1.9-1.7-211.9,2.3-1.3Z"/><path class="cls-19" d="M1493.1,1324.7l-2.3,2-1.7-215.7,2.3-2.5Z"/><path class="cls-20" d="M1749.8,1328.1l-2.4,1.9h0c-68.2,53.3-139.8,88.4-205.6,107.3l-5.3,1.5c-71.3,19.6-135.4,20-180.6,3.5l647.7-555.1s-9.1,67.5-43.9,154.9c-.3.8-.5,1.5-.8,2.2-18.5,46-43.9,97.3-78.8,147.2l-1.5,2a602,602,0,0,1-64.3,77A699.3,699.3,0,0,1,1749.8,1328.1Z"/><path class="cls-19" d="M1958.9,1044.3l-116.5-19,2.3-1.9,115,18.7C1959.4,1042.9,1959.2,1043.6,1958.9,1044.3Z"/><path class="cls-19" d="M1878.6,1193.5l-195.3-31.8,2.3-2,194.5,31.8Z"/><path class="cls-19" d="M1749.8,1328.1l-2.4,1.9h0l-218.8-35.7,2.3-1.9Z"/><path class="cls-19" d="M1541.8,1437.3l-5.3,1.5-148.3-24.2,2.3-2Z"/><path class="cls-21" d="M242.9,1504.6H2272.1s-87.2-189-254.5-147.9-274.3,119.2-386-5.9-264.6-390.4-648-332.5S563.4,1484.7,409.8,1391,138,1504.6,138,1504.6Z"/><g class="cls-22"><rect class="cls-23" x="559.3" y="481" width="529.4" height="1032.03" rx="87.5"/></g><rect class="cls-24" x="579.3" y="499.3" width="489.2" height="992.83" rx="61.9"/><g class="cls-25"><rect class="cls-26" x="553.1" y="619.7" width="6.9" height="116.02"/></g><g class="cls-27"><rect class="cls-28" x="553.1" y="766.4" width="6.9" height="81.29"/></g><g class="cls-29"><rect class="cls-30" x="1088.1" y="766.6" width="6.9" height="81.29"/></g><polygon class="cls-31" points="851.2 1042.9 817.3 948.4 796.3 948.4 784.7 890.7 767.3 948.4 734.6 948.4 700.8 821 655.6 948.4 579.3 948.4 579.3 941.6 650.7 941.6 701.7 797.8 739.9 941.6 762.2 941.6 786 862.4 801.9 941.6 822.1 941.6 850 1019 870.2 936.4 891.1 936.4 898.5 969.8 906.1 933 923.3 933 947.2 815.6 965.1 931.3 1068.6 931.3 1068.6 938.1 959.2 938.1 946.3 854.6 928.9 939.9 911.8 939.9 898.8 1002.6 885.6 943.3 875.6 943.3 851.2 1042.9"/><g class="cls-32"><rect class="cls-31" x="638.9" y="1121.7" width="162.1" height="3.51"/><rect class="cls-31" x="638.9" y="1138.3" width="162.1" height="3.51"/><rect class="cls-31" x="638.9" y="1155" width="162.1" height="3.51"/><rect class="cls-31" x="638.9" y="1171.7" width="162.1" height="3.51"/><rect class="cls-31" x="638.9" y="1188.4" width="89.3" height="3.51"/></g><g class="cls-32"><rect class="cls-31" x="841.8" y="1121.7" width="162.1" height="3.51"/><rect class="cls-31" x="841.8" y="1138.3" width="162.1" height="3.51"/><rect class="cls-31" x="841.8" y="1155" width="162.1" height="3.51"/><rect class="cls-31" x="841.8" y="1171.7" width="162.1" height="3.51"/><rect class="cls-31" x="841.8" y="1188.4" width="89.3" height="3.51"/></g><g class="cls-32"><rect class="cls-31" x="638.9" y="1248.9" width="162.1" height="3.51"/><rect class="cls-31" x="638.9" y="1265.5" width="162.1" height="3.51"/><rect class="cls-31" x="638.9" y="1282.2" width="162.1" height="3.51"/><rect class="cls-31" x="638.9" y="1298.9" width="162.1" height="3.51"/><rect class="cls-31" x="638.9" y="1315.6" width="89.3" height="3.51"/></g><g class="cls-32"><rect class="cls-31" x="841.8" y="1248.9" width="162.1" height="3.51"/><rect class="cls-31" x="841.8" y="1265.5" width="162.1" height="3.51"/><rect class="cls-31" x="841.8" y="1282.2" width="162.1" height="3.51"/><rect class="cls-31" x="841.8" y="1298.9" width="162.1" height="3.51"/><rect class="cls-31" x="841.8" y="1315.6" width="89.3" height="3.51"/></g><path class="cls-33" d="M590,1508.6l2-9h-1.1s-10.1-24-20.3-17.3S575,1508.7,590,1508.6Z"/><path class="cls-34" d="M577.1,1478.8s8.4,3.4,6.4,8.3-7.9,10.6-10.4,8.1a62.8,62.8,0,0,1-5.8-7.6S568.6,1479.5,577.1,1478.8Z"/><path class="cls-35" d="M589.5,1500.3s.1-12.5-4.7-12.3-8.7,7.7-6.8,7.3,5.1-5,5.1-5-1.5,8.3,1.2,11.6S589.5,1500.3,589.5,1500.3Z"/><g class="cls-36"><path class="cls-37" d="M415.7,1123.4l.2,373.6a27.4,27.4,0,0,0,27.5,27.4H676.9a27.5,27.5,0,0,0,27.5-27.5l-.3-373.6a27.5,27.5,0,0,0-21.8-26.9,26,26,0,0,0-5.6-.6l-233.6.2A27.4,27.4,0,0,0,415.7,1123.4Z"/></g><g class="cls-38"><rect class="cls-39" x="475.7" y="1053.3" width="168.3" height="43.11" transform="translate(1120.4 2149.3) rotate(180)"/></g><rect class="cls-40" x="461.5" y="1013.8" width="196.7" height="51.7" transform="translate(1120.3 2078.8) rotate(180)"/><path class="cls-41" d="M459.5,1211.2H660.6a28.9,28.9,0,0,1,28.9,28.9v270a0,0,0,0,1,0,0h-259a0,0,0,0,1,0,0v-270A28.9,28.9,0,0,1,459.5,1211.2Z" transform="translate(1121 2721) rotate(180)"/><circle class="cls-42" cx="487.7" cy="1305.7" r="26" transform="translate(-19.2 7.3) rotate(-0.8)"/><path class="cls-43" d="M512.7,1360.7a15.2,15.2,0,1,0,15.1-15.1A15.2,15.2,0,0,0,512.7,1360.7Z"/><g class="cls-44"><path class="cls-45" d="M641.6,1096.3l.3,428h35a27.5,27.5,0,0,0,27.5-27.5l-.3-373.6a27.5,27.5,0,0,0-21.8-26.9Z"/></g><g class="cls-46"><polygon class="cls-47" points="513.8 1524.4 641.9 1524.3 641.8 1399.4 641.6 1096.3 513.5 1096.4 513.8 1524.4"/></g><rect class="cls-48" x="461.5" y="1013.8" width="196.7" height="18.73" transform="translate(1120.3 2045.9) rotate(180)"/><path class="cls-49" d="M1133.7,1170.4s119-27.3,210.7,0v-35.5l-56.5-135.8-90-7.5-58.7,127.6Z"/><path class="cls-50" d="M1220.1,662.8l-76.4,24.9,25.9,205.7h135.2s18.7-132.5,29.6-205.7L1257,663.4Z"/><polygon class="cls-51" points="1220.1 616.9 1220.1 662.8 1238.8 677.9 1257 663.4 1254.8 616.9 1220.1 616.9"/><polygon class="cls-52" points="1220.1 616.9 1247.8 668.8 1256.8 659.2 1254.8 616.9 1220.1 616.9"/><path class="cls-53" d="M1257.4,598.6c-.1,8.8-1.1,18.5-5.4,23.2-6,6.9-18.2,7.7-27.9,0-6-4.7-7.7-15.5-8.1-23.2a64.1,64.1,0,0,1,0-8.4c0-23.9,10.9-30,25.1-28.8s15.8,16.2,16.1,26.4C1257.3,590.9,1257.4,594.7,1257.4,598.6Z"/><path class="cls-54" d="M1257.2,587.8s2.8-1.5,4.4,2.2a6.1,6.1,0,0,1-4.4,8.5Z"/><path class="cls-55" d="M1216.1,587.8s-2.7-1.5-4.4,2.2a6.1,6.1,0,0,0,4.4,8.5Z"/><path class="cls-56" d="M1246.5,570.6s2.2,7.8,7.3,10l2,11.4h1.4s2.7-11.1,2.5-16.5,1.1-13.9-13.2-12.8Z"/><path class="cls-56" d="M1222.7,568.4a24.4,24.4,0,0,1-3.3,12.2l-2.2,11.4H1216s-2.6-11.1-2.4-16.5-1.2-13.9,13.1-12.8Z"/><polygon class="cls-57" points="1238.8 677.9 1226.7 694.4 1211.2 665.7 1220.1 657.9 1238.8 677.9"/><polygon class="cls-58" points="1239.3 677.9 1251.3 694.4 1266.9 665.7 1257.9 657.9 1239.3 677.9"/><polygon class="cls-59" points="1239.3 677.9 1238.8 893.4 1248.9 893.4 1246.5 687.8 1239.3 677.9"/><polygon class="cls-60" points="1169.6 893.4 1169.6 909.3 1307.5 909.3 1308.6 893.4 1169.6 893.4"/><path class="cls-61" d="M1169.6,909.3s-11.3,122.9-7.7,309,7.7,305.7,7.7,305.7H1205s34.4-339,38.9-459.7l2.6-155Z"/><path class="cls-62" d="M1308,909.3s11.3,122.9,7.6,309S1308,1524,1308,1524h-35.4s-34.4-339-38.9-459.7l-2.6-155Z"/><path class="cls-63" d="M1211.2,665.7s-19.3,416.4-77.5,504.7c0,0-40,10-37.3-8.7s57.3-268.3,57.3-268.3l-10-205.7Z"/><path class="cls-64" d="M1266.9,665.7s19.2,416.4,77.5,504.7c0,0,40,10,37.3-8.7s-65.3-268.3-65.3-268.3l18-205.7Z"/><polygon class="cls-65" points="1153.7 767.3 1153.7 893.4 1147.8 772.3 1153.7 767.3"/><path class="cls-66" d="M1177.6,1524s-9.9,16.6-29.2,19.3-9.6,12.1-9.6,12.1h45.9l5.1-5.4,1.9,5.4H1202l-2.9-31.4Z"/><path class="cls-67" d="M1299.8,1524s10,16.6,29.2,19.3,9.6,12.1,9.6,12.1h-45.8l-5.2-5.4-1.8,5.4h-10.4l3-31.4Z"/><path class="cls-68" d="M1286.8,796.5s17-.2,23.2,4.7,4.7,17.3,4.7,17.3L1284,803.9Z"/><path class="cls-56" d="M1246.5,570.6s1.2,14.7-14.7,21.4c0,0,12.6-15.5,7.5-21.4,0,0-6.1,25.8-23.3,21.4,0,0-11-12.4-4.8-33.8s32.8-15.8,35.3-8.4c0,0,9.1-4.6,15.6,5.6s-4.9,32.4-4.9,32.4l-3-17Z"/><path class="cls-69" d="M1143.7,687.7s-26.3,82.2-28.2,133.7,76.9,35.4,131,15.1l40.3-15.1V796.5s-89.2.8-117.2,16.2C1169.6,812.7,1200.8,680.5,1143.7,687.7Z"/><path class="cls-70" d="M1334.4,687.7s23.8,85.5,10,146.9S1189,800.2,1189,800.2l20.3-14.6s71.8,4.3,99.3,27.1C1308.6,812.7,1283.3,691.6,1334.4,687.7Z"/><polygon class="cls-71" points="1209.3 785.6 1175.4 779.9 1172 801.2 1193.4 794.3 1197.4 794.2 1209.3 785.6"/><path class="cls-72" d="M1442.2,1001.2s-1.1,285,37.6,514.1h20.1l9.5-409.4V1001.2Z"/><path class="cls-73" d="M1576.5,1001.2s1.2,285-37.5,514.1h-20.2l-9.4-409.4V1001.2Z"/><polygon class="cls-74" points="1442.4 1033.6 1442.7 1055.1 1559.4 1055.1 1565.8 1044.4 1569 1055.1 1575.5 1055.1 1576.5 1020.1 1570.9 994.3 1486.3 1009.5 1442.4 1033.6"/><path class="cls-75" d="M1598.4,874.7s17.9,101-24.1,126.5l-14.9-133.4Z"/><path class="cls-56" d="M1475.2,759.4l6.6-9.9-1.7,9.9,34.1-2.6s9.2-5.6,11.5-19.8l-5.2,19.6s7-7.7,8.1-16.7l-5,16.9s7.4,3.6,14.4-6.6,0-35.4,0-35.4l-9.4-48.5s-23.5-3.7-25.3-3-24.1,6-23.8,8.3-7.9,69.3-7.9,69.3Z"/><path class="cls-76" d="M1485.9,774.4s-63.6,5.5-71.5,26.8-17.8,82.2-17.8,82.2l44.6,4.5-6,145.7h125.9l4.9-25.4,7,25.4h15.8L1572,883.4h43.6s-7-77.4-37.7-94.4-54.3-12.5-54.3-12.5Z"/><polygon class="cls-74" points="1441.2 887.9 1444.2 826.8 1426.3 886.4 1441.2 887.9"/><polygon class="cls-74" points="1572 883.4 1565.8 826.8 1585.2 883.4 1572 883.4"/><path class="cls-77" d="M1485.9,729.9s5.6,29.3,0,44.5c0,0,14.3,31.3,37.7,2.1,0,0-7.1-33.8-5-66.6S1485.9,729.9,1485.9,729.9Z"/><path class="cls-74" d="M1486.3,732.4s11.5,32.4,37.3,44.1c0,0-5.1-30.9-5.2-44.3S1486.3,732.4,1486.3,732.4Z"/><path class="cls-78" d="M1474.3,676.4s-4.2,42.5,17.9,62.7,40-25.6,35.8-62.7-20.5-42.6-34.9-38.1S1474.4,660,1474.3,676.4Z"/><path class="cls-79" d="M1501.3,651.8s-5.9,33.6,27.3,32.9c0,0,10.4,64.5,0,72.4,0,0,26.5-2.9,30.8-31.7,0,0-23.4-42.6-24.8-54.2s-13.6-40.8-33.7-34.2c0,0-25.1-9.7-33,22s-31.7,88.1,7.3,100.4c0,0,2.3-56.1,9.2-66.4s9.3-34,9.3-34,1.8,23-5,31.5C1488.7,690.5,1504.3,679.2,1501.3,651.8Z"/><path class="cls-74" d="M1555.8,945.7s-5.7,4.3-25.8,0l-91.8,15.2.6-15.2,96.1-8.5Z"/><polygon class="cls-74" points="1599.7 883.4 1580.8 890.7 1584.2 992.7 1572 883.4 1599.7 883.4"/><path class="cls-80" d="M1479.8,1515.3s-21.8,16.1-32.4,14.8-18.4,15.2-9.2,19.8h65.4s9.2-12.5-3.7-34.6Z"/><path class="cls-81" d="M1539.4,1515.3s21.8,16.1,32.4,14.8,18.4,15.2,9.2,19.8h-65.4s-9.2-12.5,3.7-34.6Z"/><polygon class="cls-82" points="1544.7 824.2 1539.1 824.2 1539.1 818.6 1533.9 818.6 1533.9 824.2 1528.2 824.2 1528.2 829.4 1533.9 829.4 1533.9 835.1 1539.1 835.1 1539.1 829.4 1544.7 829.4 1544.7 824.2"/><path class="cls-83" d="M1558.8,754.8"/><line class="cls-84" x1="1592.7" y1="718.3" x2="1582.7" y2="715.1"/><path class="cls-85" d="M1396.6,883.4s-10,42-4,59.3,136,0,136,0V926.3l-97.7-9.4,10.3-29Z"/><path class="cls-86" d="M1528.6,926.3l11.1-16.2s3.5,2.9-1.1,8.1,8.9,4.4,16.2,4.1,2.8,5.8,4.6,7.3-.7,4.6,0,6.4-1.3,4.1-.8,6.1-.5,3.6-2.8,3.6-27.2-3-27.2-3Z"/><polygon class="cls-74" points="1396.6 883.4 1441.2 887.9 1436.7 900.5 1395.9 886.5 1396.6 883.4"/><path class="cls-87" d="M2190.1,790a123.3,123.3,0,0,0-38.6,6.1c.1-2,.2-4,.2-6.1a89.5,89.5,0,0,0-174.8-27,46.5,46.5,0,0,0-77.3,22.8,95.9,95.9,0,0,0-145.4,31.4h513.3A123.3,123.3,0,0,0,2190.1,790Z"/><path class="cls-88" d="M2483.9,985.3a61.9,61.9,0,0,0-19.3,3.1c.1-1.1.1-2.1.1-3.1a44.7,44.7,0,0,0-87.4-13.5,23.2,23.2,0,0,0-38.6,11.4,48,48,0,0,0-72.7,15.7h256.6A61.5,61.5,0,0,0,2483.9,985.3Z"/><path class="cls-89" d="M1231.6,293.7a180.8,180.8,0,0,0-56.3,8.9c.2-2.9.3-5.9.3-8.9a130.5,130.5,0,0,0-254.9-39.4,68,68,0,0,0-112.8,33.2,140.2,140.2,0,0,0-212.1,45.9h748.7A179.3,179.3,0,0,0,1231.6,293.7Z"/><path class="cls-90" d="M416.9,820.5a90.3,90.3,0,0,0-28.1,4.4c.1-1.4.2-2.9.2-4.4a65.3,65.3,0,0,0-127.5-19.7,34,34,0,0,0-56.4,16.6,70,70,0,0,0-106,22.9H473.4A90,90,0,0,0,416.9,820.5Z"/></svg>